<svg width="24" height="25" viewBox="0 0 24 25" fill="none" xmlns="http://www.w3.org/2000/svg">
<path fill-rule="evenodd" clip-rule="evenodd" d="M7.28312 5.81902H6.67964C6.28174 5.81902 5.92805 5.81736 5.76889 5.77315C5.73528 5.76381 5.69929 5.75724 5.66336 5.75067L5.6633 5.75066L5.66329 5.75066L5.66328 5.75066L5.66326 5.75065C5.5291 5.72614 5.39565 5.70176 5.38868 5.53441C5.38596 5.46908 5.39885 5.36443 5.4137 5.2438V5.2438C5.4471 4.9726 5.49044 4.62067 5.38868 4.45336C5.24165 4.21163 4.69373 3.48635 4.32308 3.19628C4.28449 3.16608 4.24659 3.13605 4.20928 3.10648C3.88832 2.85216 3.611 2.63242 3.30783 2.63242C2.96941 2.63242 2.24423 2.98678 2.03473 3.50247C1.82523 4.01815 1.95415 4.61442 2.29257 4.90449C2.63099 5.19456 3.51732 5.81902 3.9202 5.81902C4.21755 5.81902 4.41834 5.909 4.63918 6.00797L4.63919 6.00798C4.71757 6.0431 4.79847 6.07936 4.88711 6.11313C5.22553 6.24205 6.18447 6.35664 6.80343 6.3478C7.42238 6.33895 7.82028 6.2859 7.92638 6.22401C7.94435 6.21352 7.96461 6.20023 7.98641 6.18592C8.09336 6.11573 8.23764 6.02103 8.33313 6.11313C8.42207 6.19892 8.41043 6.43009 8.39651 6.70643C8.39244 6.78723 8.38818 6.87189 8.38618 6.95791C8.38378 7.06094 8.37879 7.17111 8.37384 7.28033L8.37383 7.28043L8.37383 7.2805V7.28051C8.36051 7.57429 8.34751 7.86115 8.38618 7.9836C8.43923 8.1516 8.31544 8.20465 8.21818 8.19581L8.15993 8.19002C7.95765 8.16948 7.35637 8.10843 6.92722 8.11623C6.4409 8.12508 3.79708 7.68297 3.35498 7.5857C2.91287 7.48844 1.62191 6.74569 1.26822 6.48927C0.914532 6.23285 -0.06695 5.384 0.00378786 3.88083C0.0686686 2.50212 0.936909 1.78544 1.3668 1.4306L1.3668 1.43059L1.36682 1.43058L1.36682 1.43057C1.40562 1.39855 1.44085 1.36947 1.47159 1.34312C1.84296 1.0248 2.66529 0.644586 3.62024 0.777219C4.5752 0.909852 5.28257 1.32539 5.62742 1.71444C5.83413 1.94766 6.1044 2.35245 6.34297 2.70979C6.50239 2.94856 6.64766 3.16615 6.75037 3.29719C6.95144 3.55372 7.04377 4.0724 7.10411 4.41134C7.12072 4.50466 7.13491 4.58436 7.14827 4.64121C7.18459 4.79569 7.21261 4.94409 7.23667 5.07153L7.23667 5.07154L7.23669 5.07163V5.07164L7.23669 5.07164C7.25362 5.16135 7.26859 5.24066 7.28312 5.30437C7.29043 5.33647 7.29772 5.36758 7.30475 5.39755L7.30479 5.39772L7.30479 5.39774C7.36353 5.64835 7.40353 5.81902 7.28312 5.81902ZM10.6535 8.81909C10.6661 8.86407 10.6763 8.9006 10.6763 8.94735C10.6763 9.00908 10.5303 8.99245 10.3512 8.97206C10.2482 8.96033 10.1342 8.94735 10.0308 8.94735C9.85161 8.94735 9.55533 8.97928 9.31724 9.00493C9.17943 9.01978 9.06112 9.03253 8.99629 9.03577C8.96083 9.03755 8.92929 9.04074 8.90129 9.04358C8.78967 9.05488 8.73455 9.06046 8.71334 8.94735C8.70065 8.87968 8.72437 8.72706 8.75258 8.54559C8.78335 8.34766 8.81945 8.1154 8.81945 7.92166C8.81945 7.80336 8.80419 7.50742 8.78483 7.13187L8.78482 7.13151L8.78481 7.13141C8.7434 6.32798 8.68322 5.16048 8.71334 4.58815C8.75755 3.74815 8.82829 2.62519 9.65061 2.01508C10.4729 1.40497 10.9858 1.15739 12.4005 1.21044C13.6912 1.25884 14.0988 1.71201 14.4356 2.08653L14.4357 2.08661L14.4358 2.08673C14.4681 2.12266 14.4998 2.15787 14.5315 2.19192C14.894 2.58098 15.2212 3.58899 15.2212 3.93383V5.44585C15.2212 5.53092 15.241 5.60466 15.2582 5.66868L15.2582 5.66868C15.2714 5.71778 15.2831 5.76115 15.2831 5.79953C15.2831 5.88795 15.0267 5.92332 14.7172 5.86143C14.4813 5.81425 14.0246 5.83899 13.758 5.85342L13.758 5.85342C13.6748 5.85793 13.6102 5.86143 13.5765 5.86143C13.4351 5.86143 13.3643 5.79069 13.329 5.69343C13.3128 5.64898 13.3317 5.58608 13.3562 5.50471C13.3853 5.40801 13.4222 5.28523 13.4174 5.13637C13.4085 4.86226 13.3201 3.97804 12.993 3.56246C12.6658 3.14688 12.2767 2.90814 11.9319 2.90814C11.587 2.90814 10.9416 3.38562 10.8355 3.71278C10.8246 3.7464 10.8123 3.7831 10.799 3.82275C10.6829 4.16893 10.4915 4.73976 10.4995 5.44584C10.5059 6.02299 10.5029 6.87598 10.5008 7.46069C10.5001 7.67325 10.4995 7.85036 10.4995 7.96587C10.4995 8.31248 10.5761 8.5465 10.6144 8.62019C10.6236 8.71204 10.6399 8.77049 10.6535 8.81909ZM10.9681 6.48922C10.9681 6.41512 10.9596 6.37059 10.9529 6.33485C10.9427 6.28101 10.9362 6.24708 10.9681 6.16206C11.0434 6.11686 11.2165 6.14868 11.4119 6.18461C11.5605 6.21194 11.7221 6.24164 11.8634 6.24164C12.0097 6.24164 12.1666 6.25755 12.3167 6.27277C12.5023 6.29159 12.6776 6.30936 12.8096 6.29469C13.0483 6.26817 14.1447 6.24164 14.5845 6.24164H15.8955C15.9887 6.24164 16.0671 6.21433 16.1321 6.19171C16.178 6.17572 16.2172 6.16206 16.2502 6.16206C16.3297 6.16206 16.3618 6.4008 16.3176 6.55996C16.2908 6.65645 16.303 7.15265 16.3128 7.5521V7.55216V7.5522V7.55222V7.55224V7.55227V7.5523V7.55236V7.55243V7.55252C16.3192 7.81179 16.3246 8.03021 16.3176 8.07197C16.2999 8.17808 16.1761 8.22229 16.0435 8.1604C15.9416 8.11284 15.2342 8.13836 14.8357 8.15274H14.8357L14.8356 8.15274C14.7155 8.15708 14.6235 8.1604 14.5845 8.1604C14.532 8.1604 14.4691 8.16558 14.4023 8.17109C14.2555 8.1832 14.0899 8.19686 13.9744 8.1604C13.8607 8.12449 13.6782 8.13719 13.5062 8.14914L13.5062 8.14915C13.4241 8.15486 13.3445 8.1604 13.2759 8.1604C13.1896 8.1604 13.1618 8.16918 13.1401 8.17603C13.1086 8.186 13.09 8.19186 12.9222 8.1604C12.7644 8.13081 12.2464 8.14522 11.8005 8.15763H11.8005C11.4469 8.16747 11.1388 8.17604 11.0919 8.1604L11.0682 8.15268C10.9831 8.12531 10.9681 8.1205 10.9681 7.96587V6.48922ZM7.79011 9.4851C7.7359 9.49129 7.72209 9.49286 7.75707 9.71672C7.7851 9.89615 7.77831 10.0024 7.76914 10.1459C7.76354 10.2334 7.75707 10.3348 7.75707 10.475C7.75707 10.6194 7.74331 10.746 7.73191 10.8509C7.7141 11.0149 7.70203 11.126 7.75707 11.17C7.82007 11.2204 8.15893 11.2005 8.44159 11.1838L8.44164 11.1838C8.5639 11.1766 8.67565 11.17 8.75001 11.17C8.82151 11.17 8.93153 11.1651 9.05573 11.1595L9.05578 11.1595C9.35933 11.1459 9.74753 11.1284 9.86512 11.17C10.0308 11.2286 10.1769 11.2175 10.3956 11.17C10.6144 11.1225 11.8988 11.1026 12.1199 11.17C12.3409 11.2375 12.8626 11.2794 12.9776 11.17C13.0503 11.1008 13.0089 10.8384 12.9686 10.5833C12.9452 10.435 12.9222 10.2892 12.9222 10.1853C12.9222 10.0616 12.9434 9.93778 12.9625 9.82541L12.9625 9.8254L12.9625 9.82538L12.9626 9.82536C12.9873 9.68061 13.0087 9.55487 12.9776 9.473C12.9438 9.38436 12.8363 9.40377 12.6773 9.43245C12.5755 9.45082 12.4525 9.473 12.3144 9.473H11.0146C10.849 9.473 10.6422 9.46702 10.4279 9.46082C9.97546 9.44773 9.48994 9.43369 9.29037 9.473C9.05511 9.51935 8.23032 9.49231 7.84733 9.473C7.82499 9.48113 7.80585 9.48331 7.79011 9.4851ZM5.73913 13.7813C5.66503 13.7813 5.6205 13.7898 5.58475 13.7966C5.53092 13.8068 5.49699 13.8132 5.41197 13.7813C5.36677 13.706 5.39859 13.533 5.43452 13.3375C5.46184 13.1889 5.49155 13.0273 5.49155 12.886C5.49155 12.7397 5.50746 12.5828 5.52268 12.4327C5.5415 12.2471 5.55927 12.0719 5.5446 11.9399C5.51808 11.7011 5.49155 10.6047 5.49155 10.1649V8.85396C5.49155 8.76072 5.46424 8.68232 5.44162 8.61738L5.44162 8.61737C5.42562 8.57145 5.41197 8.53225 5.41197 8.49929C5.41197 8.41971 5.65071 8.38761 5.80987 8.43182C5.90636 8.45863 6.40261 8.44643 6.80207 8.43661H6.80208H6.80209H6.8021H6.80211H6.80212H6.80214H6.80217C7.06155 8.43023 7.28011 8.42486 7.32188 8.43182C7.42799 8.44951 7.4722 8.5733 7.4103 8.70593C7.36275 8.80784 7.38827 9.51525 7.40265 9.91375V9.91376L7.40265 9.91385C7.40698 10.034 7.4103 10.126 7.4103 10.1649C7.4103 10.2174 7.41549 10.2804 7.421 10.3472C7.43311 10.494 7.44676 10.6595 7.4103 10.775C7.3744 10.8887 7.38709 11.0713 7.39905 11.2432L7.39905 11.2432V11.2432L7.39906 11.2432C7.40476 11.3253 7.4103 11.405 7.4103 11.4735C7.4103 11.5599 7.41909 11.5877 7.42593 11.6093C7.43591 11.6409 7.44177 11.6594 7.4103 11.8272C7.38072 11.985 7.39513 12.5031 7.40754 12.9489V12.9489C7.41737 13.3025 7.42595 13.6106 7.4103 13.6576L7.40259 13.6812C7.37522 13.7664 7.37041 13.7813 7.21578 13.7813H5.73913ZM8.069 14.0959C8.11398 14.0834 8.15051 14.0731 8.19726 14.0731C8.25899 14.0731 8.24236 14.2192 8.22197 14.3982C8.21024 14.5013 8.19726 14.6153 8.19726 14.7186C8.19726 14.8978 8.22918 15.1941 8.25484 15.4322C8.26969 15.57 8.28244 15.6883 8.28568 15.7532C8.28745 15.7886 8.29065 15.8202 8.29348 15.8482C8.30479 15.9598 8.31037 16.0149 8.19726 16.0361C8.12959 16.0488 7.97697 16.0251 7.7955 15.9969C7.59756 15.9661 7.36531 15.93 7.17156 15.93C7.05327 15.93 6.75733 15.9453 6.38177 15.9646L6.38142 15.9646L6.38132 15.9646L6.38129 15.9646L6.38124 15.9646L6.38116 15.9646C5.57774 16.0061 4.41035 16.0662 3.83806 16.0361C2.99805 15.9919 1.8751 15.9212 1.26499 15.0988C0.654874 14.2765 0.407293 13.7637 0.460346 12.3489C0.508747 11.0582 0.961915 10.6507 1.33644 10.3138C1.37244 10.2815 1.40771 10.2497 1.44183 10.2179C1.83088 9.85541 2.83889 9.52825 3.18374 9.52825H4.69575C4.78082 9.52825 4.85457 9.50843 4.91858 9.49122L4.91859 9.49122C4.96769 9.47802 5.01106 9.46636 5.04944 9.46636C5.13786 9.46636 5.17323 9.72278 5.11134 10.0323C5.06416 10.2681 5.08889 10.7248 5.10333 10.9914L5.10333 10.9914C5.10783 11.0746 5.11134 11.1393 5.11134 11.1729C5.11134 11.3144 5.0406 11.3851 4.94333 11.4205C4.89889 11.4366 4.83598 11.4177 4.75462 11.3933C4.65791 11.3642 4.53513 11.3273 4.38628 11.3321C4.11217 11.3409 3.22795 11.4293 2.81237 11.7565C2.39678 12.0836 2.15805 12.4727 2.15805 12.8175C2.15805 13.1624 2.63552 13.8079 2.96268 13.914C2.9963 13.9249 3.033 13.9372 3.07265 13.9505C3.41883 14.0665 3.98967 14.2579 4.69575 14.25C5.2729 14.2435 6.12589 14.2465 6.7106 14.2486C6.92316 14.2494 7.10026 14.25 7.21578 14.25C7.56239 14.25 7.79641 14.1733 7.8701 14.135C7.96195 14.1258 8.0204 14.1095 8.069 14.0959ZM5.06893 17.4663V18.0698C5.06893 18.4677 5.06727 18.8214 5.02306 18.9805C5.01371 19.0142 5.00713 19.0502 5.00056 19.0862C4.97605 19.2203 4.95167 19.3538 4.78432 19.3608C4.71899 19.3635 4.61433 19.3506 4.49371 19.3357C4.22251 19.3023 3.87058 19.259 3.70327 19.3608C3.46154 19.5078 2.73626 20.0557 2.44619 20.4264C2.4163 20.4646 2.38658 20.5021 2.35732 20.539L2.35646 20.5401L2.35639 20.5402C2.10207 20.8611 1.88233 21.1384 1.88233 21.4416C1.88233 21.78 2.23669 22.5052 2.75238 22.7147C3.26806 22.9242 3.86432 22.7953 4.1544 22.4569C4.44447 22.1185 5.06893 21.2321 5.06893 20.8292C5.06893 20.5319 5.15891 20.3311 5.25788 20.1103C5.29301 20.0319 5.32927 19.951 5.36304 19.8623C5.49196 19.5239 5.60655 18.565 5.5977 17.946C5.58886 17.3271 5.53581 16.9292 5.47391 16.8231C5.46343 16.8051 5.45014 16.7848 5.43583 16.763C5.36564 16.6561 5.27094 16.5118 5.36304 16.4163C5.44883 16.3274 5.68 16.339 5.95634 16.3529C6.03714 16.357 6.1218 16.3613 6.20782 16.3633C6.31085 16.3657 6.42102 16.3707 6.53024 16.3756L6.53034 16.3756L6.53041 16.3756H6.53042H6.53043C6.8242 16.3889 7.11106 16.4019 7.23351 16.3633C7.40151 16.3102 7.45456 16.434 7.44572 16.5313L7.43993 16.5895C7.41939 16.7918 7.35834 17.3931 7.36614 17.8222C7.37498 18.3085 6.93287 20.9524 6.83561 21.3945C6.73835 21.8366 5.9956 23.1275 5.73918 23.4812C5.48276 23.8349 4.63391 24.8164 3.13073 24.7457C1.75203 24.6808 1.03535 23.8125 0.680503 23.3826C0.648469 23.3438 0.619384 23.3086 0.593027 23.2779C0.274709 22.9065 -0.105505 22.0842 0.0271276 21.1292C0.15976 20.1742 0.575295 19.4669 0.964351 19.122C1.19757 18.9153 1.60237 18.645 1.9597 18.4065C2.19848 18.247 2.41606 18.1018 2.5471 17.9991C2.80363 17.798 3.32231 17.7057 3.66125 17.6453L3.6614 17.6453C3.75466 17.6287 3.8343 17.6145 3.89111 17.6012C4.04561 17.5648 4.19404 17.5368 4.32148 17.5128L4.32154 17.5128C4.41125 17.4958 4.49057 17.4808 4.55428 17.4663C4.58644 17.459 4.61762 17.4517 4.64764 17.4446C4.89826 17.3859 5.06893 17.3459 5.06893 17.4663ZM8.73501 16.9593C8.74119 17.0135 8.74277 17.0274 8.96663 16.9924C9.14606 16.9643 9.25234 16.9711 9.39582 16.9803C9.48333 16.9859 9.58467 16.9924 9.72488 16.9924C9.86932 16.9924 9.99588 17.0061 10.1008 17.0175L10.1008 17.0175C10.2648 17.0353 10.3759 17.0474 10.4199 16.9924C10.4703 16.9294 10.4504 16.5905 10.4337 16.3079L10.4337 16.3078C10.4265 16.1855 10.4199 16.0738 10.4199 15.9994C10.4199 15.9279 10.415 15.8179 10.4094 15.6937L10.4094 15.6937C10.3958 15.3901 10.3784 15.0019 10.4199 14.8843C10.4785 14.7186 10.4674 14.5726 10.4199 14.3538C10.3724 14.135 10.3525 12.8506 10.4199 12.6296C10.4874 12.4085 10.5293 11.8868 10.4199 11.7719C10.3507 11.6992 10.0883 11.7406 9.8332 11.7808C9.68495 11.8042 9.53916 11.8272 9.43516 11.8272C9.31151 11.8272 9.18769 11.8061 9.07532 11.7869C8.93055 11.7622 8.80479 11.7407 8.72291 11.7719C8.63427 11.8056 8.65368 11.9132 8.68235 12.0721C8.70073 12.174 8.72291 12.2969 8.72291 12.435V13.7348C8.72291 13.9004 8.71693 14.1073 8.71073 14.3215C8.69764 14.774 8.6836 15.2595 8.72291 15.4591C8.76926 15.6943 8.74222 16.5191 8.72291 16.9021C8.73103 16.9245 8.73322 16.9436 8.73501 16.9593ZM18.8044 7.43028V8.03376C18.8044 8.15418 18.9751 8.11418 19.2257 8.05544L19.2258 8.05541C19.2558 8.04838 19.2869 8.04108 19.3191 8.03376C19.3828 8.01924 19.4621 8.00427 19.5518 7.98733L19.5518 7.98733L19.5518 7.98732C19.6793 7.96326 19.8277 7.93524 19.9822 7.89892C20.0391 7.88555 20.1188 7.87137 20.2121 7.85475C20.551 7.79442 21.0697 7.70208 21.3262 7.50102C21.4573 7.39831 21.6749 7.25304 21.9136 7.09362L21.9137 7.09361L21.9137 7.09358L21.9137 7.09356L21.9138 7.0935C22.2711 6.85495 22.6758 6.58474 22.909 6.37806C23.2981 6.03322 23.7136 5.32584 23.8462 4.37089C23.9789 3.41593 23.5986 2.59361 23.2803 2.22223C23.2542 2.1917 23.2253 2.15675 23.1935 2.11827L23.1935 2.1182L23.1931 2.11779L23.1931 2.11775L23.1929 2.11746L23.1929 2.11744C22.838 1.68756 22.1213 0.819312 20.7426 0.754431C19.2394 0.683693 18.3906 1.66518 18.1342 2.01886C17.8777 2.37255 17.135 3.66351 17.0377 4.10562C16.9405 4.54773 16.4984 7.19154 16.5072 7.67786C16.515 8.10701 16.454 8.7083 16.4334 8.91057L16.4276 8.96882C16.4188 9.06608 16.4718 9.18988 16.6398 9.13682C16.7623 9.09815 17.0492 9.11116 17.343 9.12448C17.4522 9.12943 17.5625 9.13443 17.6655 9.13682C17.7516 9.13882 17.8362 9.14309 17.917 9.14716C18.1934 9.16107 18.4245 9.17271 18.5103 9.08377C18.6024 8.98829 18.5077 8.844 18.4375 8.73706C18.4232 8.71525 18.4099 8.695 18.3994 8.67703C18.3375 8.57092 18.2845 8.17302 18.2756 7.55407C18.2668 6.93512 18.3814 5.97618 18.5103 5.63776C18.5441 5.54912 18.5803 5.46823 18.6155 5.38986L18.6155 5.38983C18.7144 5.16898 18.8044 4.9682 18.8044 4.67085C18.8044 4.26797 19.4289 3.38163 19.719 3.04321C20.009 2.7048 20.6053 2.57587 21.121 2.78537C21.6367 2.99487 21.991 3.72005 21.991 4.05847C21.991 4.36165 21.7713 4.63896 21.517 4.95993L21.5169 4.96002C21.4873 4.9973 21.4573 5.03516 21.4272 5.07373C21.1371 5.44438 20.4118 5.99229 20.1701 6.13932C20.0028 6.24109 19.6508 6.19774 19.3796 6.16434C19.259 6.14949 19.1544 6.1366 19.089 6.13932C18.9217 6.14629 18.8973 6.27974 18.8728 6.41391C18.8662 6.44987 18.8596 6.48589 18.8503 6.51954C18.8061 6.67869 18.8044 7.03238 18.8044 7.43028ZM15.6761 11.4269C15.7228 11.4269 15.7594 11.4167 15.8043 11.4042C15.8529 11.3906 15.9114 11.3742 16.0033 11.3651C16.0769 11.3267 16.311 11.2501 16.6576 11.2501C16.7731 11.2501 16.9502 11.2507 17.1628 11.2515C17.7475 11.2536 18.6005 11.2566 19.1776 11.2501C19.8837 11.2422 20.4545 11.4335 20.8007 11.5496C20.8403 11.5629 20.877 11.5752 20.9107 11.5861C21.2378 11.6922 21.7153 12.3377 21.7153 12.6825C21.7153 13.0274 21.4766 13.4164 21.061 13.7436C20.6454 14.0708 19.7612 14.1592 19.4871 14.168C19.3382 14.1728 19.2154 14.1359 19.1187 14.1068C19.0374 14.0824 18.9745 14.0634 18.93 14.0796C18.8328 14.115 18.762 14.1857 18.762 14.3272C18.762 14.3608 18.7655 14.4255 18.77 14.5087C18.7845 14.7752 18.8092 15.232 18.762 15.4678C18.7001 15.7773 18.7355 16.0337 18.8239 16.0337C18.8623 16.0337 18.9057 16.0221 18.9548 16.0089C19.0188 15.9917 19.0925 15.9718 19.1776 15.9718H20.6896C21.0345 15.9718 22.0425 15.6447 22.4315 15.2821C22.4656 15.2504 22.5009 15.2186 22.5369 15.1863C22.9114 14.8494 23.3646 14.4419 23.413 13.1512C23.4661 11.7364 23.2185 11.2236 22.6084 10.4013C21.9983 9.57893 20.8753 9.50819 20.0353 9.46398C19.463 9.43386 18.2955 9.49404 17.4921 9.53545L17.4921 9.53545L17.492 9.53546L17.4919 9.53546L17.4916 9.53548L17.4913 9.5355L17.4909 9.53552L17.4906 9.53553C17.1155 9.55486 16.82 9.57009 16.7018 9.57009C16.508 9.57009 16.2758 9.53399 16.0778 9.50322C15.8964 9.47502 15.7438 9.4513 15.6761 9.46398C15.563 9.48519 15.5686 9.54031 15.5799 9.65194C15.5827 9.67993 15.5859 9.71148 15.5877 9.74693C15.5909 9.81177 15.6037 9.93008 15.6185 10.0679C15.6442 10.306 15.6761 10.6023 15.6761 10.7815C15.6761 10.8848 15.6631 10.9988 15.6514 11.1019C15.631 11.2809 15.6144 11.4269 15.6761 11.4269ZM18.2886 11.7035C18.2528 11.7103 18.2083 11.7187 18.1342 11.7187H16.6576C16.5029 11.7187 16.4981 11.7337 16.4708 11.8188L16.463 11.8425C16.4474 11.8895 16.456 12.1976 16.4658 12.5512C16.4782 12.997 16.4926 13.5151 16.463 13.6729C16.4316 13.8407 16.4374 13.8592 16.4474 13.8908C16.4543 13.9124 16.463 13.9402 16.463 14.0266C16.463 14.0951 16.4686 14.1748 16.4743 14.2569V14.2569C16.4863 14.4288 16.499 14.6114 16.463 14.7251C16.4266 14.8405 16.4402 15.0061 16.4523 15.1529L16.4524 15.153C16.4579 15.2198 16.463 15.2827 16.463 15.3352C16.463 15.3741 16.4664 15.4662 16.4707 15.5863C16.4851 15.9848 16.5106 16.6922 16.463 16.7942C16.4011 16.9268 16.4454 17.0506 16.5515 17.0683C16.5932 17.0752 16.8118 17.0699 17.0712 17.0635H17.0712H17.0712L17.0714 17.0635C17.4708 17.0537 17.967 17.0415 18.0635 17.0683C18.2226 17.1125 18.4614 17.0804 18.4614 17.0008C18.4614 16.9678 18.4477 16.9286 18.4317 16.8827C18.4091 16.8178 18.3818 16.7394 18.3818 16.6461V15.3352C18.3818 14.8954 18.3553 13.7989 18.3287 13.5602C18.3141 13.4282 18.3319 13.253 18.3507 13.0673C18.3659 12.9172 18.3818 12.7604 18.3818 12.6141C18.3818 12.4728 18.4115 12.3112 18.4388 12.1625L18.4388 12.1625C18.4748 11.9671 18.5066 11.7941 18.4614 11.7187C18.3764 11.6869 18.3424 11.6933 18.2886 11.7035ZM14.9067 8.50771C15.1306 8.47273 15.1322 8.48655 15.1383 8.54075C15.1401 8.55649 15.1423 8.57563 15.1504 8.59798C15.1311 8.98096 15.1041 9.80575 15.1504 10.041C15.1898 10.2406 15.1757 10.7261 15.1626 11.1786L15.1626 11.1787C15.1564 11.3929 15.1504 11.5997 15.1504 11.7652V13.065C15.1504 13.2032 15.1726 13.3261 15.191 13.428C15.2197 13.5869 15.2391 13.6945 15.1504 13.7282C15.0686 13.7594 14.9428 13.7379 14.798 13.7132C14.6857 13.694 14.5618 13.6729 14.4382 13.6729C14.3342 13.6729 14.1884 13.6959 14.0401 13.7193C13.785 13.7595 13.5226 13.8009 13.4534 13.7282C13.344 13.6133 13.386 13.0916 13.4534 12.8705C13.5209 12.6495 13.5009 11.3651 13.4534 11.1463C13.4059 10.9275 13.3948 10.7815 13.4534 10.6158C13.495 10.4982 13.4776 10.11 13.4639 9.80643L13.4639 9.80636C13.4583 9.68217 13.4534 9.57216 13.4534 9.50065C13.4534 9.42629 13.4468 9.31455 13.4396 9.19228L13.4396 9.19223C13.423 8.90957 13.403 8.57072 13.4534 8.50771C13.4974 8.45267 13.6086 8.46475 13.7725 8.48256C13.8774 8.49396 14.004 8.50771 14.1485 8.50771C14.2887 8.50771 14.39 8.51419 14.4775 8.51978C14.621 8.52895 14.7273 8.53574 14.9067 8.50771ZM16.0832 16.015C16.1374 16.0088 16.1513 16.0072 16.1163 15.7834C16.0882 15.6039 16.095 15.4977 16.1042 15.3542C16.1098 15.2667 16.1163 15.1653 16.1163 15.0251C16.1163 14.8807 16.13 14.7541 16.1414 14.6492L16.1414 14.6492C16.1592 14.4852 16.1713 14.3741 16.1163 14.3301C16.0533 14.2796 15.7144 14.2996 15.4318 14.3163L15.4317 14.3163C15.3094 14.3235 15.1977 14.3301 15.1233 14.3301C15.0518 14.3301 14.9418 14.335 14.8176 14.3406L14.8176 14.3406C14.514 14.3542 14.1258 14.3716 14.0082 14.3301C13.8425 14.2715 13.6965 14.2826 13.4777 14.3301C13.2589 14.3776 11.9745 14.3975 11.7535 14.3301C11.5324 14.2626 11.0107 14.2207 10.8958 14.3301C10.8231 14.3992 10.8645 14.6617 10.9047 14.9168C10.9281 15.065 10.9511 15.2108 10.9511 15.3148C10.9511 15.4385 10.93 15.5623 10.9108 15.6747L10.9108 15.6747L10.9108 15.6747C10.8861 15.8195 10.8646 15.9452 10.8958 16.0271C10.9295 16.1157 11.0371 16.0963 11.196 16.0676L11.196 16.0676C11.2979 16.0493 11.4208 16.0271 11.5589 16.0271H12.8587C13.0243 16.0271 13.2312 16.0331 13.4454 16.0393C13.8979 16.0524 14.3834 16.0664 14.583 16.0271C14.8182 15.9807 15.643 16.0078 16.026 16.0271C16.0484 16.019 16.0675 16.0168 16.0832 16.015ZM13.2198 16.681C13.2073 16.636 13.197 16.5995 13.197 16.5527C13.197 16.491 13.3431 16.5076 13.5221 16.528C13.6252 16.5398 13.7392 16.5527 13.8425 16.5527C14.0217 16.5527 14.318 16.5208 14.5561 16.4952C14.6939 16.4803 14.8122 16.4676 14.8771 16.4643C14.9125 16.4625 14.9441 16.4593 14.9721 16.4565C15.0837 16.4452 15.1388 16.4396 15.16 16.5527C15.1727 16.6204 15.149 16.773 15.1208 16.9545C15.09 17.1524 15.0539 17.3847 15.0539 17.5784C15.0539 17.6968 15.0692 17.9929 15.0885 18.3687L15.0885 18.3687L15.0885 18.3687L15.0885 18.3688C15.13 19.1722 15.1901 20.3396 15.16 20.9119C15.1158 21.7519 15.0451 22.8749 14.2227 23.485C13.4004 24.0951 12.8876 24.3427 11.4728 24.2896C10.1821 24.2412 9.77457 23.7881 9.43774 23.4136C9.40536 23.3776 9.37364 23.3423 9.34185 23.3082C8.97932 22.9191 8.65216 21.9111 8.65216 21.5663V20.0542C8.65216 19.9692 8.63234 19.8954 8.61513 19.8314C8.60193 19.7823 8.59027 19.7389 8.59027 19.7006C8.59027 19.6121 8.84669 19.5768 9.15617 19.6387C9.39203 19.6858 9.84875 19.6611 10.1153 19.6467C10.1985 19.6422 10.2632 19.6387 10.2968 19.6387C10.4383 19.6387 10.509 19.7094 10.5444 19.8067C10.5605 19.8511 10.5416 19.914 10.5172 19.9954C10.4881 20.0921 10.4512 20.2149 10.456 20.3637C10.4648 20.6378 10.5532 21.522 10.8804 21.9376C11.2076 22.3532 11.5966 22.5919 11.9415 22.5919C12.2863 22.5919 12.9318 22.1145 13.0379 21.7873C13.0488 21.7537 13.0611 21.717 13.0744 21.6773C13.1904 21.3312 13.3818 20.7603 13.3739 20.0542C13.3674 19.4771 13.3704 18.6241 13.3725 18.0394C13.3733 17.8268 13.3739 17.6497 13.3739 17.5342C13.3739 17.1876 13.2973 16.9536 13.2589 16.8799C13.2498 16.788 13.2334 16.7296 13.2198 16.681ZM16.5902 19.6811H17.1937C17.5916 19.6811 17.9453 19.6827 18.1045 19.7269C18.1381 19.7363 18.1741 19.7429 18.2101 19.7494C18.3442 19.7739 18.4777 19.7983 18.4847 19.9657C18.4874 20.031 18.4745 20.1357 18.4596 20.2563C18.4262 20.5275 18.3829 20.8794 18.4847 21.0467C18.6317 21.2885 19.1796 22.0137 19.5503 22.3038C19.5888 22.334 19.6267 22.364 19.664 22.3935L19.6641 22.3936C19.985 22.6479 20.2623 22.8677 20.5655 22.8677C20.9039 22.8677 21.6291 22.5133 21.8386 21.9976C22.0481 21.4819 21.9192 20.8857 21.5808 20.5956C21.2424 20.3055 20.356 19.6811 19.9531 19.6811C19.6558 19.6811 19.455 19.5911 19.2342 19.4921C19.1558 19.457 19.0749 19.4207 18.9862 19.387C18.6478 19.258 17.6889 19.1434 17.0699 19.1523C16.451 19.1611 16.0531 19.2142 15.947 19.2761C15.929 19.2866 15.9087 19.2999 15.8869 19.3142C15.78 19.3844 15.6357 19.4791 15.5402 19.387C15.4513 19.3012 15.4629 19.07 15.4768 18.7937C15.4809 18.7129 15.4852 18.6282 15.4872 18.5422C15.4896 18.4392 15.4946 18.3291 15.4995 18.2199L15.4995 18.2198L15.4995 18.2197L15.4995 18.2197L15.4995 18.2196C15.5128 17.9258 15.5258 17.6389 15.4872 17.5165C15.4341 17.3485 15.5579 17.2954 15.6552 17.3043L15.7134 17.3101H15.7134C15.9157 17.3306 16.517 17.3917 16.9461 17.3839C17.4325 17.375 20.0763 17.8171 20.5184 17.9144C20.9605 18.0117 22.2514 18.7544 22.6051 19.0108C22.9588 19.2672 23.9403 20.1161 23.8696 21.6193C23.8047 22.998 22.9364 23.7146 22.5066 24.0695C22.4677 24.1015 22.4325 24.1306 22.4018 24.157C22.0304 24.4753 21.2081 24.8555 20.2531 24.7229C19.2982 24.5902 18.5908 24.1747 18.2459 23.7856C18.0392 23.5524 17.769 23.1477 17.5304 22.7903L17.5304 22.7903C17.371 22.5515 17.2257 22.3339 17.123 22.2029C16.9219 21.9464 16.8296 21.4277 16.7692 21.0887C16.7526 20.9954 16.7384 20.9157 16.7251 20.8589C16.6887 20.7044 16.6607 20.5559 16.6367 20.4284L16.6366 20.4283L16.6366 20.4279C16.6197 20.3384 16.6047 20.2593 16.5902 20.1957L16.5801 20.1518L16.5686 20.1025L16.5686 20.1024C16.5098 19.8517 16.4698 19.6811 16.5902 19.6811ZM12.9053 19.0109C12.9053 19.085 12.9137 19.1295 12.9205 19.1652C12.9307 19.2191 12.9371 19.253 12.9053 19.338C12.8299 19.3832 12.6569 19.3514 12.4615 19.3155L12.4614 19.3155C12.3128 19.2882 12.1512 19.2584 12.0099 19.2584C11.8636 19.2584 11.7067 19.2425 11.5567 19.2273C11.371 19.2085 11.1958 19.1907 11.0638 19.2054C10.825 19.2319 9.72862 19.2584 9.2888 19.2584H7.97786C7.88463 19.2584 7.80623 19.2858 7.74128 19.3084C7.69536 19.3244 7.65616 19.338 7.6232 19.338C7.54362 19.338 7.51152 19.0993 7.55573 18.9401C7.58253 18.8436 7.57034 18.3473 7.56052 17.9479V17.9479L7.56052 17.9478L7.56051 17.9477C7.55414 17.6884 7.54877 17.4699 7.55573 17.4281C7.57341 17.322 7.69721 17.2778 7.82984 17.3397C7.93175 17.3872 8.63918 17.3617 9.03767 17.3473C9.15782 17.343 9.24988 17.3397 9.2888 17.3397C9.34132 17.3397 9.4042 17.3345 9.47097 17.329L9.47106 17.329C9.61787 17.3169 9.78345 17.3032 9.89891 17.3397C10.0126 17.3756 10.1952 17.3629 10.3671 17.3509H10.3671C10.4492 17.3452 10.5289 17.3397 10.5974 17.3397C10.6838 17.3397 10.7116 17.3309 10.7332 17.3241C10.7648 17.3141 10.7833 17.3082 10.9511 17.3397C11.1089 17.3693 11.627 17.3549 12.0728 17.3425C12.4264 17.3326 12.7345 17.324 12.7815 17.3397L12.8051 17.3474C12.8903 17.3748 12.9053 17.3796 12.9053 17.5342V19.0109Z" fill="#C9AC9C"/>
</svg>
