<svg width="65" height="65" fill="none" xmlns="http://www.w3.org/2000/svg"><g clip-path="url(#a)" stroke="#685C54" stroke-width="2" stroke-miterlimit="10"><path d="M1.334 48.266v13.152c0 1.118.895 2.023 2 2.023h58c1.105 0 2-.905 2-2.023v-9.106a2.011 2.011 0 0 0-2-2.023h-42l-4-4.047h-12c-1.105 0-2 .907-2 2.024Z"/><path d="m55.364 2.705-16.03 16.218 6 6.07 16.03-16.217a4.285 4.285 0 0 0 0-6.01l-.06-.06a4.166 4.166 0 0 0-5.94 0ZM42.334 21.96l-6 6.071" stroke-linejoin="round"/><path d="M13.548 17.41c0-2.634-2.11-4.77-4.714-4.77M9.548 36.629c0-2.634-2.11-4.77-4.714-4.77M21.33 24.578c-2.593.234-4.508 2.55-4.278 5.173" stroke-linecap="round" stroke-linejoin="round"/><path d="M15.334 46.242s7-10.117 21-18.21c0 0-5 11.128-17 22.257"/></g><defs><clipPath id="a"><path fill="#fff" transform="translate(.334 .453)" d="M0 0h64v64H0z"/></clipPath></defs></svg>