<svg fill="none" xmlns="http://www.w3.org/2000/svg" viewBox="0 0 1360 798"><g opacity=".2" fill="#A68F82"><path d="M1204.97 58.901c.39-3.997.78-8.009 1.29-12.135 1.55-13.941 3.62-27.882 10.33-40.79 1.03-1.55 1.55-3.615-.52-4.648-1.24-.826-2.48-.33-3.72.165-.3.124-.61.248-.92.351-3.69 1.537-6.65 3.987-9.52 6.372-1.96 1.623-3.88 3.218-5.97 4.472-11.36 6.884-22.26 14.228-33.17 21.571-5.45 3.672-10.9 7.344-16.4 10.958-11.88 7.745-23.76 15.49-36.15 22.72l-.7.43c-6.04 3.71-6.45 3.96-4.46 10.929 1.03 2.582 1.03 5.163 1.03 7.745 0 5.706 1.31 10.976 2.65 16.377.73 2.907 1.46 5.852 2 8.924.14.569.17 1.296.19 2.06.07 2.008.15 4.278 2.39 4.652 2.27.378 2.88-1.731 3.44-3.7.21-.722.41-1.425.69-1.979.76-1.217 1.43-2.479 2.11-3.746 1.61-3.033 3.24-6.097 6.15-8.647 10.33-10.326 21.69-19.62 33.05-28.914.46-.4.93-.809 1.4-1.22 3.16-2.769 6.43-5.627 10.47-6.526.25 2 .38 4.002.51 5.944.13 2.067.26 4.068.53 5.932.46 6.925 1.33 13.438 2.25 20.276l.33 2.443c.52 4.647-1.55 8.778-5.68 11.359-10.53 6.481-19.47 14.868-28.32 23.167a614.563 614.563 0 0 1-7.31 6.781c-4.68 4.097-9.44 8.047-14.18 11.988-7.82 6.49-15.61 12.958-23 20.026-.67.678-1.55 1.257-2.41 1.823-1.1.729-2.17 1.436-2.75 2.307-1.2 2.406.71 3.878 2.35 5.14.47.364.92.71 1.27 1.056 7.22 7.746 9.81 16.007 9.81 25.818a287.678 287.678 0 0 0 0 42.34 538.646 538.646 0 0 1 0 70.739c-1.04 15.49-5.17 29.948-11.88 43.889-1.55 3.098-2.07 4.647 2.07 4.647 7.22-.344 14.45-.23 21.68-.115 3.62.058 7.23.115 10.85.115h16.52c3.21 0 2.75-1.627 2.25-3.436-.06-.23-.13-.462-.19-.695 0-1.936-.87-3.872-1.74-5.809-.29-.645-.58-1.29-.84-1.936-4.65-9.294-6.71-19.105-6.71-29.431 0-4.131 0-8.262-1.03-12.393-2.58-8.778-2.07-17.555 0-26.333 1.55-5.68 2.06-11.876.51-17.556-1.8-4.7-1.84-9.653-1.88-14.683-.01-2.153-.03-4.32-.18-6.487-1.16-13.301-.05-26.602 1.06-39.903.87-10.451 1.75-20.901 1.52-31.352 0-.362-.01-.738-.02-1.116-.06-2.317-.13-4.854 2.08-6.629 5.06-3.675 9.5-7.961 13.96-12.271 5.57-5.38 11.18-10.795 18.06-15.096.19-.127.39-.27.59-.414 1.43-1.033 3.02-2.175 3.02 1.447.42 4.337.66 8.675.91 13.012.37 6.506.74 13.012 1.67 19.518 1.11 10.343.9 20.963.69 31.457-.09 4.169-.17 8.322-.17 12.432v85.196c0 2.324.02 4.652.05 6.958.17 16.135.33 31.841-7.79 46.742-2.07 3.615 1.54 8.778 4.64 8.778h33.05c11.28 0 9.83-3.058 4.74-13.733l-.09-.208c-1.04-1.033-1.55-2.066-1.55-3.615-.61-4.108-1.36-8.216-2.1-12.337-1.79-9.865-3.58-19.806-3.58-30.003-.34-12.494-.24-25-.12-38.504.06-7.142.12-14.567.12-22.424.2-7.721.08-16.002-.04-24.653-.19-13.334-.39-27.55.55-41.956.18-1.893.58-3.729.98-5.565.8-3.671 1.6-7.343.57-11.474-2.82-9.538-2.51-19.077-2.19-28.615.14-4.403.29-8.806.13-13.209 0-1.76.47-3.52.92-5.24.62-2.317 1.22-4.561.63-6.636-.13-.82-.27-1.642-.4-2.449-.95-5.799-1.87-11.346.4-17.688 1.15-3.753.21-7.506-.76-11.35-.76-3.03-1.54-6.116-1.31-9.304.52-4.125.9-8.136 1.29-12.133Z"/><path fill-rule="evenodd" clip-rule="evenodd" d="M1359.64 356.559c2.07 6.712-5.16 13.425-12.91 13.425h-83.13c-2.65 0-5.35-.114-8.07-.228-7.3-.308-14.72-.622-21.87 1.26-.52.517-2.59-1.549-2.59-2.581-.51-1.033 0-2.582 1.04-3.615 9.29-19.104 8.77-40.274 8.26-60.928 0-8.262.51-17.039 1.55-25.301 1.55-18.201 1.35-36.402 1.16-54.603-.07-6.067-.13-12.134-.13-18.201.22-15.724.16-31.353.09-46.927-.08-20.738-.16-41.38.43-62.022 0-8.217-.84-17.267-1.65-26.11-.62-6.715-1.23-13.31-1.45-19.328-.52-6.196-3.62-11.876-6.71-17.555-3.1-7.746-.52-11.36 7.22-11.36 6.2-.516 11.88-.516 18.59-.516 2.42-.162 4.95-.02 7.52.124 5.67.317 11.59.65 17.27-2.19.51 0 1.55.517 2.06 1.033 0 .535.06 1.014.12 1.468.12.86.22 1.651-.12 2.663 0 .667-.64 1.118-1.38 1.632-.4.283-.83.584-1.2.95-7.74 5.68-9.81 14.457-10.84 23.235-.14 2.947-.17 5.864-.19 8.745-.07 7.716-.14 15.235-2.39 22.752v4.13c2.49 11.209 1.6 23.543.73 35.646-.58 7.969-1.14 15.837-.73 23.218.51 7.745 1.03 16.006 1.03 23.751 1.03 14.811 1.15 29.403 1.26 44.061.06 7.31.12 14.644.29 22.031v1.549c-.28 1.101-.77 2.312-1.27 3.535-1.38 3.367-2.8 6.826.23 8.341 1.71 1.023 3.86-1.556 6.17-4.318 1.19-1.421 2.42-2.891 3.64-3.943 13.95-12.909 23.76-28.916 33.57-44.922 2.58-4.131 3.61-8.778 1.55-13.941 0-.517 2.06-3.098 3.61-3.615.92-.459 1.43 1.127 1.9 2.574l.17.524c2.41 8.95 2.98 18.359 3.55 27.768.29 4.705.58 9.409 1.09 14.056.52 3.098-1.03 5.68-3.1 8.262-5.06 7.041-11.06 13.16-17.05 19.279-4.99 5.099-9.98 10.199-14.44 15.832-6.2 8.261-12.91 16.007-19.62 23.752-2.95 2.944-2.81 5.89-2.65 9.114.03.733.07 1.48.07 2.245.2 2.06.08 4.201-.04 6.359-.19 3.253-.38 6.544.55 9.648 4.44-1.614 6.99-4.803 9.61-8.09.74-.921 1.48-1.85 2.27-2.753 17.55-18.072 33.56-37.177 47.5-58.347 1.55-2.065 3.1-4.131 4.65-6.713 1.03-1.032 2.06-1.549 3.61-1.032 1.55.516 2.07 1.549 2.07 2.581-.28 4.232.51 8.464 1.29 12.612.65 3.443 1.29 6.828 1.29 10.108 0 7.036 1.58 13.678 3.14 20.257 1.54 6.456 3.06 12.852 3.06 19.501 3.17 4.13 3.22 8.848 3.27 13.55.03 2.939.06 5.872.86 8.653.71 3.204 1.24 6.471 1.77 9.777 1.02 6.28 2.06 12.713 4.42 19.138Zm-59.38-13.941c7.75-1.033 14.98-2.066 22.21-3.098-.64-2.976-.67-5.954-.69-8.93-.04-4.252-.07-8.505-1.9-12.757-.96-1.613-.92-3.628-.88-5.669.02-1.227.05-2.462-.15-3.625 0-.516-.13-.904-.26-1.291-.13-.387-.25-.774-.25-1.291l-.4.19-.41.183c-.93.416-2.02.904-2.81 1.693-4.8 6.298-10.47 11.029-16.2 15.811-4.14 3.45-8.3 6.927-12.2 11.038-.51.517-2.58 2.324-4.65 4.131-2.06 1.807-4.13 3.615-4.64 4.131.74.373 5.81-.063 8.95-.334 1.2-.103 2.12-.182 2.41-.182 1.39.348 3.02.226 4.57.11.74-.056 1.47-.11 2.14-.11h5.16Z"/><path d="m1204.97 464.599.02-.148c.38-3.944.76-7.916 1.27-11.987 1.55-13.941 3.62-27.882 10.33-40.791 1.03-1.549 1.55-3.614-.52-4.647-1.24-.826-2.48-.33-3.72.165-.3.124-.61.248-.92.351-3.69 1.537-6.65 3.988-9.53 6.374-1.95 1.622-3.87 3.216-5.96 4.47-11.36 6.884-22.27 14.231-33.17 21.575-5.45 3.67-10.9 7.341-16.4 10.954-11.88 7.745-23.76 15.491-36.15 22.719l-.7.43c-6.04 3.71-6.45 3.961-4.46 10.93 1.03 2.582 1.03 5.163 1.03 7.745 0 5.706 1.31 10.976 2.65 16.377.73 2.907 1.46 5.852 2 8.924.14.569.17 1.296.19 2.06.07 2.008.15 4.278 2.39 4.652 2.27.378 2.88-1.731 3.44-3.7.21-.722.41-1.425.69-1.979.76-1.217 1.43-2.479 2.11-3.746 1.61-3.033 3.24-6.097 6.15-8.647 10.33-10.327 21.69-19.621 33.05-28.915l.68-.592.72-.626c3.16-2.77 6.43-5.628 10.47-6.527.25 2 .38 4.003.51 5.944.13 2.067.26 4.068.53 5.932.46 6.925 1.33 13.438 2.25 20.276l.33 2.443c.52 4.647-1.55 8.778-5.68 11.359-10.53 6.481-19.47 14.868-28.32 23.167a614.563 614.563 0 0 1-7.31 6.781c-4.68 4.093-9.44 8.051-14.18 11.988-7.82 6.49-15.61 12.958-23 20.026-.67.678-1.55 1.257-2.41 1.823-1.1.729-2.17 1.436-2.75 2.307-1.2 2.406.71 3.877 2.35 5.14.47.364.92.71 1.27 1.056 7.22 7.746 9.81 16.007 9.81 25.818a287.678 287.678 0 0 0 0 42.34 538.646 538.646 0 0 1 0 70.739c-1.04 15.49-5.17 29.948-11.88 43.889-1.55 3.098-2.07 4.647 2.07 4.647 7.22-.344 14.47-.229 21.7-.115 3.61.058 7.22.115 10.83.115h16.52c3.21 0 2.75-1.629 2.25-3.439-.06-.229-.13-.46-.19-.692 0-1.936-.87-3.872-1.74-5.809-.29-.645-.58-1.291-.84-1.936-4.65-9.294-6.71-19.105-6.71-29.431 0-4.131 0-8.262-1.03-12.393-2.58-8.778-2.07-17.555 0-26.333 1.55-5.68 2.06-11.876.51-17.556-1.8-4.7-1.84-9.653-1.88-14.683-.01-2.153-.03-4.32-.18-6.487-1.16-13.301-.05-26.602 1.06-39.903.87-10.451 1.75-20.902 1.52-31.352l-.01-.589-.01-.527c-.06-2.317-.13-4.854 2.08-6.629 5.06-3.675 9.5-7.961 13.96-12.271 5.57-5.38 11.18-10.795 18.06-15.096.19-.127.39-.27.59-.415 1.43-1.032 3.02-2.174 3.02 1.448.42 4.337.66 8.675.91 13.012.37 6.506.74 13.012 1.67 19.518 1.11 10.341.9 20.96.69 31.451-.09 4.172-.17 8.326-.17 12.438v85.196c0 2.329.02 4.65.05 6.961.17 16.135.33 31.838-7.79 46.739-2.07 3.614 1.54 8.778 4.64 8.778h33.05c11.28 0 9.83-3.058 4.74-13.733l-.09-.208c-1.04-1.033-1.55-2.066-1.55-3.615-.61-4.108-1.36-8.216-2.1-12.337-1.79-9.865-3.58-19.806-3.58-30.003-.34-12.494-.24-25-.12-38.505.06-7.142.12-14.566.12-22.423.2-7.721.08-16.002-.04-24.653-.19-13.334-.39-27.55.55-41.956.18-1.893.58-3.729.98-5.565.8-3.671 1.6-7.343.57-11.474-2.82-9.538-2.51-19.077-2.19-28.615.14-4.403.29-8.806.13-13.209 0-1.76.47-3.52.92-5.24.62-2.317 1.22-4.561.63-6.636l-.2-1.227-.2-1.222c-.95-5.799-1.87-11.346.4-17.688 1.15-3.753.21-7.506-.76-11.349-.76-3.031-1.54-6.117-1.31-9.305.52-4.125.9-8.136 1.29-12.133Z"/><path fill-rule="evenodd" clip-rule="evenodd" d="M1346.73 775.682c7.75 0 14.98-6.713 12.91-13.425-2.36-6.424-3.4-12.849-4.42-19.128-.53-3.309-1.06-6.58-1.77-9.787-.8-2.781-.83-5.714-.86-8.653-.05-4.702-.1-9.42-3.27-13.55 0-6.649-1.52-13.045-3.06-19.501-1.56-6.579-3.14-13.221-3.14-20.258 0-3.279-.64-6.664-1.29-10.107-.78-4.148-1.57-8.38-1.29-12.612 0-1.032-.52-2.065-2.07-2.581-1.55-.517-2.58 0-3.61 1.032-1.55 2.582-3.1 4.647-4.65 6.713-13.94 21.17-29.95 40.275-47.5 58.347-.79.902-1.53 1.828-2.27 2.748-2.62 3.287-5.17 6.481-9.61 8.095-.93-3.104-.74-6.395-.55-9.648.12-2.158.24-4.299.04-6.359 0-.765-.04-1.514-.07-2.247-.16-3.223-.3-6.168 2.65-9.112 6.71-7.745 13.42-15.491 19.62-23.752 4.46-5.633 9.45-10.733 14.44-15.832 5.99-6.119 11.99-12.239 17.05-19.279 2.07-2.582 3.62-5.164 3.1-8.262-.51-4.647-.8-9.351-1.09-14.056-.57-9.409-1.14-18.818-3.55-27.768l-.17-.524c-.47-1.447-.98-3.033-1.9-2.574-1.55.517-3.61 3.098-3.61 3.615 2.06 5.163 1.03 9.81-1.55 13.941-9.81 16.007-19.62 32.013-33.57 44.922-1.22 1.052-2.45 2.522-3.64 3.943-2.31 2.762-4.46 5.341-6.17 4.318-3.03-1.515-1.61-4.974-.23-8.341.5-1.223.99-2.434 1.27-3.535v-1.549c-.17-7.372-.23-14.709-.29-22.005-.11-14.659-.23-29.275-1.26-44.087 0-7.745-.52-16.006-1.03-23.751-.41-7.381.15-15.249.73-23.218.87-12.103 1.76-24.437-.73-35.645v-4.131c2.25-7.517 2.32-15.041 2.39-22.757.02-2.882.05-5.792.19-8.74 1.03-8.778 3.1-17.556 10.84-23.236.37-.365.8-.666 1.2-.949.74-.514 1.38-.965 1.38-1.632.34-1.012.24-1.804.12-2.663-.06-.456-.12-.931-.12-1.468-.51-.516-1.55-1.033-2.06-1.033-5.68 2.84-11.6 2.508-17.27 2.19-2.57-.144-5.1-.286-7.52-.124-6.71 0-12.39 0-18.59.516-7.74 0-10.32 3.614-7.22 11.36 3.09 5.679 6.19 11.359 6.71 17.555.22 6.018.83 12.617 1.45 19.332.81 8.841 1.65 17.891 1.65 26.106-.59 20.642-.51 41.284-.43 62.022.07 15.574.13 31.203-.09 46.927 0 6.067.06 12.134.13 18.201.19 18.201.39 36.402-1.16 54.603-1.04 8.262-1.55 17.039-1.55 25.301.51 20.654 1.03 41.824-8.26 60.928-1.04 1.033-1.55 2.582-1.04 3.615 0 1.032 2.07 3.098 2.59 2.581 7.15-1.882 14.58-1.568 21.88-1.26 2.71.114 5.41.228 8.06.228h83.13Zm-24.26-30.464c-7.23 1.032-14.46 2.065-22.21 3.098h-5.16c-.67 0-1.4.054-2.14.11-1.55.116-3.18.238-4.57-.11-.29 0-1.21.079-2.41.183-3.14.27-8.21.706-8.95.333.51-.516 2.58-2.324 4.64-4.131 2.07-1.807 4.14-3.614 4.65-4.131 3.9-4.111 8.07-7.589 12.2-11.039 5.73-4.782 11.4-9.512 16.2-15.81.79-.789 1.88-1.277 2.81-1.693l.45-.204.36-.169c0 .517.12.904.25 1.291.13.387.26.775.26 1.291.2 1.163.17 2.398.15 3.624-.04 2.042-.08 4.057.88 5.67 1.83 4.252 1.86 8.507 1.9 12.759.02 2.976.05 5.952.69 8.928Z"/><path d="M1082.37 515.986c2.58 0 3.61.517 1.55 3.615-2.89 5.421-7.56 9.072-12.22 12.722-2 1.565-4 3.129-5.85 4.833-2.99 2.391-6.5 4.09-10.03 5.798-2.56 1.243-5.14 2.49-7.53 4.013-3.61 2.582-6.2.516-7.23-2.582-1.55-3.098-3.1-7.229-2.58-9.81 2.64-7.035 1.15-13.337-.3-19.512-.25-1.07-.5-2.14-.73-3.208-3.62-16.006-1.55-32.529 1.03-48.019.52-5.164-.52-5.164-4.13-4.647h-10.84c-1.3 0-2.64-.081-4.01-.164-3.53-.212-7.25-.436-10.97.68-1.03.172-2.12.057-3.21-.058-2.18-.229-4.36-.458-6.083 1.607-2.581 3.614-3.098 7.745-2.065 11.876 3.618 12.908 2.582 26.333 1.549 39.758a443.194 443.194 0 0 1-.612 8.162c-.465 5.737-.937 11.556-.937 17.139-.556 8.057-.065 15.981.427 23.9.422 6.792.844 13.594.606 20.505 0 .659-.102 1.454-.209 2.296-.313 2.455-.679 5.33 1.241 6.482 1.263.843 4.253-1.068 6.713-2.641l.57-.365c.34-.218.67-.424.98-.608 1.61-1.473 3.42-2.807 5.25-4.155 5.24-3.85 10.64-7.817 11.79-15.466.35-1.059 1.43-1.876 2.4-2.617.46-.344.89-.671 1.21-.998 2.58-1.549 6.2-.516 6.2 2.582 1.55 11.36-.52 23.236-2.58 34.595-.52 3.098-3.1 4.131-5.68 5.164-4.47 2.438-8.62 5.516-12.96 8.731-1.17.869-2.36 1.749-3.57 2.628-7.74 5.68-10.839 12.909-10.323 22.203.336 1.343.235 2.686.123 4.172-.06.798-.123 1.638-.123 2.54.258.517.388 1.162.517 1.808.129.645.256 1.29.516 1.807l3.1-1.549c13.42-9.811 25.82-20.138 37.17-31.497 1.04-1.033 1.94-2.067 2.85-3.1.9-1.032 1.8-2.064 2.83-3.096.35-.172.75-.402 1.15-.632.81-.459 1.61-.917 1.95-.917 1.13.753.89 1.782.67 2.685-.08.333-.15.65-.15.929-.4 4.007-1.19 7.937-1.98 11.848-1.24 6.169-2.47 12.297-2.15 18.616 0 5.164-1.55 8.778-5.68 11.36-6.72 4.569-12.6 10.118-18.52 15.699-5.44 5.141-10.92 10.309-17.11 14.765-3.61 3.098-5.679 6.713-5.163 11.876.413 3.095.331 6.273.248 9.468-.124 4.798-.249 9.634 1.305 14.284 1.66-1.498 3.38-3.049 5.11-4.62.96-.866 1.93-1.737 2.89-2.609l.04-.038.05-.044c2.68-2.426 5.36-4.849 7.91-7.147 2.92-2.913 5.88-5.778 8.84-8.635 13.3-12.841 26.51-25.591 34.54-42.483.41-.832.85-1.646 1.28-2.449 1.72-3.18 3.36-6.235 3.36-9.943.52-3.098 1.55-6.196 3.1-8.778 1.55-2.582 3.62-1.549 5.68 0 2.58 2.582 2.07 6.196 1.55 9.294-.11 1.532-.2 3.119-.28 4.724-.33 5.965-.68 12.303-2.3 17.995-1.94 6.971-2.13 13.942-2.33 20.912-.06 2.324-.12 4.647-.25 6.971 0 3.028 0 4.788-.65 6.266-.89 2.05-3.03 3.558-8.13 7.159-13.43 10.327-26.34 21.17-39.24 32.529-18.08 14.974-35.115 30.465-51.122 47.504-1.807 1.807-3.872 2.969-5.937 4.131-2.066 1.161-4.131 2.323-5.938 4.13-1.549 1.033-2.582.517-3.615-.516-1.033-1.033-1.033-1.549-.516-3.098 3.678-8.693 4.977-17.837 6.275-26.976.705-4.967 1.412-9.94 2.503-14.848.516-1.549.516-3.614.516-5.163-1.105-8.564.007-16.833 1.122-25.122.969-7.204 1.94-14.423 1.46-21.865-.344-10.651-.23-21.077-.116-31.574.058-5.278.116-10.575.116-15.93 0-44.922 0-89.327.516-134.249 0-9.594-.78-19.858-1.564-30.168-.903-11.885-1.811-23.832-1.534-34.891 0-4.647-2.582-8.262-5.163-11.876-.604-.604-1.287-1.13-1.987-1.668-1.095-.843-2.232-1.719-3.177-2.979-2.065-3.615 0-7.229 4.131-7.229 4.047-.368 28.282-.212 46.92-.091 7.52.048 14.13.091 18.14.091h58.35c2.58-.516 1.54 3.614.51 5.163-3.61 5.164-7.23 10.844-9.81 17.04-5.68 17.039-5.16 34.595-4.65 52.15.52 9.811 3.1 11.36 14.98 13.425Z"/><path fill-rule="evenodd" clip-rule="evenodd" d="M927.838 476.841c.064-1.276.127-2.521.277-3.722l.156-2.298c.953-14.153 1.869-27.769 10.687-39.526 2.065-2.582-.516-6.196-2.582-5.68-4.647 1.549-8.777 2.065-13.424 2.065-13.77-.229-27.539-.051-41.308.128-17.211.223-34.423.446-51.634-.128-5.615-.193-11.231.267-16.846.726-9.359.767-18.717 1.533-28.076-.726-1.549-.516-3.098.517-3.614 2.582-.517 2.065-.517 4.131 1.549 5.164 6.357 3.178 9.815 9.014 13.183 14.698 1.557 2.626 3.094 5.22 4.889 7.504 2.581 3.098 4.647 6.713 4.13 9.811 0 5.542.787 11.084 1.575 16.626.899 6.334 1.799 12.668 1.523 19.001-.343 9.62-.23 19.01-.115 28.476.058 4.762.115 9.542.115 14.381v49.052c0 .912.033 1.824.066 2.728.096 2.678.19 5.283-.582 7.599-3.614 8.778-2.582 17.556-1.549 25.818 1.807 10.481 1.843 20.963 1.88 31.445.015 4.492.03 8.984.185 13.476.258 3.357-.645 6.326-1.549 9.295-.903 2.969-1.807 5.937-1.549 9.294.517 9.81.517 19.621.517 29.431-.517 12.909-2.582 27.366-9.811 37.693-1.302 1.954-2.197 4.12-3.066 6.225-.509 1.231-1.01 2.444-1.581 3.586-.516 1.032-1.033 2.065-1.033 2.582 1.033 1.032 2.066 1.549 3.615 1.549h48.536c2.065 0 4.131 0 5.68-2.066.977-.977-.474-3.921-2.274-7.572-2.004-4.063-4.439-9.002-4.439-13.082 0-5.679-.774-11.23-1.549-16.781-.774-5.55-1.549-11.101-1.549-16.781 0-14.268-.057-28.536-.114-42.804l-.001-.052c-.114-28.571-.229-57.142.115-85.713.157-5.186-.02-10.373-.198-15.559-.406-11.853-.812-23.706 2.78-35.559.516-1.549 0-3.615-.516-5.164-2.486-4.142-2.312-8.622-2.147-12.896.041-1.052.081-2.091.081-3.11 0-4.903 0-7.356 1.225-8.518 1.226-1.164 3.678-1.035 8.586-.776 2.065 0 4.13.458 6.196.917 1.032.23 2.065.459 3.098.632 6.022 1.338 11.829 3.544 17.698 5.773 3.189 1.212 6.396 2.43 9.668 3.521 12.392 4.131 13.425 5.68 13.425 19.621 0 1.549 0 3.614-.516 5.163 0 6.196 0 12.392-1.549 19.105-.733 2.93-.311 5.86.12 8.845.479 3.327.968 6.722-.12 10.26-.9 2.698-.058 6.094.806 9.579.624 2.516 1.259 5.079 1.259 7.46-.259 5.96-.128 11.919.002 17.814.128 5.851.255 11.638-.002 17.297-.594 11.88-.429 24.519-.261 37.335.269 20.606.544 41.67-2.321 60.77-.333 2.082-.612 4.164-.89 6.232-1.444 10.76-2.84 21.168-11.502 29.396-2.065 2.065-2.065 2.582-1.033 5.164 1.188 1.979 2.983 1.834 5.152 1.658.66-.053 1.354-.109 2.077-.109 2.791 0 7.36.042 12.568.09 13.095.12 30.358.279 34.419-.09 2.066 0 2.582-2.066 1.549-4.131-10.326-18.072-12.908-26.85-12.392-44.406.367-21.095.082-42.991-.206-65.118-.523-40.15-1.057-81.121 2.272-119.733 1.032-12.908 2.065-26.849-2.066-39.758-1.549-5.163-1.549-11.359.517-16.006 1.464-3.296 1.631-6.592 1.788-9.703Zm-38.965-16.631c4.131 0 7.229 1.033 6.196 6.196-.173 1.209-.057 3.401.078 5.938.267 5.044.607 11.451-1.111 14.2-.369.369-.408 1.002-.448 1.639-.071 1.146-.143 2.307-2.133 1.975-.631 0-1.291.031-1.968.062-2.096.098-4.342.202-6.294-.578-7.023-3.512-14.443-5.445-21.89-7.385-4.597-1.198-9.205-2.398-13.738-3.975-2.065-.516-4.13-1.033-5.679-2.582-4.131-3.098-3.615-8.261-2.582-12.392.424-2.97 2.94-2.802 5.256-2.648.503.033.996.066 1.456.066h21.17v-.516h21.687Zm-114.305-45.432.288-.004.308-.011c1.529-.056 3.473-.129 3.019 2.597-.517.516-1.033 1.549-1.033 2.066-12.392 21.17-14.974 43.889-17.556 67.124-2.282 25.111-2.094 50.221-1.905 75.332.11 14.648.22 29.295-.16 43.943 0 4.091.7 7.983 1.396 11.85.886 4.918 1.764 9.797 1.186 15-1.033 10.327-2.066 21.17-2.066 31.497-.098 2.159-.252 4.302-.405 6.431-.654 9.069-1.292 17.933 2.471 27.131 1.025 2.051.693 4.78.351 7.589-.174 1.435-.351 2.891-.351 4.287-.517 17.039 1.032 28.915 5.163 45.438.981 2.943 2.376 5.265 3.792 7.621.82 1.365 1.647 2.741 2.404 4.255 2.582 4.131 1.033 7.745-3.614 8.778h-43.373c-3.614 0-11.876 0-11.876-3.614 0-3.953 1.211-5.485 2.705-7.376.458-.579.942-1.192 1.426-1.918 7.229-9.811 7.745-15.491 8.261-26.85 3.253-39.028 2.964-77.802 2.675-116.677-.124-16.673-.248-33.364-.093-50.102v-9.294c0-2.582-.516-4.647-3.614-2.066-3.081 2.143-6.231 4.252-9.396 6.37-9.038 6.049-18.201 12.182-26.232 19.447-6.196 5.68-9.81 14.974-9.81 24.269.344 12.736.229 25.496.114 38.232-.057 6.361-.114 12.721-.114 19.082 0 17.039 0 34.078.516 51.118 0 15.49 2.065 30.464 8.261 44.405 1.549 2.582 2.066 5.164 2.582 7.745.516 4.647-.516 7.229-5.68 7.229h-42.856c-2.066 0-3.098-1.549-1.549-3.614 0-.517.516-1.549 1.032-2.066 10.327-10.327 10.844-23.235 10.844-36.144 0-28.14-.129-56.41-.258-84.68-.13-28.27-.259-56.539-.259-84.68 0-.912.066-1.824.131-2.727.193-2.678.381-5.283-1.163-7.6-1.033 1.033-2.195 2.065-3.357 3.098-1.161 1.033-2.323 2.065-3.356 3.098-3.614 3.356-7.488 6.326-11.361 9.295-3.871 2.969-7.744 5.938-11.358 9.293-3.098 3.099-4.647 5.68-4.131 9.295 0 10.179-.853 20.358-1.707 30.538-1.138 13.572-2.276 27.144-1.391 40.717.148 2.065.211 4.131.274 6.196.158 5.164.317 10.327 1.792 15.49 2.065 5.164 1.549 11.36 0 17.04-2.582 8.778-2.582 18.072-.517 26.333 1.033 3.614 1.033 7.229 1.033 10.843 0 11.36 2.065 22.203 7.229 32.53 1.549 2.065 2.065 4.647 2.582 7.229.516 1.549-1.033 3.098-2.066 2.582-9.217-3.271-18.268-1.919-27.241-.578-6.608.988-13.177 1.97-19.746 1.094a78.898 78.898 0 0 0-2.194-.33c-1.709-.24-2.623-.369-2.929-.869-.353-.575.097-1.641 1.062-3.933l.447-1.064c6.196-13.942 10.326-27.366 10.843-42.857 1.032-10.843 1.549-22.202 1.549-33.562-.517-26.85-1.033-53.7-2.582-80.55l-.209-1.937c-.936-8.829-1.979-18.662-10.634-24.912-2.582-1.549-2.066-3.615 0-5.164 3.141-2.513 6.301-4.944 9.413-7.339l.034-.026c7.101-5.464 14.05-10.81 20.501-16.903 12.908-12.392 26.85-23.235 40.791-34.079 6.196-4.647 9.81-9.81 8.778-18.588a311.07 311.07 0 0 1-1.549-30.98c0-4.548-1.978-4.151-4.482-3.648l-.165.033c-.517 0-1.549 1.033-2.066 1.549-16.006 11.36-30.98 24.268-44.922 37.693-3.614 3.615-5.679 9.294-7.228 14.458-.301.601-.952 1.028-1.648 1.483-.498.326-1.019.667-1.451 1.098-.258-.516-.645-1.032-1.032-1.549-.387-.516-.775-1.032-1.033-1.549-.537-2.55-1.18-5.073-1.818-7.571-1.814-7.111-3.593-14.086-2.829-21.344.215-2.365-.734-4.551-1.654-6.67-1.289-2.969-2.521-5.807-.411-8.82 2.078-3.464 5.55-4.836 8.858-6.144 1.623-.642 3.207-1.268 4.567-2.118 16.523-10.326 32.529-21.17 48.019-32.013 3.845-2.42 7.768-4.763 11.705-7.113 10.339-6.172 20.771-12.4 30.119-20.253 1.549-1.549 4.131-2.582 6.713-3.614 1.549-.517 2.581 1.032 2.581 2.581 0 1.033-.516 2.582-1.032 3.615-5.674 10.875-7.451 22.183-9.296 33.924l-.515 3.252c-1.549 10.844-2.581 21.17-2.065 32.014 0 1.549 0 4.13 1.549 5.163 1.673 1.255 3.008.137 4.552-1.156.362-.303.736-.615 1.128-.909 4.388-3.605 8.825-7.115 13.251-10.617l.048-.038c10.138-8.02 20.222-15.997 29.557-24.973 5.709-5.27 11.698-10.073 17.65-14.845 8.043-6.451 16.019-12.847 23.141-20.266 1.549-1.549 3.098-2.582 4.647-2.066ZM723.45 524.243c2.582-2.065 4.647-4.131 4.131-7.745V497.91c0-1.549 0-3.098-1.549-3.098-1.033 0-2.065.516-2.582 1.032-9.294 10.327-20.653 18.589-32.013 25.817-10.843 7.229-13.941 15.491-12.908 27.367.203.61.246 1.463.287 2.27.063 1.241.12 2.377.745 2.377 1.499.749 2.726-.405 3.879-1.49.435-.409.86-.809 1.285-1.092 6.454-4.389 12.908-8.907 19.362-13.425l.031-.022c6.444-4.51 12.889-9.022 19.332-13.403Z"/><path d="M566.256 434.919c2.065-2.065 2.581-7.229-.517-7.229-4.591 0-23.546.182-38.95.33l-.102.001c-10.525.101-19.378.186-20.843.186-4.648 0-4.648 4.13-3.099 7.228 10.327 17.04 12.393 37.694 12.909 57.315.347 7.977.228 15.723.112 23.235-.056 3.67-.112 7.284-.112 10.843-.172 6.727-.114 13.397-.057 20.009.115 13.18.227 26.132-1.492 38.854 0 .607.223 1.303.42 1.918.473 1.478.796 2.487-2.485.664-7.487-4.647-14.845-9.294-22.203-13.941-7.358-4.647-14.716-9.294-22.203-13.942-4.131-3.098-6.712-6.712-6.196-12.392 0-6.454-.032-12.908-.064-19.363-.097-19.363-.194-38.725.58-58.088 0-12.392.517-25.301 10.844-35.112 2.581-2.065 1.549-7.228-1.549-7.228h-49.053c-5.163 0-4.647 2.065-3.614 4.13 9.267 12.194 9.78 28.073 10.244 42.416l.082 2.506c.344 15.469.23 30.716.116 46.032-.058 7.687-.116 15.394-.116 23.158 0 2.582-.516 5.68-1.032 8.262-2.582 10.843-2.582 11.359 6.712 17.039 21.107 12.492 41.136 26.062 60.986 39.511 3.944 2.672 7.881 5.339 11.819 7.993 5.679 4.13 8.777 8.261 8.261 15.49l-.13 1.29c-.469 4.657-.903 8.954-.903 13.684 0 5.68-.516 8.778-1.549 14.457-1.032 2.066-2.065 2.582-4.13 1.549-2.751-1.674-5.558-3.293-8.368-4.915-9.322-5.378-18.689-10.782-26.227-18.32-1.105-1.104-2.471-2.121-3.878-3.168-4.516-3.359-9.45-7.031-7.482-14.904 0-.516-4.647-3.098-6.712-3.098-3.224-.461-3.162 1.956-3.111 3.949l.009.393.004.305c0 5.68 0 10.843 1.032 16.523 2.066 6.712 3.615 13.425 4.131 20.654.516 7.745 4.131 11.876 10.843 15.49 3.836 2.221 7.909 4.205 12.003 6.199 6.375 3.106 12.801 6.236 18.461 10.324 1.034.728 2.012 1.409 2.909 2.033 11.178 7.787 12.027 8.378 11.549 22.235 0 1.186.167 2.373.336 3.577.347 2.466.705 5.008-.336 7.783-2.065 6.196-2.582 6.712-7.229 3.614-3.27-2.41-6.598-4.762-9.925-7.114-6.655-4.705-13.31-9.409-19.506-14.572-2.146-1.717-4.737-2.898-7.292-4.063-3.595-1.639-7.119-3.246-9.231-6.264-2.095-2.835-4.396-5.522-6.685-8.195-7.302-8.529-14.485-16.919-14.485-29.498 0-1.033-1.033-2.582-2.066-3.098-2.065-.517-3.614.516-4.647 2.065-1.727 1.727-1.649 4.177-1.577 6.442.014.443.028.881.028 1.303.457 5.029.105 10.058-.251 15.132-.447 6.387-.9 12.845.251 19.463-6.017 10.028 1.599 14.7 8.191 18.744l.587.361c11.087 6.76 21.609 14.23 32.082 21.664 9.524 6.761 19.01 13.496 28.846 19.643 2.236 1.408 4.486 2.803 6.738 4.199 11.788 7.309 23.649 14.663 34.054 24.2 2.581 2.582 5.679 3.615 8.777 1.033 2.582-2.066 2.582-4.131 1.549-7.745-3.47-10.796-4.349-21.88-5.216-32.822-.294-3.711-.587-7.406-.98-11.068-1.032-14.973-1.032-30.98-.516-46.47.777-36.524-.2-73.05-1.172-109.353-.319-11.939-.638-23.856-.893-35.74-.284-4.828.369-9.344 1.014-13.805.528-3.649 1.051-7.262 1.051-10.979l-.044-1.461c-.501-16.524-.989-32.589-.989-49.141 0-9.81 1.033-21.686 7.745-29.431 4.131-4.647 8.778-9.294 13.942-12.909Z"/><path fill-rule="evenodd" clip-rule="evenodd" d="M395.996 473.119c-.15 1.201-.213 2.445-.277 3.721-.157 3.111-.323 6.408-1.788 9.704-2.065 4.647-2.065 10.843-.516 16.006 4.13 12.909 3.098 26.85 2.065 39.758-3.329 38.612-2.795 79.595-2.272 119.745.289 22.129.574 44.01.207 65.106-.517 17.556 2.065 26.334 12.392 44.406 1.033 2.065.516 4.131-1.549 4.131-4.062.369-21.346.21-34.441.089-5.208-.048-9.755-.089-12.546-.089-.723 0-1.418.056-2.078.109-2.169.176-3.964.321-5.151-1.658-1.033-2.582-1.033-3.099 1.033-5.164 8.661-8.228 10.058-18.639 11.502-29.399.278-2.067.557-4.148.89-6.229 2.865-19.101 2.59-40.165 2.32-60.772-.167-12.815-.332-25.453.261-37.333.258-5.659.131-11.446.002-17.297-.13-5.895-.261-11.854-.002-17.814 0-2.382-.635-4.945-1.259-7.461-.864-3.485-1.705-6.88-.806-9.578 1.089-3.538.6-6.933.12-10.259-.43-2.985-.852-5.916-.12-8.846 1.549-6.713 1.549-12.909 1.549-19.105.517-1.549.516-3.614.516-5.163 0-13.941-1.032-15.49-13.424-19.621-3.272-1.091-6.481-2.31-9.67-3.521-5.869-2.23-11.675-4.435-17.697-5.773-1.032-.173-2.065-.402-3.098-.632-2.065-.459-4.13-.917-6.196-.917-4.907-.259-7.36-.388-8.586.776-1.224 1.162-1.224 3.615-1.224 8.518 0 1.02-.041 2.06-.081 3.113-.166 4.274-.34 8.751 2.146 12.893.516 1.549 1.033 3.615.516 5.164-3.592 11.853-3.185 23.707-2.779 35.56.177 5.186.355 10.372.198 15.558-.344 28.571-.23 57.142-.115 85.713.057 14.285.115 28.571.115 42.856 0 5.68.774 11.231 1.549 16.781.774 5.551 1.549 11.102 1.549 16.781 0 4.08 2.435 9.019 4.438 13.081 1.8 3.652 3.252 6.596 2.274 7.573-1.549 2.066-3.614 2.066-5.68 2.066h-48.536c-1.549 0-2.582-.517-3.614-1.549 0-.517.516-1.55 1.033-2.582.572-1.144 1.073-2.359 1.583-3.592.869-2.106 1.761-4.265 3.064-6.219 7.228-10.327 9.294-24.784 9.81-37.693 0-9.81 0-19.621-.516-29.431-.258-3.357.645-6.325 1.549-9.294.903-2.969 1.807-5.938 1.549-9.295-.155-4.492-.171-8.984-.186-13.476-.036-10.482-.072-20.964-1.88-31.445-1.032-8.262-2.065-17.04 1.549-25.818.773-2.316.679-4.921.582-7.599-.032-.904-.065-1.816-.065-2.728v-49.052c0-4.839-.058-9.619-.116-14.381-.114-9.466-.228-18.856.116-28.476.275-6.333-.624-12.667-1.524-19.001-.787-5.542-1.574-11.084-1.574-16.626.516-3.098-1.549-6.713-4.131-9.811-1.795-2.284-3.332-4.878-4.888-7.504-3.368-5.684-6.827-11.52-13.184-14.698l-.147-.078c-.003.66-.08 1.378-.237 2.158-1.94 8.149-2.13 16.007-2.324 24.011-.065 2.646-.129 5.308-.257 8.003-.258.774-.517 1.42-.775 2.065-.258.646-.516 1.291-.774 2.066-1.033 2.065-4.131 3.614-4.647.516-1.92-6.077-6.613-7.597-11.256-9.102-2.853-.924-5.688-1.842-7.849-3.807-2.582-2.065-5.164 0-6.196 2.582-1.033 2.065-1.033 4.647-1.033 6.712 0 11.876-.516 23.236-2.065 34.595-.517 5.164-1.033 10.327 1.032 16.007 1.549 3.098 1.549 6.583 1.549 10.198 0 3.614 0 7.358 1.549 10.972-6.242 8.445-5.434 17.935-4.632 27.355.326 3.827.651 7.642.502 11.371-.116 2.022-.238 4.043-.36 6.064-.968 16.045-1.933 32.044.36 47.636 1.806 10.58 1.936 22.451 2.065 34.257.129 11.816.257 23.569 2.065 33.9 1.377 6.607 1.579 13.362 1.781 20.106.177 5.905.353 11.802 1.317 17.587.565 2.684.937 5.367 1.306 8.03.98 7.071 1.939 13.992 6.44 20.369 2.065 2.581 0 5.679-3.615 6.712-5.68 1.033-12.392.517-17.039-1.033-5.507-1.529-10.652-.702-15.756.118-3.51.564-7.001 1.126-10.578.915-5.814-.342-11.629-.231-17.594-.117-3.04.058-6.118.117-9.255.117h-45.439c-3.12 0-5.929-.779-8.769-1.567-2.329-.646-4.678-1.298-7.237-1.531-6.329-.352-12.18 1.212-17.876 2.735-2.67.713-5.305 1.418-7.941 1.912-6.934 1.206-13.515.476-19.95-.238-4.587-.509-9.1-1.009-13.613-.795-3.098 0-5.163-1.032-3.098-5.679 5.68-11.36 6.713-24.268 6.196-36.661-.516-3.098-1.032-6.712 3.615-7.745 1.549-.516 1.549-3.098 1.549-4.647-.447-3.348-.604-6.792-.763-10.292-.21-4.595-.423-9.286-1.303-13.976-2.065-12.392-2.065-31.497.517-44.406.129-.516.29-1.032.452-1.549.484-1.549.968-3.098.58-4.647-2.556-9.859-2.013-19.976-1.476-29.986.222-4.145.444-8.272.444-12.354 0-2.478.14-4.957.279-7.435.325-5.783.65-11.566-.796-17.349-.752-2.632-.135-5.537.456-8.318.22-1.038.437-2.059.577-3.042 1.033-4.131 1.55-8.261 0-11.876-3.614-7.228-2.582-15.49-1.033-22.719 1.55-5.679 1.55-11.359.517-17.039-.517-4.647-1.033-9.294.516-14.458 1.55-4.647 1.55-10.843.516-16.006-1.549-8.262-2.065-16.523-2.065-24.785-.516-11.359-2.065-22.202-12.909-28.915-1.549-1.033-1.549-3.098-1.032-5.163.516-1.033 1.549-2.066 3.098-1.549 6.914 2.634 13.828 2.328 20.608 2.029 3.853-.17 7.663-.338 11.405.036h5.68c14.457 0 16.007 2.065 9.81 15.49-2.581 6.713-3.614 13.942-4.647 21.17-3.17 22.894-2.736 46.028-2.303 69.075.201 10.739.402 21.46.238 32.129-.774 25.542-.678 50.795-.581 76.193.032 8.487.065 16.99.065 25.526 0 1.232.117 3.757.24 6.397.135 2.893.276 5.925.276 7.544 1.549 7.229 2.582 8.778 8.778 6.713 6.383-1.878 12.768-1.571 19.151-1.263 2.394.115 4.788.23 7.182.23 6.196 0 7.745-1.033 8.262-7.229 0-1.101-.009-2.313-.019-3.605-.064-8.401-.153-20.215 2.084-27.375.853-2.56.14-5.432-.586-8.36-.593-2.387-1.195-4.811-.963-7.13.516-14.458 1.033-28.916 1.033-43.373a490.39 490.39 0 0 0-.22-3.623c-.505-7.976-.991-15.665 1.252-23.744.539-2.425-.468-4.568-1.482-6.725-.929-1.975-1.862-3.961-1.616-6.183.365-2.553.343-5.105.322-7.635-.039-4.635-.078-9.193 2.26-13.535-1.72-7.74-1.053-15.321-.384-22.92.536-6.087 1.073-12.186.384-18.388-.926-5.862-1.298-11.909-1.668-17.92-.25-4.048-.498-8.08-.914-12.027-.516-9.295-2.581-18.589-11.359-24.269-2.066-1.549-3.098-3.614-2.066-5.679 1.18-2.359 2.659-1.725 4.209-1.06.486.209.978.42 1.471.543 6.249 1.316 12.707 1.165 19.108 1.015 3.649-.085 7.278-.17 10.84.018h8.262c10.843.516 12.392 3.098 7.745 13.425-3.098 7.229-4.647 13.941-5.68 22.203-3.319 24.895-2.798 49.79-2.276 74.685.29 13.831.579 27.661.211 41.492-.775 21.299-.678 42.598-.581 63.897.032 7.1.064 14.2.064 21.299 0 1.877.14 5.147.273 8.29.124 2.91.244 5.711.244 7.201.516 4.13 3.098 6.196 7.228 6.196 2.754-.344 5.508-.23 8.262-.115 1.377.057 2.754.115 4.131.115 24.918-.875 24.668-4.71 23.692-19.654-.177-2.707-.378-5.778-.457-9.261-.259-10.102.002-20.203.261-30.239.257-9.971.513-19.878.255-29.657-.589-11.504-.505-22.843-.421-34.202.063-8.524.127-17.062-.095-25.694-.516-18.072-2.065-35.628-4.647-53.7-.645-3.872-.843-7.745-1.04-11.617-.276-5.422-.552-10.844-2.058-16.265-1.549-6.713-3.614-12.909-8.778-17.556-3.098-3.098-3.098-5.68-1.033-8.261.886-2.214 3.671-2.15 6.4-2.087.453.011.905.021 1.346.021h60.412c6.096 0 10.797.598 13.111 2.91a10.8 10.8 0 0 1 .181-.86c.516-2.065 2.065-3.098 3.614-2.582 9.359 2.259 18.718 1.493 28.077.726 5.615-.459 11.23-.919 16.845-.726 17.212.574 34.423.351 51.635.128 13.769-.179 27.538-.357 41.307-.128 4.647 0 8.778-.516 13.425-2.065 2.065-.516 4.647 3.098 2.582 5.68-8.818 11.757-9.735 25.373-10.688 39.526l-.156 2.298Zm-33.046-6.713c1.033-5.163-2.065-6.196-6.196-6.196h-21.686v.516h-21.17c-.461 0-.954-.033-1.457-.066-2.316-.154-4.831-.322-5.256 2.648-1.032 4.131-1.549 9.294 2.582 12.392 1.549 1.549 3.615 2.066 5.68 2.582 4.533 1.577 9.141 2.777 13.739 3.975 7.447 1.94 14.865 3.873 21.889 7.385 1.951.78 4.198.676 6.294.578.676-.031 1.337-.062 1.967-.062 1.991.332 2.063-.829 2.134-1.975.039-.637.079-1.27.448-1.639 1.718-2.749 1.378-9.161 1.11-14.205-.134-2.534-.25-4.724-.078-5.933ZM108.01 715.815c6.196-.516 10.327 5.164 6.196 8.778-4.678 4.252-4.453 8.505-4.227 12.757.048.911.096 1.822.096 2.733-.516 4.131-1.549 5.68-5.68 5.68-2.956-.328-5.703-.239-9.038-.13-1.909.062-4.01.13-6.452.13-1.449-.362-3.342-.153-5.369.072-3.75.415-7.956.88-10.638-2.137-2.224-2.225-1.906-5.819-1.573-9.578.208-2.348.421-4.761.024-6.945 0-.537.062-1.074.122-1.59.112-.971.216-1.866-.122-2.541-2.466-5.426.723-6.611 4.614-8.057l.55-.204c4.445-1.905 8.89-1.272 13.454-.622 2.86.407 5.766.821 8.749.622 1.232 0 2.699.235 4.233.481 1.68.269 3.441.551 5.061.551Zm69.706-1.549c3.098-1.549 6.712 2.582 4.647 5.164-2.478 4.13-2.313 8.261-2.148 12.392.041 1.033.083 2.065.083 3.098 0 8.261-2.582 11.876-11.36 10.843-1.739-.348-3.713-.227-5.606-.111-.916.056-1.813.111-2.655.111-15.491 0-16.007 0-15.491-15.49 0-1.502-.431-3.058-.858-4.599-.895-3.225-1.77-6.38 1.375-8.826 2.314-1.653 5.262-1.401 8.304-1.141 1.709.146 3.448.294 5.121.108 2.193-.398 4.539-.258 6.951-.114 3.835.229 7.833.467 11.637-1.435Z"/><path d="M1082.37 110.288c2.58 0 3.61.517 1.55 3.615-2.89 5.421-7.56 9.072-12.22 12.722-2 1.565-4 3.129-5.85 4.833-2.99 2.391-6.5 4.09-10.03 5.798-2.56 1.243-5.14 2.49-7.53 4.013-3.61 2.582-6.2.516-7.23-2.582-1.55-3.098-3.1-7.229-2.58-9.81 2.64-7.035 1.16-13.325-.3-19.5-.25-1.075-.5-2.147-.73-3.219-3.62-16.007-1.55-32.53 1.03-48.02.52-5.164-.52-5.164-4.13-4.648h-10.84c-1.3 0-2.64-.08-4.01-.163-3.53-.212-7.25-.436-10.97.68-1.03.172-2.12.057-3.21-.057-2.18-.23-4.36-.46-6.083 1.606-2.581 3.614-3.098 7.745-2.065 11.876 3.618 12.908 2.582 26.333 1.549 39.758-.167 2.675-.389 5.405-.611 8.153-.466 5.739-.938 11.562-.938 17.148-.556 8.057-.065 15.971.427 23.89.422 6.796.844 13.601.606 20.515 0 .661-.102 1.458-.21 2.303-.313 2.456-.678 5.323 1.242 6.475 1.263.843 4.253-1.066 6.703-2.639.56-.354 1.08-.69 1.56-.975 1.61-1.473 3.42-2.807 5.25-4.155 5.24-3.85 10.64-7.817 11.79-15.466.35-1.059 1.43-1.876 2.4-2.617.46-.344.89-.671 1.21-.998 2.58-1.549 6.2-.516 6.2 2.582 1.55 11.36-.52 23.236-2.58 34.595-.52 3.098-3.1 4.131-5.68 5.164-4.47 2.438-8.62 5.516-12.96 8.731-1.17.869-2.36 1.749-3.57 2.628-7.74 5.68-10.839 12.909-10.323 22.203.336 1.343.235 2.686.123 4.172-.06.798-.123 1.638-.123 2.54.258.517.388 1.162.517 1.808.129.645.256 1.29.516 1.807l3.1-1.549c13.42-9.811 25.82-20.138 37.17-31.497 1.04-1.033 1.94-2.067 2.85-3.1.9-1.032 1.8-2.064 2.83-3.096.35-.172.75-.402 1.15-.631.81-.459 1.61-.918 1.95-.918 1.13.753.89 1.783.67 2.685-.08.334-.15.65-.15.929-.4 4.007-1.19 7.938-1.98 11.85-1.24 6.169-2.47 12.295-2.15 18.614 0 5.164-1.55 8.778-5.68 11.36-6.72 4.569-12.6 10.118-18.52 15.699-5.44 5.141-10.92 10.309-17.11 14.765-3.61 3.098-5.679 6.713-5.163 11.876.413 3.095.331 6.273.248 9.468-.124 4.798-.249 9.634 1.305 14.284 2.58-2.323 5.29-4.775 8-7.226 2.71-2.454 5.42-4.907 8-7.232 2.92-2.914 5.89-5.78 8.85-8.637 13.3-12.841 26.5-25.588 34.53-42.481.41-.833.85-1.647 1.28-2.45 1.72-3.18 3.36-6.234 3.36-9.942.52-3.098 1.55-6.196 3.1-8.778 1.55-2.582 3.62-1.549 5.68 0 2.58 2.582 2.07 6.196 1.55 9.294-.11 1.534-.2 3.123-.28 4.73-.33 5.964-.68 12.297-2.3 17.989-1.94 6.971-2.13 13.949-2.33 20.92-.06 2.321-.12 4.642-.25 6.963 0 7.229 0 7.229-8.78 13.425-13.43 10.327-26.34 21.17-39.24 32.529-18.08 14.974-35.115 30.465-51.122 47.504-1.807 1.807-3.872 2.969-5.938 4.131-2.065 1.162-4.13 2.323-5.937 4.13-1.549 1.033-2.582.517-3.615-.516-1.033-1.033-1.033-1.549-.516-3.098 3.678-8.693 4.975-17.824 6.273-26.962.706-4.973 1.413-9.95 2.505-14.862.516-1.549.516-3.614.516-5.163-1.105-8.564.007-16.833 1.122-25.122.969-7.204 1.94-14.423 1.46-21.865-.344-10.651-.23-21.077-.116-31.574.058-5.278.116-10.575.116-15.93 0-44.922 0-89.327.516-134.249 0-9.594-.78-19.858-1.564-30.168-.903-11.885-1.811-23.832-1.534-34.891 0-4.647-2.582-8.262-5.163-11.876-.604-.604-1.287-1.13-1.986-1.668-1.096-.843-2.233-1.72-3.178-2.98-2.065-3.614 0-7.228 4.131-7.228 4.047-.368 28.282-.212 46.92-.091 7.52.048 14.13.091 18.14.091h58.35c2.58-.516 1.54 3.614.51 5.163-3.61 5.164-7.23 10.844-9.81 17.04-5.68 17.039-5.16 34.595-4.65 52.15.52 9.811 3.1 11.36 14.98 13.425Z"/><path fill-rule="evenodd" clip-rule="evenodd" d="M927.838 71.143c.064-1.276.127-2.521.277-3.722l.156-2.298c.953-14.153 1.869-27.769 10.687-39.526 2.065-2.582-.516-6.196-2.582-5.68-4.647 1.55-8.777 2.065-13.424 2.065-13.77-.23-27.539-.05-41.308.128-17.211.223-34.423.446-51.634-.128-5.615-.193-11.231.267-16.846.727-9.359.766-18.717 1.532-28.076-.727-1.549-.516-3.098.517-3.614 2.582-.517 2.066-.517 4.13 1.549 5.164 6.357 3.178 9.815 9.014 13.183 14.698 1.557 2.626 3.094 5.22 4.889 7.504 2.581 3.098 4.647 6.713 4.13 9.81 0 5.543.787 11.085 1.575 16.627.899 6.334 1.799 12.668 1.523 19.001-.343 9.62-.23 19.01-.115 28.476.058 4.762.115 9.542.115 14.381v49.053c0 .911.033 1.823.066 2.727.096 2.678.19 5.283-.582 7.599-3.614 8.778-2.582 17.556-1.549 25.818 1.807 10.481 1.843 20.963 1.88 31.445.015 4.492.03 8.984.185 13.476.258 3.357-.645 6.326-1.549 9.295-.903 2.969-1.807 5.937-1.549 9.294.517 9.81.517 19.621.517 29.431-.517 12.909-2.582 27.366-9.811 37.693-1.302 1.954-2.195 4.116-3.065 6.222-.509 1.232-1.01 2.445-1.582 3.589-.516 1.033-1.033 2.065-1.033 2.582 1.033 1.032 2.066 1.549 3.615 1.549h48.536c2.065 0 4.131 0 5.68-2.066.977-.977-.474-3.921-2.274-7.572-2.004-4.063-4.439-9.002-4.439-13.082 0-5.679-.774-11.23-1.549-16.781-.774-5.55-1.549-11.101-1.549-16.781 0-14.268-.057-28.536-.114-42.804l-.001-.052c-.114-28.571-.229-57.142.115-85.713.157-5.186-.02-10.373-.198-15.559-.406-11.853-.812-23.706 2.78-35.559.516-1.549 0-3.615-.516-5.164-2.486-4.142-2.312-8.622-2.147-12.896.041-1.052.081-2.091.081-3.11 0-4.903 0-7.356 1.225-8.518 1.226-1.164 3.678-1.035 8.586-.776 2.065 0 4.131.459 6.196.918 1.033.229 2.065.459 3.098.631 6.022 1.338 11.827 3.543 17.697 5.773 3.189 1.211 6.397 2.43 9.669 3.521 12.392 4.131 13.425 5.68 13.425 19.621 0 1.549 0 3.614-.516 5.163 0 6.196 0 12.393-1.549 19.105-.733 2.93-.311 5.86.12 8.845.479 3.327.968 6.722-.12 10.26-.9 2.698-.058 6.094.806 9.579.624 2.516 1.259 5.079 1.259 7.46-.259 5.96-.128 11.92.002 17.814.128 5.851.255 11.638-.002 17.297-.594 11.88-.429 24.519-.261 37.335.269 20.606.544 41.67-2.321 60.77-.333 2.082-.612 4.164-.89 6.232-1.444 10.76-2.84 21.168-11.502 29.396-2.065 2.065-2.065 2.582-1.033 5.164 1.188 1.979 2.983 1.834 5.152 1.658.66-.053 1.354-.109 2.077-.109 2.793 0 7.356.041 12.568.089 13.095.121 30.358.28 34.419-.089 2.066 0 2.582-2.066 1.549-4.131-10.326-18.072-12.908-26.85-12.392-44.406.367-21.099.082-42.986-.206-65.118-.523-40.15-1.057-81.121 2.272-119.732 1.032-12.909 2.065-26.85-2.066-39.759-1.549-5.163-1.549-11.36.517-16.007 1.464-3.295 1.631-6.59 1.788-9.702Zm-38.965-16.631c4.131 0 7.229 1.033 6.196 6.196-.173 1.21-.057 3.401.078 5.938.267 5.044.607 11.45-1.111 14.2-.369.369-.408 1.002-.448 1.64-.071 1.145-.143 2.306-2.133 1.974-.631 0-1.291.03-1.968.062-2.096.098-4.342.202-6.294-.578-7.023-3.512-14.442-5.445-21.889-7.385-4.597-1.198-9.205-2.398-13.739-3.975-2.065-.516-4.13-1.033-5.679-2.582-4.131-3.098-3.615-8.261-2.582-12.392.424-2.97 2.94-2.802 5.256-2.648.503.033.996.066 1.456.066h21.17v-.516h21.687ZM774.568 9.08c.187 0 .388-.007.596-.015 1.529-.056 3.473-.129 3.019 2.597-.517.516-1.033 1.55-1.033 2.065-12.392 21.17-14.974 43.89-17.556 67.125-2.282 25.111-2.094 50.221-1.905 75.332.11 14.648.22 29.295-.16 43.943 0 4.092.7 7.983 1.396 11.85.886 4.918 1.764 9.797 1.186 15-1.033 10.327-2.066 21.17-2.066 31.497-.098 2.161-.252 4.305-.406 6.436-.653 9.069-1.291 17.928 2.472 27.126 1.025 2.051.693 4.78.351 7.589-.174 1.435-.351 2.891-.351 4.287-.517 17.04 1.032 28.915 5.163 45.438.981 2.943 2.376 5.265 3.792 7.621.82 1.365 1.647 2.741 2.404 4.255 2.582 4.131 1.033 7.745-3.614 8.778h-43.373c-3.614 0-11.876 0-11.876-3.614 0-3.953 1.211-5.485 2.705-7.376.458-.579.942-1.192 1.426-1.918 7.229-9.811 7.745-15.491 8.261-26.85 3.253-39.027 2.964-77.802 2.675-116.677-.124-16.673-.248-33.364-.093-50.102v-9.294c0-2.582-.516-4.647-3.614-2.066-3.078 2.141-6.232 4.252-9.394 6.369-9.038 6.049-18.203 12.183-26.234 19.449-6.196 5.679-9.81 14.974-9.81 24.268.344 12.736.229 25.496.114 38.232-.057 6.361-.114 12.721-.114 19.082 0 17.039 0 34.078.516 51.118 0 15.49 2.065 30.464 8.261 44.405 1.549 2.582 2.066 5.164 2.582 7.745.516 4.647-.516 7.229-5.68 7.229h-42.856c-2.066 0-3.098-1.549-1.549-3.614 0-.517.516-1.549 1.032-2.066 10.327-10.326 10.844-23.235 10.844-36.144 0-28.14-.129-56.41-.258-84.68-.13-28.27-.259-56.539-.259-84.68 0-.912.066-1.824.131-2.727.193-2.678.381-5.283-1.163-7.6-1.032 1.032-2.194 2.064-3.354 3.096-1.162 1.033-2.326 2.068-3.359 3.1-3.614 3.356-7.488 6.326-11.361 9.295-3.872 2.969-7.744 5.938-11.358 9.293-3.098 3.099-4.647 5.68-4.131 9.295 0 10.176-.853 20.36-1.707 30.537-1.138 13.572-2.276 27.146-1.391 40.718.148 2.065.211 4.131.274 6.196.158 5.164.317 10.327 1.792 15.49 2.065 5.164 1.549 11.36 0 17.04-2.582 8.778-2.582 18.072-.517 26.333 1.033 3.615 1.033 7.229 1.033 10.843 0 11.36 2.065 22.203 7.229 32.53 1.549 2.065 2.065 4.647 2.582 7.229.516 1.549-1.033 3.098-2.066 2.582-9.217-3.271-18.262-1.919-27.236-.578-6.61.988-13.18 1.97-19.751 1.094a78.872 78.872 0 0 0-2.192-.33c-1.709-.24-2.625-.369-2.931-.869-.353-.575.097-1.641 1.062-3.933l.447-1.064c6.196-13.942 10.326-27.366 10.843-42.857 1.032-10.843 1.549-22.202 1.549-33.562-.517-26.85-1.033-53.7-2.582-80.55l-.209-1.937c-.936-8.829-1.979-18.662-10.634-24.912-2.582-1.549-2.066-3.615 0-5.164 3.158-2.527 6.317-4.957 9.446-7.364 7.101-5.464 14.05-10.811 20.502-16.904 12.908-12.392 26.85-23.235 40.791-34.079 6.196-4.647 9.81-9.81 8.778-18.588a311.062 311.062 0 0 1-1.549-30.98c0-4.548-1.978-4.15-4.482-3.648l-.165.033c-.517 0-1.549 1.033-2.066 1.55-16.006 11.359-30.98 24.267-44.922 37.692-3.614 3.615-5.679 9.294-7.228 14.458-.301.601-.953 1.028-1.648 1.483-.498.326-1.019.667-1.451 1.099-.258-.517-.645-1.033-1.032-1.55-.387-.516-.775-1.032-1.033-1.549-.537-2.551-1.18-5.071-1.818-7.571-1.814-7.111-3.593-14.086-2.829-21.344.215-2.365-.734-4.551-1.654-6.67-1.289-2.97-2.521-5.807-.411-8.82 2.078-3.464 5.55-4.836 8.857-6.144 1.624-.641 3.208-1.268 4.568-2.118 16.523-10.326 32.529-21.17 48.019-32.013 3.845-2.42 7.768-4.763 11.705-7.113 10.339-6.172 20.771-12.4 30.119-20.253 1.549-1.549 4.131-2.582 6.713-3.614 1.549-.517 2.581 1.032 2.581 2.581 0 1.033-.516 2.582-1.032 3.615-5.674 10.875-7.451 22.183-9.296 33.923l-.515 3.253c-1.549 10.844-2.581 21.17-2.065 32.014 0 1.549 0 4.13 1.549 5.163 1.673 1.255 3.008.138 4.552-1.156.362-.302.736-.615 1.128-.91 4.403-3.616 8.854-7.137 13.295-10.65 10.14-8.021 20.225-16 29.561-24.977 5.709-5.27 11.698-10.073 17.649-14.845 8.044-6.451 16.02-12.847 23.142-20.266 1.549-1.55 3.098-2.582 4.647-2.066ZM723.45 118.545c2.582-2.065 4.647-4.131 4.131-7.745V92.212c0-1.55 0-3.098-1.549-3.098-1.033 0-2.065.516-2.582 1.032-9.294 10.327-20.653 18.589-32.013 25.817-10.843 7.229-13.941 15.491-12.908 27.367.203.61.246 1.463.287 2.27.063 1.241.12 2.377.745 2.377 1.499.749 2.726-.405 3.879-1.49.435-.409.86-.809 1.285-1.092 6.454-4.389 12.915-8.912 19.369-13.43 6.452-4.516 12.904-9.033 19.356-13.42Z"/><path d="M566.256 29.221c2.065-2.065 2.581-7.229-.517-7.229-4.601 0-23.602.183-39.025.33-10.537.102-19.404.187-20.87.187-4.648 0-4.648 4.13-3.099 7.229 10.327 17.039 12.393 37.692 12.909 57.314.347 7.977.228 15.723.112 23.235-.056 3.67-.112 7.284-.112 10.843-.172 6.727-.114 13.397-.057 20.009.115 13.18.227 26.132-1.492 38.854 0 .607.223 1.303.42 1.918.473 1.478.796 2.487-2.485.664-7.487-4.647-14.845-9.294-22.203-13.941-7.358-4.647-14.716-9.294-22.203-13.942-4.131-3.098-6.712-6.712-6.196-12.392 0-6.454-.032-12.911-.064-19.365-.097-19.362-.194-38.724.58-58.086 0-12.392.517-25.301 10.844-35.112 2.581-2.065 1.549-7.228-1.549-7.228h-49.053c-5.163 0-4.647 2.065-3.614 4.13 9.267 12.194 9.78 28.073 10.244 42.416l.082 2.506c.344 15.47.23 30.715.116 46.032-.058 7.687-.116 15.394-.116 23.158 0 2.582-.516 5.68-1.032 8.262-2.582 10.843-2.582 11.359 6.712 17.039 21.106 12.491 41.136 26.062 60.985 39.51 3.944 2.672 7.882 5.34 11.82 7.994 5.679 4.13 8.777 8.261 8.261 15.49l-.13 1.289c-.469 4.658-.903 8.955-.903 13.685 0 5.68-.516 8.778-1.549 14.457-1.032 2.066-2.065 2.582-4.13 1.549-2.751-1.674-5.558-3.293-8.368-4.915-9.322-5.378-18.689-10.782-26.227-18.32-1.104-1.104-2.471-2.121-3.878-3.168-4.516-3.359-9.45-7.031-7.482-14.904 0-.516-4.647-3.098-6.712-3.098-3.224-.461-3.162 1.954-3.111 3.946l.009.379.004.322c0 5.68 0 10.843 1.032 16.523 2.066 6.712 3.615 13.425 4.131 20.654.516 7.745 4.131 11.876 10.843 15.49 3.836 2.221 7.909 4.205 12.003 6.199 6.375 3.106 12.801 6.236 18.461 10.324 1.037.73 2.01 1.407 2.909 2.033 11.178 7.787 12.027 8.378 11.549 22.235 0 1.186.167 2.373.336 3.577.347 2.466.705 5.008-.336 7.783-2.065 6.196-2.582 6.712-7.229 3.614-3.269-2.409-6.599-4.763-9.925-7.114-6.655-4.704-13.31-9.409-19.506-14.572-2.146-1.717-4.737-2.898-7.292-4.063-3.595-1.639-7.119-3.246-9.231-6.264-2.095-2.835-4.396-5.522-6.685-8.195-7.302-8.529-14.485-16.919-14.485-29.498 0-1.033-1.033-2.582-2.066-3.098-2.065-.517-3.614.516-4.647 2.065-1.727 1.727-1.649 4.177-1.577 6.442.014.443.028.881.028 1.303.457 5.029.105 10.058-.251 15.132-.447 6.387-.9 12.845.251 19.463-6.017 10.028 1.599 14.7 8.191 18.745l.587.36c11.087 6.76 21.608 14.229 32.081 21.664 9.525 6.761 19.011 13.495 28.847 19.643 2.236 1.408 4.486 2.803 6.738 4.199 11.788 7.309 23.649 14.663 34.054 24.2 2.581 2.582 5.679 3.615 8.777 1.033 2.582-2.066 2.582-4.131 1.549-7.745-3.47-10.796-4.349-21.88-5.216-32.822-.294-3.711-.587-7.406-.98-11.067-1.032-14.974-1.032-30.981-.516-46.471.777-36.524-.2-73.049-1.172-109.352-.319-11.939-.638-23.857-.893-35.741-.284-4.828.369-9.344 1.014-13.805.528-3.649 1.051-7.262 1.051-10.979l-.044-1.461c-.501-16.524-.989-32.589-.989-49.14 0-9.811 1.033-21.687 7.745-29.432 4.131-4.647 8.778-9.294 13.942-12.909Z"/><path fill-rule="evenodd" clip-rule="evenodd" d="M416.847 14.77c-6.197 17.04-9.295 35.111-11.36 53.183-2.582 19.105-4.647 37.693-4.647 56.282-.303 5.757.639 11.158 1.573 16.517.658 3.773 1.312 7.525 1.525 11.365.516 6.196 5.163 11.876 9.811 16.007 2.455 2.046 1.667 4.093.977 5.882-.18.468-.354.919-.461 1.347-1.033 2.065-3.615 1.032-5.68 0-6.824-3.185-13.648-3.564-20.826-3.962-.969-.054-1.943-.108-2.926-.169-16.356-.798-32.405.562-48.622 1.936-4.772.404-9.558.81-14.372 1.162-8.777.516-10.326 2.582-10.843 11.876 0 .463.104 4.916.219 9.824.14 6.025.298 12.754.298 13.607 0 4.644 0 6.968 1.16 8.066 1.161 1.099 3.484.97 8.134.711 3.958-.172 7.917-.286 11.876-.401 7.917-.23 15.834-.459 23.751-1.148 13.425-1.549 26.85-3.098 39.243-8.261l.391-.203c1.005-.531 2.314-1.223 3.223-.313 1.365 1.365-.077 2.73-1.145 3.741l-.404.389c-2.582 4.131-5.164 8.262-8.262 11.876-5.679 6.713-10.326 13.941-12.908 22.203-1.549 5.163-4.131 6.712-8.778 4.131-4.131-2.582-9.294-2.582-13.941-2.582h-34.079c-4.219 0-6.284 0-7.294 1.032-.967.988-.967 2.924-.967 6.713-.325 4.219-.241 6.001-.135 8.282.063 1.348.135 2.87.135 5.171 0 16.448 1.416 25.122 3.41 37.33.698 4.272 1.466 8.976 2.269 14.597.517 4.647 7.746 38.21 8.262 39.242 3.098 8.262 3.614 9.811-5.164 9.811h-42.34c-4.13 0-7.228-3.098-5.679-6.713 5.876-9.794 6.105-21.372 6.324-32.478.07-3.531.139-7.015.388-10.378 0-4.657.4-8.635.85-13.106.298-2.965.619-6.147.858-9.887.266-4.139.368-7.211.47-10.241.173-5.196.343-10.267 1.321-20.378 0-1.807.35-4.806.701-7.805.35-2.999.7-5.997.7-7.804l.001-1.718c-17.779-.203-46.113-.282-48.857.259-3.217.633-11.042.407-18.334.196-3.453-.1-6.787-.196-9.455-.196h-20.949c-2.226 0-4.207.357-5.849.653-2.562.462-4.295.775-4.839-.653-.502-1.32-.156-3.347.242-5.68.309-1.811.65-3.807.65-5.8 0-1.676-.371-4.025-.748-6.414-.648-4.112-1.316-8.342-.144-9.457 1.853-1.763 10.261-1.087 13.823 0 3.563 1.087 24.263.766 27.789 0s5.88-.945 8.551 0c1.895.67 8.151.389 13.043.169 2.002-.089 3.776-.169 4.929-.169.773 0 3.291-.044 6.855-.107 8.366-.147 22.498-.395 33.357-.409.013-12.905-.037-26.138-.318-35.702-.687-16.263-.968-32.525-1.248-48.742-.351-20.341-.701-40.613-1.85-60.723-.081-2.28-.111-4.728-.143-7.282-.167-13.636-.372-30.3-8.635-40.738-2.065-2.582 1.549-7.229 4.647-6.196h56.282c1.549 0 5.163 0 5.679 1.549.517 2.065.517 3.614-1.032 5.68-.615.921-1.594 1.477-2.505 1.994-.62.352-1.208.685-1.626 1.104-7.229 5.68-11.36 14.458-13.425 22.719-4.131 13.941-7.229 28.399-6.196 43.89.344 2.064.229 4.589.115 7.113-.058 1.262-.115 2.525-.115 3.729l1.549 3.098c.258-.516.645-1.032 1.033-1.549.387-.516.774-1.033 1.032-1.549 12.839-12.472 24.115-26.508 35.307-40.44 4.562-5.679 9.111-11.342 13.746-16.874 11.876-14.457 24.268-28.399 39.242-39.758 3.098-2.582 4.647-5.164 6.712-8.778.517-1.033 2.066-1.033 3.099-.516.344.344.745.688 1.147 1.032.803.689 1.606 1.377 1.951 2.066 0 2.581-.517 5.163-1.549 7.745Zm-42.341 125.47c3.303-3.633 2.803-8.956 2.284-14.482-.292-3.114-.59-6.292-.218-9.27v-6.712h-.517c0-2.906.057-5.813.114-8.738.115-5.909.232-11.896-.114-18.112 0-.516-.129-.904-.258-1.29-.129-.388-.258-.775-.258-1.292l-1.549 1.55c-16.523 18.071-31.497 36.66-44.922 56.797-2.065 4.131-1.549 5.68 3.615 5.68 1.917 0 3.835.084 5.753.169 4.795.21 9.589.421 14.384-.685 2.892-.827 6.196-.827 9.418-.827 4.833 0 9.48 0 12.268-2.788Z"/><path d="M107.654 85.246h9.726c1.941 0 1.296-2.75.349-6.79l-.349-1.505c-.234-1.026-.475-2.303-.748-3.748-.388-2.054-.84-4.45-1.425-6.94-.216-.916-.444-2.2-.712-3.704-.973-5.463-2.461-13.822-5.701-17.957-1.655-2.112-3.997-5.618-6.566-9.467-3.845-5.758-8.201-12.283-11.532-16.041-5.558-6.27-16.959-12.968-32.35-15.105-15.39-2.138-28.643 3.99-34.629 9.12-.495.425-1.063.894-1.689 1.41C15.1 20.238 1.107 31.789.061 54.009c-1.14 24.226 14.678 37.906 20.378 42.04 5.7 4.132 26.507 16.103 33.632 17.67 7.126 1.568 49.735 8.693 57.573 8.551 6.916-.126 16.607.858 19.867 1.189l.939.093c1.568.143 3.563-.712 2.708-3.42-.624-1.974-.414-6.597-.199-11.332.079-1.76.16-3.538.199-5.199.032-1.386.101-2.751.166-4.053.225-4.454.412-8.18-1.021-9.562-1.539-1.484-3.865.042-5.588 1.173-.351.23-.679.445-.968.614-1.71.998-8.123 1.853-18.098 1.995-9.975.143-25.43-1.704-30.885-3.782-1.428-.544-2.732-1.129-3.996-1.695-3.559-1.595-6.795-3.045-11.587-3.045-6.493 0-20.778-10.064-26.232-14.74-5.454-4.674-7.532-14.284-4.156-22.595C36.17 39.6 47.857 33.888 53.311 33.888c4.887 0 9.356 3.542 14.529 7.64l1.834 1.448c5.974 4.675 14.804 16.364 17.174 20.26 1.64 2.697.941 8.369.403 12.74-.24 1.943-.447 3.63-.403 4.683.112 2.697 2.263 3.09 4.425 3.485.58.106 1.16.212 1.703.363 2.565.712 8.265.739 14.678.739Zm64.413 50.418c0-.753-.165-1.342-.367-2.067-.219-.783-.482-1.725-.631-3.205-.617-1.188-1.852-4.96-1.852-10.546 0-1.84.01-4.65.022-8.024v-.118c.034-9.423.082-23.17-.022-32.472-.128-11.38 2.956-20.58 4.827-26.16.214-.638.412-1.23.588-1.772 1.71-5.272 12.113-12.968 17.671-12.968s11.828 3.848 17.101 10.546c5.273 6.697 6.698 20.948 6.84 25.366.078 2.399-.517 4.378-.986 5.936-.394 1.312-.699 2.325-.439 3.042.57 1.567 1.71 2.708 3.99 2.708.543 0 1.585-.057 2.926-.13 4.296-.232 11.656-.63 15.458.13 4.988.997 9.12.427 9.12-.998 0-.619-.188-1.318-.4-2.11-.278-1.03-.597-2.22-.597-3.59v-24.37c0-5.557-5.273-21.803-11.116-28.073a127.99 127.99 0 0 1-1.545-1.699c-5.429-6.036-11.997-13.34-32.799-14.12-22.801-.854-31.067 3.136-44.32 12.969-13.253 9.833-14.393 27.931-15.106 41.47-.485 9.223.485 28.04 1.152 40.988.313 6.057.559 10.829.559 12.737 0 3.122-.582 6.865-1.078 10.055-.455 2.925-.837 5.385-.633 6.475.342 1.823 1.231 1.733 3.03 1.551.451-.045.959-.097 1.531-.126 1.045-.052 2.951-.257 5.172-.497 3.837-.413 8.613-.928 11.501-.928 1.666 0 3.503.21 5.164.399 2.885.328 5.239.596 5.239-.399Z"/><path d="M176.524 93.56c.11.576.246 1.293.246 2.487v23.799c0 2.492.241 2.57 1.613 3.011l.382.124c.756.252 5.722.114 11.42-.044 7.185-.2 15.536-.433 18.079.044 2.704.507 3.003.413 3.512.252.348-.11.796-.252 2.188-.252 1.105 0 2.388-.089 3.71-.181 2.771-.193 5.716-.397 7.548.181 1.861.588 4.53.368 6.896.173 1.076-.089 2.09-.173 2.937-.173.627 0 2.111-.053 4.048-.123 6.422-.232 17.823-.643 19.466.123 2.137.998 4.133.285 4.418-1.425.112-.673.025-4.195-.078-8.374-.158-6.438-.354-14.44.078-15.995.712-2.565.195-6.412-1.088-6.412-.531 0-1.163.22-1.903.478-1.047.364-2.31.804-3.813.804h-21.128c-7.088 0-24.759.428-28.607.855-2.127.237-4.952-.05-7.943-.353-2.419-.245-4.948-.502-7.305-.502-2.278 0-4.882-.478-7.278-.919-3.149-.579-5.938-1.092-7.152-.363-.514 1.37-.41 1.917-.246 2.784Zm-51.506 54.504c-.563-3.608-.341-3.633.533-3.733.254-.029.562-.064.922-.195 6.173.311 19.466.747 23.257 0 3.217-.633 11.042-.407 18.334-.196 3.453.1 6.787.196 9.455.196h20.949c2.226 0 4.207-.357 5.849-.653 2.561-.463 4.295-.775 4.839.653.502 1.32.156 3.347-.242 5.68-.309 1.811-.65 3.807-.65 5.799 0 1.676.371 4.026.747 6.415.649 4.112 1.317 8.342.145 9.457-1.853 1.763-10.261 1.087-13.823 0-3.563-1.087-24.264-.766-27.789 0-3.526.765-5.88.944-8.551 0-1.895-.67-8.151-.389-13.043-.17-2.002.09-3.776.17-4.929.17-1.198 0-2.999.106-4.969.222-4.556.268-10.018.59-11.034-.222-.887-.71-.692-2.501-.405-5.143.184-1.691.405-3.731.405-6.059 0-2.26.105-3.893.195-5.304.148-2.312.257-4.025-.195-6.917Zm-35.01 65.743c.576-.109 1.294-.245 2.488-.245h23.799c2.492 0 2.569-.242 3.01-1.613l.125-.382c.252-.757.114-5.722-.045-11.421-.2-7.185-.432-15.535.045-18.078.507-2.705.412-3.003.252-3.512-.111-.349-.252-.797-.252-2.189 0-1.105-.09-2.389-.182-3.712-.192-2.771-.397-5.713.182-7.546.587-1.86.367-4.529.172-6.895-.089-1.077-.172-2.091-.172-2.938 0-.627-.054-2.111-.124-4.047-.231-6.422-.643-17.824.124-19.466.997-2.138.285-4.133-1.425-4.418-.674-.112-4.196-.026-8.377.077-6.438.158-14.437.355-15.992-.077-2.565-.712-6.413-.195-6.413 1.087 0 .532.22 1.163.478 1.904.365 1.046.805 2.31.805 3.812v21.128c0 7.089.427 24.76.855 28.607.236 2.128-.05 4.952-.354 7.944-.245 2.419-.501 4.947-.501 7.305 0 2.278-.479 4.882-.92 7.277-.579 3.15-1.091 5.939-.363 7.153 1.37.514 1.917.41 2.785.245Z"/><path d="M132.113 218.265c-.754 0-1.342.164-2.067.367-.783.219-1.726.482-3.206.63-1.187.618-4.959 1.853-10.545 1.853-1.841 0-4.651-.01-8.024-.022l-.075-.001h-.043c-9.423-.033-23.175-.082-32.473.023-11.38.128-20.58-2.957-26.159-4.827-.639-.214-1.23-.413-1.772-.589-5.273-1.71-12.968-12.113-12.968-17.67 0-5.558 3.847-11.829 10.545-17.101 6.698-5.273 20.949-6.698 25.366-6.841 2.4-.077 4.378.518 5.937.987 1.311.394 2.325.699 3.041.438 1.568-.57 2.708-1.71 2.708-3.99 0-.542-.056-1.584-.13-2.925-.232-4.296-.63-11.657.13-15.458.998-4.988.427-9.121-.998-9.121-.618 0-1.317.188-2.109.401-1.031.277-2.22.597-3.59.597H51.31c-5.557 0-21.803 5.273-28.073 11.116-.55.512-1.119 1.023-1.699 1.545-6.036 5.429-13.34 11.997-14.12 32.799-.855 22.801 3.135 31.066 12.968 44.319 9.833 13.254 27.932 14.394 41.47 15.106 9.223.486 28.037-.484 40.986-1.152 6.056-.312 10.832-.558 12.739-.558 3.123 0 6.866.582 10.056 1.078 2.924.454 5.384.837 6.475.632 1.823-.342 1.733-1.23 1.551-3.029-.046-.451-.097-.96-.126-1.531-.052-1.045-.258-2.952-.497-5.173-.414-3.837-.928-8.612-.928-11.5 0-1.666.209-3.503.398-5.164.329-2.886.597-5.239-.398-5.239Zm-50.418 64.413v-9.726c0-1.941-2.751-1.296-6.79-.35l-1.505.35c-1.026.234-2.304.475-3.749.748-2.053.387-4.45.84-6.939 1.425-.916.215-2.2.444-3.705.712-5.462.972-13.822 2.46-17.956 5.701-2.112 1.655-5.619 3.996-9.467 6.566-5.76 3.845-12.283 8.2-16.042 11.532-6.27 5.558-12.967 16.958-15.105 32.349-2.137 15.391 3.99 28.644 9.12 34.629.425.496.894 1.064 1.41 1.689 5.72 6.929 17.27 20.922 39.49 21.968 24.226 1.14 37.907-14.679 42.04-20.379 4.132-5.7 16.103-26.506 17.671-33.632 1.567-7.125 8.693-49.735 8.55-57.572-.126-6.917.858-16.607 1.189-19.868l.094-.938c.142-1.568-.713-3.563-3.421-2.708-1.973.623-6.596.414-11.331.199-1.761-.08-3.538-.16-5.199-.199a146.486 146.486 0 0 1-4.053-.167c-4.454-.224-8.18-.412-9.563 1.022-1.484 1.539.043 3.864 1.174 5.588.23.351.445.678.614.967.997 1.71 1.852 8.123 1.995 18.099.142 9.975-1.705 25.43-3.782 30.884-.545 1.429-1.13 2.733-1.695 3.996-1.595 3.559-3.045 6.795-3.045 11.588 0 6.493-10.065 20.778-14.74 26.232-4.675 5.454-14.285 7.532-22.596 4.155-8.31-3.376-14.022-15.064-14.022-20.518 0-4.886 3.541-9.355 7.64-14.528l1.448-1.834c4.675-5.974 16.364-14.805 20.26-17.174 2.696-1.64 8.368-.942 12.739-.404 1.942.24 3.631.448 4.683.404 2.698-.113 3.09-2.263 3.486-4.426.105-.579.212-1.16.362-1.702.713-2.565.74-8.265.74-14.678Zm62.818-17.365c-3.608.564-3.634.341-3.733-.532-.029-.254-.064-.563-.195-.923.311-6.172.747-19.465 0-23.257-.634-3.216-.408-11.041-.197-18.333.1-3.454.197-6.787.197-9.456v-20.948c0-2.226-.358-4.208-.654-5.849-.462-2.562-.775-4.296.654-4.839 1.319-.502 3.346-.156 5.678.242 1.811.309 3.808.65 5.801.65 1.676 0 4.025-.371 6.415-.748 4.112-.649 8.341-1.316 9.456-.144 1.763 1.852 1.087 10.26 0 13.823-1.087 3.563-.765 24.263 0 27.789.766 3.526.945 5.88 0 8.55-.67 1.895-.389 8.152-.169 13.044.09 2.002.169 3.776.169 4.928 0 1.199.106 2.999.222 4.97.269 4.555.591 10.018-.222 11.033-.709.887-2.5.693-5.142.405-1.692-.183-3.732-.405-6.06-.405-2.26 0-3.893-.104-5.303-.194-2.313-.148-4.026-.258-6.917.194Zm99.473-136.201c-.1-.874-.125-1.097-3.733-.533-2.892.452-4.605.343-6.917.195-1.411-.09-3.044-.195-5.304-.195-2.328 0-4.368-.221-6.059-.405-2.642-.287-4.433-.482-5.143.405-.812 1.016-.49 6.477-.222 11.032.116 1.971.222 3.773.222 4.971 0 1.153.08 2.926.17 4.927.219 4.893.501 11.15-.17 13.045-.944 2.671-.765 5.025 0 8.55.766 3.526 1.087 24.227 0 27.789-1.087 3.563-1.763 11.971 0 13.823 1.115 1.172 5.345.505 9.457-.144 2.389-.377 4.739-.748 6.415-.748 1.992 0 3.988.341 5.799.65 2.333.399 4.36.745 5.68.242 1.428-.543 1.116-2.277.653-4.839-.296-1.641-.653-3.622-.653-5.849V181.08c0-2.668.096-6.001.196-9.454.211-7.292.437-15.119-.196-18.335-.747-3.792-.311-17.085 0-23.257-.131-.36-.166-.669-.195-.922Zm-30.929 131.191c-.202-.724-.367-1.313-.367-2.067 0-.995 2.354-.727 5.239-.398 1.661.189 3.498.398 5.164.398 2.888 0 7.663-.514 11.501-.928 2.22-.239 4.127-.445 5.172-.497.572-.028 1.08-.08 1.531-.126 1.799-.182 2.688-.272 3.029 1.551.205 1.091-.177 3.551-.632 6.475-.496 3.19-1.078 6.934-1.078 10.056 0 1.907.246 6.68.559 12.736.667 12.949 1.637 31.765 1.151 40.989-.712 13.538-1.852 31.637-15.105 41.47-13.253 9.833-21.519 13.823-44.32 12.968-20.802-.78-27.37-8.084-32.799-14.12-.522-.58-1.033-1.149-1.545-1.698-5.843-6.271-11.116-22.516-11.116-28.074v-24.369c0-1.371-.319-2.56-.597-3.591-.212-.792-.4-1.491-.4-2.109 0-1.425 4.132-1.995 9.12-.998 3.802.761 11.162.362 15.458.129 1.34-.072 2.384-.129 2.926-.129 2.28 0 3.42 1.14 3.99 2.708.26.716-.045 1.73-.439 3.041-.469 1.559-1.064 3.538-.986 5.937.142 4.418 1.567 18.668 6.84 25.366s11.543 10.546 17.101 10.546 15.961-7.696 17.671-12.969c.175-.54.373-1.13.586-1.767 1.871-5.579 4.957-14.784 4.829-26.164-.104-9.302-.056-23.049-.022-32.473.012-3.416.022-6.284.022-8.141 0-5.587-1.235-9.358-1.853-10.546-.148-1.48-.411-2.422-.63-3.206Z"/><path d="M208.233 300.341a11.869 11.869 0 0 1-.246-2.488v-23.798c0-2.493-.241-2.57-1.613-3.011l-.382-.125c-.756-.252-5.722-.114-11.421.045-7.185.2-15.535.432-18.078-.045-2.704-.507-3.003-.412-3.512-.252-.349.111-.796.252-2.188.252-1.105 0-2.389.09-3.712.182-2.771.192-5.714.397-7.546-.182-1.861-.587-4.53-.367-6.896-.172-1.076.089-2.09.172-2.937.172-.627 0-2.11.054-4.046.124-6.422.231-17.825.643-19.468-.124-2.137-.997-4.133-.285-4.418 1.425-.112.674-.025 4.197.078 8.377.158 6.438.354 14.437-.078 15.992-.712 2.565-.195 6.413 1.088 6.413.531 0 1.163-.22 1.903-.478 1.047-.364 2.31-.805 3.813-.805h21.128c7.088 0 24.759-.427 28.607-.855 2.127-.236 4.952.05 7.943.354 2.419.245 4.948.501 7.305.501 2.278 0 4.882.479 7.278.92 3.149.579 5.938 1.091 7.152.363.514-1.37.41-1.917.246-2.785Z"/></g></svg>