<svg width="152" height="152" viewBox="0 0 152 152" fill="none" xmlns="http://www.w3.org/2000/svg">
<path d="M10.959 115.509L10.3146 115.879L7.72318 111.394L8.36754 111.024L9.45405 112.905L14.8081 109.83L15.2265 110.554L9.87246 113.629L10.959 115.509Z" fill="white"/>
<path d="M10.9502 101.605C11.0725 101.91 11.1259 102.209 11.1104 102.503C11.093 102.798 11.0037 103.063 10.8426 103.296C10.6795 103.531 10.441 103.711 10.1272 103.836C9.85104 103.946 9.60542 103.981 9.39033 103.941C9.17317 103.902 8.97898 103.811 8.80781 103.669C8.63663 103.527 8.48304 103.356 8.34701 103.156C8.20803 102.955 8.07911 102.749 7.96023 102.537C7.80535 102.26 7.68208 102.035 7.59042 101.861C7.4958 101.686 7.4077 101.566 7.32609 101.502C7.24365 101.435 7.14279 101.426 7.02354 101.473L6.99844 101.484C6.68882 101.607 6.48214 101.788 6.37843 102.025C6.27387 102.26 6.28982 102.548 6.42629 102.888C6.56781 103.24 6.75615 103.486 6.99134 103.624C7.22655 103.763 7.44832 103.838 7.65672 103.849L7.687 104.65C7.34388 104.641 7.04886 104.566 6.80195 104.422C6.55211 104.277 6.34496 104.094 6.18045 103.872C6.01304 103.648 5.88076 103.415 5.78363 103.173C5.72167 103.019 5.66933 102.834 5.62661 102.619C5.58096 102.402 5.57693 102.178 5.61455 101.945C5.65132 101.71 5.7586 101.485 5.93639 101.268C6.1142 101.052 6.39451 100.868 6.77735 100.715L9.95307 99.4479L10.2495 100.186L9.59677 100.447L9.61184 100.484C9.73654 100.493 9.88193 100.531 10.0481 100.601C10.2142 100.67 10.3781 100.785 10.5396 100.945C10.7012 101.106 10.838 101.326 10.9502 101.605ZM10.2398 101.758C10.1225 101.466 9.96618 101.243 9.77076 101.089C9.57449 100.932 9.3648 100.839 9.14178 100.81C8.9179 100.778 8.70555 100.802 8.50471 100.882L7.82689 101.153C7.8771 101.169 7.93925 101.224 8.01334 101.318C8.08449 101.411 8.15921 101.521 8.23748 101.65C8.31282 101.777 8.38483 101.902 8.45348 102.025C8.5192 102.146 8.5732 102.244 8.61547 102.319C8.71761 102.501 8.83042 102.664 8.95389 102.809C9.07442 102.952 9.21066 103.052 9.36256 103.11C9.51153 103.167 9.68016 103.158 9.86844 103.082C10.1258 102.98 10.2822 102.807 10.3378 102.565C10.3905 102.321 10.3578 102.052 10.2398 101.758Z" fill="white"/>
<path d="M4.22123 89.9844L4.94699 89.8229L5.57139 92.6119L4.84564 92.7734L4.22123 89.9844ZM2.62714 93.0737L7.69424 91.9462L7.86802 92.7223L2.80092 93.8499L2.62714 93.0737ZM1.91142 89.8769L6.97851 88.7493L7.15229 89.5254L2.08519 90.6531L1.91142 89.8769Z" fill="white"/>
<path d="M0.572266 77.6256L5.01514 77.4092L4.97952 76.6823L7.39678 76.5645L7.4357 77.3589L5.76117 77.4404L5.95708 81.4391L0.771478 81.6916L0.73256 80.8973L5.17544 80.6809L5.05406 78.2036L0.611187 78.42L0.572266 77.6256Z" fill="white"/>
<path d="M2.84298 67.7937L3.04815 66.3251C3.13208 65.7243 3.34915 65.2861 3.69937 65.0103C4.04957 64.7346 4.45903 64.6293 4.92771 64.6943C5.23571 64.7371 5.50584 64.8473 5.73812 65.0247C5.96823 65.2018 6.13875 65.4387 6.24974 65.7354C6.3585 66.0317 6.3849 66.3802 6.32895 66.7807L6.02866 68.9301L0.88651 68.2161L0.996553 67.4284L5.4022 68.0402L5.59244 66.6784C5.63596 66.3669 5.5891 66.0995 5.45193 65.8763C5.31475 65.6531 5.11673 65.5236 4.85783 65.4877C4.58555 65.4498 4.3495 65.5191 4.14967 65.6955C3.94984 65.8719 3.82817 66.1158 3.78465 66.4274L3.57949 67.8959L2.84298 67.7937ZM6.70197 64.1106L1.55982 63.3965L1.66986 62.6088L6.81201 63.3229L6.70197 64.1106Z" fill="white"/>
<path d="M6.22817 52.4586L6.93746 52.6812L6.02804 55.5612L5.31874 55.3386L6.22817 52.4586Z" fill="white"/>
<path d="M7.55584 44.0834L7.92472 43.3782L11.8688 45.4288L12.7753 43.6958L8.8312 41.6452L9.20005 40.94L13.1441 42.9906L14.0506 41.2576L10.1066 39.207L10.4754 38.5018L15.0788 40.8952L12.1593 46.4768L7.55584 44.0834Z" fill="white"/>
<path d="M21.0716 30.62L19.0797 26.6062L19.5653 26.027L22.1096 31.0634L21.6934 31.5598L16.2965 29.9262L16.7734 29.3573L21.0716 30.62ZM16.6087 29.5538L20.5923 32.8733L20.0807 33.4836L16.0971 30.1641L16.6087 29.5538ZM23.2108 29.7498L19.2272 26.4304L19.7387 25.8202L23.7223 29.1396L23.2108 29.7498Z" fill="white"/>
<path d="M30.4278 22.9344C30.1756 23.1451 29.907 23.2889 29.6218 23.3658C29.3352 23.441 29.0555 23.4388 28.7827 23.3589C28.5084 23.2774 28.2627 23.1074 28.0457 22.8491C27.8546 22.6217 27.7447 22.4 27.7159 22.1837C27.6856 21.9658 27.7116 21.7536 27.7939 21.5471C27.8761 21.3407 27.9913 21.1419 28.1394 20.9508C28.2878 20.7565 28.4443 20.5702 28.6088 20.3917C28.8246 20.1587 29.0011 19.9718 29.1384 19.8307C29.2759 19.6866 29.3626 19.5658 29.3985 19.4685C29.436 19.3697 29.4135 19.2713 29.331 19.1731L29.3137 19.1525C29.0995 18.8976 28.8631 18.7579 28.6046 18.7336C28.3477 18.7078 28.0785 18.8125 27.797 19.0476C27.505 19.2914 27.3297 19.5463 27.2709 19.8122C27.2122 20.0781 27.2099 20.3116 27.2641 20.5125L26.5101 20.7906C26.4111 20.4629 26.3916 20.1598 26.4514 19.8812C26.5116 19.5994 26.622 19.346 26.7827 19.121C26.9437 18.8927 27.1244 18.6949 27.3248 18.5276C27.4526 18.4208 27.6124 18.3137 27.8043 18.2062C27.9965 18.0955 28.2094 18.0218 28.443 17.9849C28.6783 17.9467 28.9266 17.9781 29.188 18.0793C29.4494 18.1804 29.7124 18.3886 29.9772 18.7038L32.1738 21.318L31.5623 21.8287L31.1109 21.2914L31.0798 21.3174C31.1107 21.4381 31.119 21.5879 31.1047 21.7669C31.0905 21.9458 31.032 22.1369 30.9292 22.3399C30.8264 22.543 30.6593 22.7411 30.4278 22.9344ZM30.061 22.3089C30.3028 22.1069 30.4668 21.8893 30.5531 21.6561C30.6411 21.4215 30.6644 21.1939 30.6232 20.9734C30.5836 20.7514 30.4944 20.5578 30.3555 20.3924L29.8867 19.8344C29.8868 19.8871 29.8537 19.9631 29.7873 20.0625C29.7212 20.1588 29.6391 20.264 29.541 20.3781C29.4432 20.4891 29.3465 20.5962 29.251 20.6994C29.1558 20.7995 29.0789 20.8812 29.0205 20.9447C28.879 21.098 28.7586 21.2557 28.6595 21.4176C28.5607 21.5764 28.5073 21.7367 28.4993 21.8987C28.4917 22.0575 28.553 22.2144 28.6832 22.3694C28.8612 22.5812 29.0743 22.6757 29.3227 22.6529C29.5713 22.627 29.8174 22.5123 30.061 22.3089Z" fill="white"/>
<path d="M39.416 12.9376L39.7958 13.575L37.3316 15.0346L36.9518 14.3973L39.416 12.9376ZM35.975 12.3888L38.6269 16.8387L37.9412 17.245L35.2893 12.795L35.975 12.3888ZM38.7995 10.7157L41.4514 15.1656L40.7656 15.5719L38.1137 11.1219L38.7995 10.7157Z" fill="white"/>
<path d="M50.0603 5.63403L51.6493 9.77617L52.3317 9.51598L53.1962 11.7696L52.4511 12.0537L51.8522 10.4926L48.1016 11.9227L46.247 7.08813L46.9921 6.804L48.5811 10.9461L50.9042 10.0603L49.3152 5.91816L50.0603 5.63403Z" fill="white"/>
<path d="M60.1394 4.72518L61.6031 4.46249C62.2021 4.35499 62.6873 4.42428 63.0593 4.67025C63.4307 4.91631 63.6587 5.27146 63.7425 5.73577C63.7976 6.0409 63.7768 6.33109 63.6803 6.60635C63.5827 6.87955 63.41 7.11484 63.1616 7.31237C62.9133 7.50758 62.5893 7.64107 62.19 7.71273L60.0477 8.0972L59.1279 3.00295L59.913 2.86204L60.7011 7.22665L62.0582 6.98309C62.3685 6.92739 62.609 6.79975 62.7791 6.6003C62.9493 6.40085 63.0109 6.17296 62.9646 5.91648C62.9158 5.64673 62.7766 5.4446 62.5462 5.31017C62.3158 5.17575 62.0452 5.13644 61.7349 5.19213L60.2712 5.45482L60.1394 4.72518ZM64.8516 7.23506L63.9318 2.1408L64.7163 2L65.6361 7.09426L64.8516 7.23506Z" fill="white"/>
<path d="M79.7667 2.03445C80.3176 2.06888 80.7451 2.55198 80.7105 3.1013C80.6754 3.66009 80.1908 4.0862 79.6399 4.05177C79.0794 4.01675 78.652 3.53365 78.6871 2.97486C78.7216 2.42554 79.2062 1.99943 79.7667 2.03445Z" fill="white"/>
<path d="M96.9687 9.99922L95.6269 6.27459L94.8125 6.02523L93.8797 9.05331L93.0784 8.80795L95.1109 2.21061L95.9121 2.45597L95.0309 5.31653L95.38 5.42345L98.9107 3.37419L99.8667 3.66691L96.2985 5.747L97.9252 10.2921L96.9687 9.99922Z" fill="white"/>
<path d="M108.434 11.6306L108.105 12.2954L105.534 11.0304L105.864 10.3656L108.434 11.6306ZM107.021 8.45492L104.723 13.0965L104.008 12.7444L106.306 8.1029L107.021 8.45492ZM109.967 9.90448L107.669 14.546L106.954 14.194L109.252 9.55246L109.967 9.90448Z" fill="white"/>
<path d="M115.099 17.6886L119.469 15.8824L120.217 16.4154L117.198 20.626L116.549 20.1634L118.884 16.9068L114.525 18.7209L113.766 18.18L116.786 13.9693L117.435 14.4319L115.099 17.6886Z" fill="white"/>
<path d="M123.279 25.7455L126.645 25.4781L127.081 22.2208L127.729 22.9085L127.298 25.6796L127.594 25.9939L129.21 24.4802L129.757 25.0599L128.141 26.5735L128.428 26.8783L131.229 26.6221L131.877 27.3098L128.598 27.5512L128.111 30.8734L127.454 30.1762L127.876 27.376L127.599 27.0812L125.973 28.604L125.426 28.0244L127.052 26.5015L126.775 26.2071L123.936 26.4427L123.279 25.7455Z" fill="white"/>
<path d="M132.869 37.2614L137.274 34.5216L137.696 35.1959L135.78 36.3874L136.059 36.8337L138.963 37.2202L139.506 38.0892L136.275 37.637L135.116 40.8522L134.572 39.9832L135.529 37.3862L135.149 36.7798L133.291 37.9357L132.869 37.2614Z" fill="white"/>
<path d="M139.303 46.4055L143.983 47.0951L144.35 47.9354L139.589 50.0005L139.271 49.2712L142.953 47.674L138.278 46.9969L137.906 46.1441L142.667 44.0789L142.985 44.8082L139.303 46.4055Z" fill="white"/>
<path d="M147.794 61.6883C147.898 62.2288 147.536 62.7623 146.994 62.8667C146.443 62.9728 145.908 62.6119 145.803 62.0715C145.697 61.5217 146.059 60.9881 146.61 60.882C147.152 60.7777 147.687 61.1386 147.794 61.6883Z" fill="white"/>
<path d="M147.714 82.4693C146.985 82.4316 146.361 82.2682 145.844 81.9777C145.326 81.6879 144.936 81.3066 144.671 80.8345C144.407 80.3617 144.29 79.8313 144.321 79.2437C144.351 78.6556 144.523 78.1406 144.834 77.6976C145.146 77.2547 145.575 76.9157 146.119 76.6808C146.664 76.4458 147.301 76.3469 148.03 76.3846C148.759 76.4223 149.383 76.5863 149.9 76.8761C150.417 77.166 150.808 77.5473 151.072 78.02C151.337 78.4927 151.454 79.0226 151.423 79.6107C151.392 80.1983 151.221 80.7139 150.909 81.1568C150.598 81.5992 150.169 81.9382 149.625 82.1731C149.08 82.4086 148.443 82.507 147.714 82.4693ZM147.756 81.662C148.354 81.6929 148.865 81.6189 149.287 81.4406C149.709 81.2641 150.035 81.0124 150.264 80.6846C150.493 80.3591 150.618 79.9872 150.64 79.5703C150.662 79.1527 150.575 78.7693 150.382 78.4196C150.188 78.0723 149.89 77.7878 149.488 77.567C149.087 77.3484 148.587 77.2234 147.988 77.1925C147.39 77.1615 146.879 77.2343 146.457 77.4103C146.035 77.5886 145.709 77.8408 145.48 78.1663C145.251 78.4942 145.126 78.8666 145.104 79.2842C145.082 79.7012 145.168 80.0839 145.363 80.4313C145.556 80.781 145.854 81.0649 146.256 81.284C146.657 81.5049 147.157 81.6311 147.756 81.662Z" fill="white"/>
<path d="M147.172 94.9676L142.123 93.7589L142.31 92.9855L147.358 94.1942L147.172 94.9676ZM144.838 94.0899L144.115 93.9168C144.092 93.7263 144.075 93.5389 144.067 93.3544C144.06 93.1704 144.065 92.9795 144.083 92.783C144.102 92.5864 144.139 92.3745 144.194 92.1472C144.331 91.5775 144.596 91.1565 144.988 90.8857C145.38 90.6165 145.884 90.5562 146.502 90.7041L148.119 91.0913L147.933 91.8646L146.316 91.4774C146.057 91.4155 145.833 91.4137 145.643 91.4718C145.453 91.5306 145.297 91.6342 145.175 91.7826C145.054 91.9316 144.967 92.111 144.917 92.3204C144.838 92.6485 144.796 92.9514 144.792 93.2297C144.789 93.5109 144.805 93.7976 144.838 94.0899Z" fill="white"/>
<path d="M138.13 99.6777C138.181 99.553 138.237 99.4457 138.298 99.3563C138.356 99.2661 138.403 99.2062 138.437 99.1764L139.011 99.6277C138.893 99.7882 138.811 99.9397 138.768 100.082C138.724 100.225 138.736 100.371 138.804 100.522C138.868 100.674 139.004 100.844 139.212 101.033L139.532 101.323L145.09 101.508L144.764 102.307L140.392 102.078L140.371 102.128L143.665 105.004L143.339 105.804L138.657 101.535C138.446 101.343 138.287 101.146 138.179 100.945C138.069 100.743 138.011 100.537 138.005 100.325C137.997 100.116 138.039 99.9008 138.13 99.6777Z" fill="white"/>
<path d="M134.61 113.325L137.109 117.046L136.703 117.684L133.524 113.02L133.871 112.474L139.435 113.394L139.037 114.02L134.61 113.325ZM139.175 113.804L134.792 111.029L135.219 110.357L139.602 113.132L139.175 113.804ZM132.603 114.465L136.986 117.24L136.558 117.911L132.175 115.136L132.603 114.465Z" fill="white"/>
<path d="M125.761 122.799C126.102 122.433 126.477 122.193 126.886 122.079C127.295 121.967 127.712 121.975 128.138 122.102C128.563 122.233 128.971 122.479 129.36 122.84C129.749 123.201 130.027 123.591 130.192 124.007C130.357 124.427 130.404 124.842 130.333 125.251C130.262 125.664 130.066 126.042 129.747 126.384C129.563 126.581 129.348 126.746 129.103 126.877C128.857 127.008 128.586 127.084 128.291 127.104C127.996 127.126 127.684 127.071 127.354 126.94C127.024 126.809 126.682 126.579 126.327 126.25L126.079 126.021L128.805 123.099L129.31 123.567L127.137 125.896C127.351 126.095 127.582 126.23 127.831 126.301C128.077 126.373 128.322 126.376 128.565 126.31C128.807 126.245 129.026 126.108 129.222 125.898C129.439 125.666 129.568 125.411 129.611 125.134C129.653 124.861 129.625 124.595 129.527 124.334C129.428 124.074 129.274 123.847 129.064 123.652L128.728 123.34C128.44 123.074 128.151 122.897 127.859 122.811C127.568 122.728 127.287 122.727 127.017 122.808C126.749 122.891 126.506 123.05 126.286 123.285C126.144 123.438 126.036 123.596 125.964 123.76C125.892 123.926 125.857 124.095 125.86 124.266C125.865 124.439 125.91 124.612 125.996 124.784L125.313 125.199C125.177 124.963 125.101 124.707 125.087 124.433C125.073 124.16 125.122 123.883 125.233 123.602C125.346 123.323 125.522 123.055 125.761 122.799Z" fill="white"/>
<path d="M119.862 128.589L120.323 129.171L120.174 129.288C120.052 129.384 119.969 129.487 119.925 129.599C119.882 129.713 119.885 129.85 119.931 130.01C119.977 130.174 120.074 130.376 120.22 130.616C120.366 130.858 120.567 131.155 120.824 131.505L122.172 133.364L119.452 135.499L116.24 131.432L116.867 130.94L119.619 134.424L121.117 133.249L120.034 131.748C119.785 131.403 119.583 131.085 119.428 130.795C119.273 130.508 119.174 130.243 119.131 129.999C119.086 129.757 119.105 129.534 119.187 129.329C119.269 129.124 119.424 128.933 119.65 128.755L119.862 128.589Z" fill="white"/>
<path d="M110.345 139.102L109.023 139.781C108.483 140.059 107.998 140.135 107.57 140.009C107.143 139.882 106.82 139.609 106.604 139.19C106.461 138.915 106.396 138.631 106.407 138.339C106.42 138.05 106.516 137.774 106.695 137.513C106.875 137.254 107.145 137.031 107.506 136.846L109.441 135.852L111.819 140.453L111.11 140.817L109.072 136.875L107.847 137.505C107.566 137.649 107.374 137.841 107.27 138.082C107.166 138.322 107.174 138.558 107.294 138.79C107.42 139.033 107.613 139.186 107.872 139.247C108.132 139.308 108.403 139.267 108.683 139.122L110.005 138.443L110.345 139.102ZM105.103 138.081L107.481 142.682L106.772 143.046L104.393 138.445L105.103 138.081Z" fill="white"/>
<path d="M94.9772 141.832C95.4563 141.688 95.9011 141.67 96.3122 141.776C96.7217 141.886 97.078 142.102 97.381 142.427C97.6818 142.754 97.9091 143.171 98.0625 143.679C98.2158 144.187 98.2581 144.662 98.19 145.105C98.1196 145.551 97.9503 145.932 97.6816 146.25C97.4112 146.571 97.0513 146.798 96.6025 146.933C96.3438 147.011 96.0751 147.044 95.7968 147.034C95.5184 147.024 95.2461 146.953 94.9808 146.822C94.7156 146.692 94.4738 146.488 94.2552 146.209C94.0367 145.93 93.8575 145.559 93.7178 145.096L93.6204 144.774L97.4528 143.623L97.6516 144.281L94.5962 145.199C94.6806 145.478 94.8118 145.711 94.9903 145.897C95.1671 146.083 95.3766 146.209 95.62 146.274C95.8611 146.34 96.1201 146.332 96.3958 146.249C96.7 146.158 96.941 146.003 97.1177 145.786C97.2927 145.571 97.4034 145.327 97.4503 145.052C97.4967 144.778 97.4786 144.504 97.3961 144.231L97.2635 143.792C97.1505 143.418 96.9903 143.12 96.7818 142.899C96.5722 142.68 96.3304 142.538 96.0565 142.472C95.7833 142.409 95.4926 142.424 95.1838 142.516C94.9833 142.576 94.8106 142.659 94.6652 142.764C94.5192 142.871 94.4034 142.999 94.3194 143.149C94.236 143.301 94.1878 143.472 94.1748 143.664L93.3748 143.679C93.3769 143.406 93.4411 143.147 93.5673 142.903C93.6942 142.661 93.8767 142.446 94.1143 142.26C94.3531 142.076 94.6406 141.933 94.9772 141.832Z" fill="white"/>
<path d="M80.6378 142.708L80.9783 149.817L80.2082 149.854L80.1688 149.033L80.0744 149.037C80.0204 149.13 79.9445 149.248 79.8478 149.392C79.7488 149.538 79.6039 149.671 79.4136 149.79C79.2205 149.912 78.9558 149.981 78.6177 149.997C78.181 150.018 77.7913 149.927 77.4475 149.726C77.1043 149.524 76.8293 149.228 76.6236 148.837C76.4173 148.446 76.3014 147.98 76.2754 147.437C76.2492 146.889 76.3198 146.41 76.4877 145.999C76.6552 145.591 76.8994 145.269 77.2192 145.033C77.5398 144.8 77.9161 144.673 78.3487 144.652C78.6814 144.637 78.9509 144.679 79.1564 144.779C79.362 144.882 79.5226 145.001 79.6375 145.138C79.7519 145.276 79.8414 145.391 79.9041 145.483L79.9719 145.479L79.841 142.746L80.6378 142.708ZM80.0707 147.269C80.052 146.879 79.9785 146.537 79.8495 146.244C79.72 145.953 79.5413 145.729 79.3128 145.571C79.0844 145.416 78.8101 145.346 78.4904 145.361C78.1576 145.377 77.8837 145.478 77.6693 145.663C77.4526 145.851 77.2952 146.097 77.1972 146.401C77.0969 146.707 77.0553 147.044 77.0729 147.412C77.0903 147.776 77.1624 148.101 77.2887 148.387C77.4133 148.676 77.592 148.9 77.8254 149.06C78.0565 149.222 78.3405 149.295 78.678 149.279C79.0025 149.264 79.2707 149.169 79.4833 148.994C79.6966 148.822 79.8522 148.588 79.9505 148.291C80.0495 147.996 80.0892 147.655 80.0707 147.269Z" fill="white"/>
<path d="M69.5384 142.676C69.6733 142.691 69.7916 142.714 69.8946 142.747C69.9978 142.778 70.0691 142.806 70.1072 142.83L69.8325 143.507C69.6448 143.437 69.4762 143.402 69.3269 143.4C69.1776 143.398 69.04 143.45 68.9128 143.557C68.7841 143.661 68.6584 143.839 68.5346 144.09L68.3446 144.477L69.7128 149.85L68.8519 149.761L67.8556 145.51L67.8017 145.505L65.9473 149.459L65.087 149.37L67.8955 143.698C68.0222 143.443 68.1671 143.235 68.3314 143.076C68.4954 142.915 68.6783 142.802 68.8801 142.737C69.0795 142.672 69.2987 142.652 69.5384 142.676Z" fill="white"/>
<path d="M54.3952 147.106L55.7042 142.097L56.4762 142.298L55.1672 147.306L54.3952 147.106ZM55.3201 144.797L55.5076 144.08C55.6991 144.06 55.8874 144.047 56.0726 144.042C56.2578 144.039 56.4485 144.048 56.6459 144.069C56.8421 144.092 57.0539 144.133 57.2807 144.192C57.8494 144.34 58.2665 144.612 58.5306 145.008C58.793 145.403 58.8438 145.907 58.6836 146.52L58.2643 148.125L57.4929 147.925L57.9122 146.32C57.9793 146.064 57.9849 145.84 57.9302 145.649C57.8749 145.458 57.774 145.301 57.6275 145.177C57.4805 145.053 57.3022 144.964 57.0932 144.909C56.7662 144.824 56.4626 144.777 56.1836 144.767C55.9018 144.759 55.6139 144.769 55.3201 144.797Z" fill="white"/>
<path d="M49.0078 139.778L46.9074 144.512L46.1779 144.19L47.0913 142.131L46.6093 141.919L43.9892 143.225L43.0497 142.81L45.9782 141.375L45.1255 138.066L46.0651 138.48L46.7371 141.164L47.3921 141.453L48.2782 139.456L49.0078 139.778Z" fill="white"/>
<path d="M38.5267 135.813L34.2665 137.863L33.4893 137.373L36.2646 132.999L36.9388 133.424L34.7923 136.807L39.0414 134.75L39.8297 135.247L37.0543 139.621L36.3801 139.196L38.5267 135.813Z" fill="white"/>
<path d="M22.8971 127.928C22.506 127.54 22.5049 126.896 22.8945 126.506C23.2909 126.109 23.937 126.108 24.3281 126.497C24.7259 126.892 24.7271 127.536 24.3307 127.932C23.941 128.322 23.2949 128.324 22.8971 127.928Z" fill="white"/>
</svg>
