<svg id="logo" viewBox="0 0 298 40" fill="currentÑolor" xmlns="http://www.w3.org/2000/svg">
<path d="m282.118 5.939.001-.015c.04-.404.079-.81.131-1.227.159-1.428.37-2.855 1.057-4.176.106-.159.159-.37-.053-.476-.126-.084-.253-.034-.38.017-.032.013-.064.026-.095.036-.378.157-.68.408-.975.652-.2.166-.397.33-.611.458-1.163.705-2.279 1.457-3.395 2.209-.558.375-1.116.751-1.679 1.121h-.001c-1.215.793-2.431 1.586-3.699 2.326l-.072.044c-.619.38-.661.405-.457 1.119.106.264.106.528.106.792 0 .584.134 1.124.271 1.677.074.297.149.599.205.913.014.059.017.133.019.211.007.206.015.438.245.476.232.04.294-.177.352-.378.022-.074.043-.146.071-.203.078-.124.146-.253.215-.383.165-.31.332-.624.631-.886 1.057-1.057 2.22-2.008 3.382-2.96l.07-.06.074-.064c.324-.284.658-.576 1.072-.668.026.204.039.41.052.608v.007c.014.21.027.412.054.6.047.71.137 1.376.231 2.076l.033.25c.053.476-.159.899-.581 1.163-1.078.663-1.994 1.522-2.9 2.371l-.001.001-.001.002c-.248.232-.496.464-.745.692-.479.418-.966.823-1.451 1.226h-.001c-.8.665-1.598 1.327-2.354 2.05-.069.07-.159.13-.247.187-.113.075-.222.147-.282.236-.123.247.073.397.241.527.048.037.094.072.129.108.74.793 1.005 1.638 1.005 2.643a29.576 29.576 0 0 0 0 4.334c.158 2.431.158 4.81 0 7.241-.106 1.586-.529 3.066-1.216 4.493-.159.317-.212.476.211.476.74-.036 1.482-.024 2.222-.012.369.006.739.011 1.108.011h1.692c.328 0 .282-.166.23-.352l-.019-.07c0-.199-.089-.397-.178-.595-.03-.066-.06-.132-.086-.198-.476-.952-.687-1.956-.687-3.013 0-.423 0-.846-.106-1.269-.264-.898-.211-1.797 0-2.695.159-.582.211-1.216.053-1.797-.185-.482-.189-.989-.193-1.503v-.003a9.754 9.754 0 0 0-.019-.661c-.118-1.362-.004-2.724.109-4.085.09-1.07.179-2.14.156-3.21l-.001-.06-.001-.054c-.007-.237-.014-.497.213-.678.517-.377.972-.815 1.428-1.256.571-.551 1.145-1.105 1.849-1.546l.061-.042c.147-.106.309-.223.309.148.042.443.068.886.093 1.33v.002c.038.666.076 1.332.171 1.998.114 1.058.092 2.145.07 3.22v.01c-.008.423-.017.845-.017 1.263v8.72c0 .24.003.477.005.713.018 1.652.034 3.26-.798 4.785-.211.37.159.898.476.898h3.383c1.155 0 1.006-.313.486-1.405l-.01-.022a.48.48 0 0 1-.159-.37c-.062-.42-.138-.84-.215-1.263-.182-1.01-.366-2.027-.366-3.07-.035-1.28-.024-2.56-.013-3.942.006-.732.013-1.492.013-2.296a64.15 64.15 0 0 0-.004-2.515v-.011c-.019-1.364-.04-2.819.057-4.292.017-.194.058-.382.099-.57.083-.376.165-.752.059-1.174-.289-.977-.257-1.953-.224-2.93v-.009c.014-.448.029-.895.013-1.343 0-.18.048-.36.095-.536.063-.237.124-.467.063-.68l-.02-.125-.02-.125c-.098-.594-.192-1.162.04-1.811.118-.384.022-.768-.077-1.162-.078-.31-.157-.626-.134-.952.053-.422.092-.832.132-1.24V5.94Z"/><path fill-rule="evenodd" clip-rule="evenodd" d="M296.63 37.783c.793 0 1.533-.687 1.321-1.374-.242-.658-.348-1.316-.452-1.958l-.001-.001v-.002c-.055-.338-.108-.672-.181-1-.081-.284-.085-.584-.088-.885-.005-.48-.01-.964-.335-1.387 0-.68-.156-1.335-.313-1.996-.16-.674-.321-1.354-.321-2.074 0-.335-.066-.682-.132-1.034-.08-.425-.161-.858-.133-1.291 0-.106-.052-.212-.211-.265-.159-.053-.264 0-.37.106a7.74 7.74 0 0 1-.476.687c-1.427 2.167-3.065 4.123-4.862 5.973a7.762 7.762 0 0 0-.232.281c-.269.337-.53.664-.984.829-.095-.318-.076-.655-.057-.988.013-.22.025-.44.004-.65 0-.079-.004-.156-.007-.23-.016-.33-.03-.632.271-.934.687-.792 1.375-1.585 2.009-2.431.456-.577.967-1.099 1.478-1.62.614-.627 1.227-1.254 1.746-1.974.211-.264.37-.529.317-.846a28.474 28.474 0 0 1-.111-1.439c-.059-.963-.118-1.926-.365-2.842l-.017-.054c-.048-.148-.1-.31-.194-.263-.159.053-.37.317-.37.37.211.528.106 1.004-.159 1.427-1.004 1.638-2.008 3.277-3.435 4.598a3.444 3.444 0 0 0-.373.404c-.236.283-.457.547-.631.442-.311-.155-.166-.51-.025-.854.051-.125.102-.25.13-.362v-.158c-.017-.755-.023-1.506-.029-2.253v-.001c-.012-1.5-.024-2.996-.129-4.512a37.3 37.3 0 0 0-.106-2.431c-.042-.756.016-1.561.075-2.377.089-1.239.18-2.502-.075-3.649v-.423c.231-.77.238-1.54.245-2.33v-.001c.002-.295.005-.592.019-.893.106-.898.317-1.797 1.11-2.378.038-.038.082-.069.123-.098.075-.052.142-.098.142-.167.034-.103.023-.184.012-.272a1.146 1.146 0 0 1-.012-.15.402.402 0 0 0-.212-.106c-.581.29-1.187.256-1.767.224-.264-.015-.522-.03-.77-.013-.687 0-1.269 0-1.903.053-.793 0-1.057.37-.74 1.163.317.581.634 1.163.687 1.797.023.616.085 1.291.149 1.979.083.905.168 1.831.168 2.672-.06 2.113-.051 4.226-.043 6.35v.01c.007 1.59.013 3.187-.009 4.793 0 .618.006 1.236.013 1.854v.01c.02 1.862.039 3.725-.119 5.589a21.232 21.232 0 0 0-.159 2.59c.053 2.114.106 4.28-.845 6.236-.106.106-.159.265-.106.37 0 .106.211.318.264.265.732-.193 1.493-.16 2.241-.13.277.013.553.024.825.024h8.51Zm-2.485-3.118h-.001c-.739.105-1.479.211-2.271.317h-.529a1.268 1.268 0 0 0-.118.004l-.101.007c-.158.012-.325.024-.468-.011-.029 0-.124.008-.247.019-.321.027-.839.072-.916.034.053-.053.264-.238.476-.423.211-.185.423-.37.476-.423.398-.421.825-.777 1.248-1.13.587-.49 1.167-.974 1.659-1.619.08-.08.192-.13.287-.173l.046-.02.037-.018c0 .053.013.093.026.132.013.04.026.08.026.132.02.12.018.246.015.371-.004.21-.008.416.091.58.187.436.19.871.194 1.307.003.304.005.609.07.914Z"/><path d="M269.726 11.57c.212-.318.106-.37-.158-.37-1.216-.212-1.48-.37-1.533-1.375-.053-1.797-.106-3.594.475-5.339.265-.634.635-1.215 1.005-1.744.105-.158.211-.581-.053-.528h-5.973c-.41 0-1.087-.005-1.856-.01-1.909-.012-4.389-.028-4.804.01-.423 0-.634.37-.423.74.097.129.214.218.326.304.071.056.141.11.203.171.264.37.529.74.529 1.216-.029 1.132.064 2.355.157 3.572.08 1.055.16 2.106.16 3.088-.053 4.598-.053 9.144-.053 13.742 0 .548-.006 1.09-.012 1.628v.003a74.19 74.19 0 0 0 .012 3.232c.049.762-.05 1.501-.15 2.238-.114.849-.228 1.695-.114 2.572 0 .159 0 .37-.053.529-.112.502-.184 1.011-.257 1.52-.132.935-.265 1.871-.642 2.76-.053.16-.053.212.053.318.106.106.211.159.37.053.185-.185.396-.304.608-.423.211-.119.423-.238.608-.423 1.638-1.744 3.382-3.33 5.232-4.863a79.234 79.234 0 0 1 4.017-3.33c.523-.368.741-.523.833-.732.066-.152.066-.332.066-.642.013-.236.02-.473.026-.71v-.003c.02-.714.04-1.427.238-2.141.167-.583.202-1.232.236-1.842.009-.164.017-.327.029-.484.052-.317.105-.687-.159-.951-.211-.159-.423-.264-.581 0a2.597 2.597 0 0 0-.318.898c0 .38-.168.693-.343 1.018-.045.083-.09.166-.132.251-.822 1.73-2.174 3.034-3.535 4.349-.303.292-.607.586-.905.884l-.81.731-.005.005-.004.004-.553.5-.267.24c-.158-.476-.146-.971-.133-1.462a6.124 6.124 0 0 0-.025-.97c-.053-.528.158-.898.528-1.215.634-.456 1.194-.985 1.752-1.511.605-.572 1.208-1.14 1.895-1.608.423-.264.582-.634.582-1.163-.033-.646.093-1.274.22-1.905.081-.4.162-.803.203-1.213 0-.029.007-.061.016-.095.021-.093.047-.198-.069-.275-.035 0-.118.047-.2.094-.041.023-.082.047-.117.064-.106.106-.198.212-.291.317a5.989 5.989 0 0 1-.291.318c-1.163 1.163-2.431 2.22-3.805 3.224l-.318.159a.767.767 0 0 1-.052-.186c-.014-.066-.027-.132-.053-.184 0-.093.006-.179.012-.26a1.32 1.32 0 0 0-.012-.428c-.053-.951.264-1.691 1.057-2.272l.354-.262.007-.004.004-.004c.444-.328.869-.644 1.326-.893.265-.106.529-.212.582-.529.211-1.163.423-2.378.264-3.541 0-.317-.37-.423-.634-.264a1.222 1.222 0 0 1-.124.101c-.099.076-.21.16-.246.269-.118.783-.67 1.189-1.207 1.583-.187.138-.373.274-.538.425l-.1.062-.058.038c-.252.16-.558.356-.687.27-.197-.118-.159-.412-.127-.663v-.002c.011-.085.021-.166.021-.234.024-.707-.019-1.403-.062-2.099-.05-.81-.101-1.621-.044-2.446 0-.572.049-1.167.096-1.755.023-.28.046-.561.063-.835.106-1.374.211-2.749-.159-4.07-.105-.423-.053-.846.212-1.216.176-.211.399-.188.622-.164.112.012.223.023.329.006.381-.114.762-.092 1.123-.07.14.009.277.017.41.017h1.11c.37-.053.476-.053.423.476-.264 1.585-.476 3.277-.106 4.915.023.11.049.218.075.328.149.633.301 1.278.031 1.998-.053.264.106.687.264 1.004.106.317.37.529.74.264.245-.155.509-.283.771-.41.361-.175.72-.35 1.026-.594.19-.174.395-.334.6-.495.477-.373.954-.747 1.25-1.302Z"/><path fill-rule="evenodd" clip-rule="evenodd" d="M253.749 7.192c.006-.13.013-.258.028-.381l.016-.235c.098-1.45.192-2.843 1.094-4.046.212-.265-.053-.635-.264-.582a4.143 4.143 0 0 1-1.374.212c-1.41-.024-2.819-.006-4.229.013-1.762.022-3.524.045-5.285-.013-.575-.02-1.15.027-1.725.074-.958.078-1.916.157-2.874-.074-.158-.053-.317.052-.37.264-.053.211-.053.423.159.528.65.326 1.004.923 1.349 1.505.16.269.317.534.501.768.264.317.475.687.423 1.004 0 .568.08 1.135.161 1.702.092.649.184 1.297.156 1.946-.036.984-.024 1.945-.012 2.914.006.487.012.977.012 1.473v5.02c0 .094.003.187.006.279v.001c.01.274.02.54-.059.778-.37.899-.264 1.797-.159 2.643.185 1.073.189 2.146.193 3.218.001.46.003.92.019 1.38.026.344-.066.648-.159.952-.092.304-.185.608-.158.951.052 1.004.052 2.009.052 3.013-.052 1.321-.264 2.801-1.004 3.858a3.64 3.64 0 0 0-.314.638c-.052.126-.103.25-.162.367-.052.105-.105.211-.105.264a.478.478 0 0 0 .37.159h4.968c.212 0 .423 0 .582-.212.1-.1-.049-.401-.233-.775-.205-.416-.455-.922-.455-1.34 0-.58-.079-1.149-.158-1.717-.079-.568-.159-1.136-.159-1.718 0-1.46-.006-2.92-.011-4.382v-.008c-.012-2.923-.024-5.847.011-8.771.016-.53-.002-1.062-.02-1.593-.042-1.213-.083-2.426.285-3.64.052-.158 0-.37-.053-.528-.255-.424-.237-.883-.22-1.32v-.002c.004-.107.008-.213.008-.317 0-.502 0-.753.126-.872.125-.119.376-.106.879-.08.211 0 .422.048.634.095.106.023.211.047.317.064.616.137 1.211.363 1.812.591.326.124.654.25.989.36 1.269.424 1.375.582 1.375 2.01 0 .158 0 .37-.053.528 0 .634 0 1.268-.159 1.955-.075.3-.032.6.012.906.05.34.1.688-.012 1.05-.092.277-.006.624.083.98.064.258.129.52.129.765-.027.609-.014 1.218 0 1.821v.002c.013.598.026 1.191 0 1.77-.061 1.216-.044 2.51-.027 3.82v.002c.027 2.11.056 4.266-.238 6.221-.034.213-.062.426-.091.638-.148 1.102-.291 2.167-1.177 3.01-.212.21-.212.264-.106.528.122.203.305.188.527.17.068-.006.139-.011.213-.011.286 0 .753.004 1.287.009 1.34.012 3.107.028 3.523-.01.211 0 .264-.21.159-.422-1.058-1.85-1.322-2.749-1.269-4.546.038-2.16.008-4.4-.021-6.666-.054-4.11-.108-8.304.232-12.256.106-1.322.212-2.749-.211-4.07-.159-.529-.159-1.163.053-1.639.15-.337.167-.675.183-.993Zm-3.989-1.703c.423 0 .74.106.634.635-.017.123-.005.347.008.606v.001c.028.516.063 1.173-.113 1.454-.038.038-.042.103-.046.168-.007.117-.015.236-.219.202a4.39 4.39 0 0 0-.201.006c-.214.01-.444.021-.644-.059-.719-.36-1.479-.557-2.241-.756a18.226 18.226 0 0 1-1.406-.407c-.212-.052-.423-.105-.582-.264-.423-.317-.37-.846-.264-1.268.043-.304.301-.287.538-.271.052.003.102.006.149.006h2.167V5.49h2.22ZM238.089.838h-.03c-.158-.052-.317.054-.475.212-.73.76-1.546 1.414-2.369 2.075-.61.488-1.223.98-1.807 1.52-.956.918-1.988 1.735-3.026 2.556l-.005.004a93.51 93.51 0 0 0-1.356 1.087c-.04.03-.078.062-.116.093-.158.132-.294.246-.466.118-.158-.106-.158-.37-.158-.529-.053-1.11.053-2.167.211-3.277l.053-.333c.189-1.202.371-2.36.952-3.472a.994.994 0 0 0 .105-.37c0-.159-.105-.317-.264-.265-.264.106-.529.212-.687.37-.957.804-2.025 1.442-3.083 2.074-.403.24-.805.48-1.198.728a113.845 113.845 0 0 1-4.916 3.277 2.855 2.855 0 0 1-.468.217c-.338.133-.694.274-.906.629-.216.308-.09.598.042.902.094.217.191.441.169.683-.078.743.104 1.457.29 2.185.065.256.131.514.186.775.026.053.066.106.106.159.039.053.079.105.105.158.044-.044.098-.079.149-.112.071-.047.138-.09.168-.152.159-.529.37-1.11.74-1.48 1.427-1.374 2.96-2.696 4.599-3.858.053-.053.158-.159.211-.159l.017-.003c.256-.052.459-.093.459.373 0 1.057.053 2.114.159 3.171.105.899-.265 1.427-.899 1.903-1.427 1.11-2.854 2.22-4.176 3.489-.66.623-1.371 1.17-2.098 1.73l-.005.003-.001.001c-.318.245-.641.493-.961.75-.212.158-.265.37 0 .528.886.64.992 1.647 1.088 2.55l.022.199c.158 2.748.211 5.497.264 8.245 0 1.163-.053 2.326-.159 3.436-.052 1.586-.475 2.96-1.11 4.387l-.045.11c-.099.234-.145.343-.109.402.031.051.125.064.3.089l.224.034c.673.09 1.345-.011 2.022-.112.918-.138 1.845-.276 2.788.059.106.053.265-.106.212-.265-.053-.264-.106-.528-.265-.74-.528-1.057-.74-2.167-.74-3.33 0-.37 0-.74-.105-1.11a5.18 5.18 0 0 1 .053-2.695c.158-.582.211-1.216 0-1.744-.151-.529-.168-1.058-.184-1.586a14.942 14.942 0 0 0-.028-.634c-.09-1.39.026-2.78.143-4.169.087-1.041.174-2.084.174-3.126-.053-.37.106-.634.423-.951.37-.343.767-.647 1.163-.951.396-.304.793-.608 1.163-.952.106-.105.224-.211.343-.317.119-.106.238-.211.344-.317.158.237.139.504.119.778a3.703 3.703 0 0 0-.013.28c0 2.88.013 5.774.026 8.667.013 2.894.027 5.788.027 8.669 0 1.321-.053 2.643-1.11 3.7a.4.4 0 0 0-.106.211c-.159.212-.053.37.158.37h4.387c.529 0 .635-.264.582-.74-.053-.264-.106-.528-.264-.793-.635-1.427-.846-2.96-.846-4.545-.053-1.745-.053-3.489-.053-5.233 0-.65.006-1.299.012-1.948v-.01a108.37 108.37 0 0 0-.012-3.909c0-.951.37-1.903 1.004-2.484.822-.744 1.76-1.372 2.686-1.991h.001c.323-.217.646-.433.96-.652.318-.264.37-.053.37.211v.952c-.015 1.712-.003 3.42.01 5.125v.003c.029 3.98.059 7.95-.274 11.944-.053 1.163-.106 1.744-.846 2.749-.049.074-.099.137-.146.196-.153.194-.276.35-.276.755 0 .37.845.37 1.215.37h4.44c.476-.105.634-.475.37-.898-.077-.155-.162-.296-.246-.436-.145-.241-.288-.479-.388-.78-.423-1.691-.582-2.907-.529-4.651 0-.143.018-.292.036-.44.035-.287.069-.566-.036-.776-.385-.942-.32-1.85-.253-2.777v-.002c.016-.217.032-.436.042-.657 0-1.057.106-2.167.211-3.224.059-.532-.03-1.032-.121-1.535-.071-.396-.143-.795-.143-1.214.039-1.499.028-2.998.016-4.498-.019-2.57-.038-5.14.195-7.711.265-2.379.529-4.704 1.798-6.871 0-.053.052-.16.105-.212.047-.279-.152-.272-.309-.266l-.031.001Zm-4.84 10.414c.053.37-.158.58-.422.792-.66.449-1.32.91-1.979 1.372l-.004.003c-.66.462-1.321.925-1.982 1.374-.043.029-.087.07-.131.112-.118.11-.244.229-.397.152-.064 0-.07-.116-.077-.243-.004-.083-.008-.17-.029-.233-.106-1.215.211-2.061 1.321-2.801 1.163-.74 2.326-1.586 3.278-2.643a.4.4 0 0 1 .264-.106c.158 0 .158.16.158.318v1.902Z"/><path d="M216.735 2.9c.212-.21.264-.74-.053-.74-.47 0-2.41.02-3.987.034h-.01c-1.078.01-1.984.02-2.134.02-.476 0-.476.422-.317.74 1.057 1.744 1.268 3.858 1.321 5.866.036.817.024 1.61.012 2.379-.006.376-.012.746-.012 1.11a60.894 60.894 0 0 0-.006 2.048c.012 1.35.024 2.675-.152 3.977 0 .063.022.134.043.197.048.151.081.254-.255.068-.766-.476-1.519-.952-2.273-1.427-.753-.476-1.506-.952-2.272-1.427-.423-.318-.688-.688-.635-1.269 0-.66-.003-1.321-.006-1.982v-.001c-.01-1.982-.02-3.964.059-5.945 0-1.269.053-2.59 1.11-3.595.264-.211.159-.74-.158-.74h-5.022c-.528 0-.475.212-.37.423.949 1.248 1.001 2.874 1.049 4.342l.008.257c.036 1.583.024 3.144.012 4.712-.006.787-.012 1.576-.012 2.37 0 .265-.052.582-.105.846-.265 1.11-.265 1.163.687 1.744 2.16 1.28 4.211 2.668 6.243 4.045l1.21.818c.581.423.898.846.845 1.586l-.013.132c-.048.477-.093.916-.093 1.4 0 .582-.052.9-.158 1.48-.106.212-.212.265-.423.16-.282-.172-.569-.338-.856-.504-.955-.55-1.914-1.104-2.685-1.875-.113-.113-.253-.217-.397-.325-.462-.344-.968-.72-.766-1.525 0-.053-.476-.317-.687-.317-.33-.048-.324.2-.319.404l.001.04.001.031c0 .582 0 1.11.105 1.692.212.687.37 1.374.423 2.114.053.793.423 1.216 1.11 1.586.393.227.81.43 1.229.634.652.318 1.31.639 1.89 1.057l.297.208c1.145.797 1.232.858 1.183 2.276 0 .122.017.243.034.366.036.253.072.513-.034.797-.212.634-.265.687-.74.37a63.182 63.182 0 0 0-1.014-.727h-.001l-.001-.001c-.682-.482-1.363-.963-1.997-1.492-.22-.176-.485-.296-.747-.416-.368-.168-.728-.332-.945-.641a15.04 15.04 0 0 0-.683-.838c-.748-.873-1.484-1.733-1.484-3.02 0-.106-.105-.265-.211-.318-.211-.052-.37.053-.476.212-.177.177-.169.427-.161.66l.003.133c.046.514.01 1.029-.026 1.548-.046.654-.092 1.316.026 1.993-.616 1.027.163 1.505.838 1.919l.06.037c1.135.692 2.212 1.456 3.284 2.217.975.692 1.946 1.382 2.953 2.011.228.144.458.286.688.429h.002c1.207.75 2.421 1.502 3.486 2.478.264.264.581.37.898.106.265-.212.265-.423.159-.793-.355-1.105-.445-2.24-.534-3.36v-.001c-.03-.38-.06-.758-.1-1.132-.106-1.532-.106-3.171-.053-4.757.079-3.738-.021-7.477-.12-11.194a762.184 762.184 0 0 1-.092-3.658c-.029-.495.038-.957.104-1.413v-.002c.054-.373.108-.742.108-1.122l-.005-.15v-.002c-.051-1.691-.101-3.335-.101-5.028 0-1.005.106-2.22.793-3.013.423-.476.899-.951 1.427-1.321Z"/><path fill-rule="evenodd" clip-rule="evenodd" d="M199.278 7.192c.007-.13.013-.258.028-.381l.016-.235c.098-1.45.192-2.843 1.094-4.046.212-.265-.053-.635-.264-.582a4.143 4.143 0 0 1-1.374.212c-1.41-.024-2.819-.006-4.229.013-1.762.022-3.523.045-5.285-.013-.575-.02-1.15.027-1.725.074-.958.078-1.916.157-2.874-.074-.158-.053-.317.052-.37.264l-.018.088c-.237-.237-.718-.298-1.342-.298h-6.185l-.137-.002c-.28-.007-.565-.013-.655.213-.212.265-.212.529.105.846.529.476.74 1.11.899 1.797.154.555.182 1.11.21 1.665.021.397.041.793.107 1.19.264 1.85.423 3.646.476 5.496.022.884.016 1.757.009 2.63-.008 1.163-.017 2.324.043 3.502.027 1 .001 2.015-.026 3.036-.026 1.027-.053 2.061-.026 3.095.008.357.028.671.046.948.1 1.53.126 1.922-2.425 2.012-.141 0-.282-.006-.423-.012a5.073 5.073 0 0 0-.845.012c-.423 0-.688-.211-.74-.634 0-.151-.012-.434-.025-.73v-.007a24.398 24.398 0 0 1-.028-.849c0-.723-.004-1.447-.007-2.17v-.01c-.01-2.18-.02-4.36.06-6.541.037-1.416.008-2.832-.022-4.248-.053-2.548-.107-5.096.233-7.645.106-.845.264-1.533.581-2.273.476-1.057.318-1.321-.792-1.374h-.846c-.365-.02-.736-.01-1.11-.002-.655.016-1.316.031-1.956-.104a1.002 1.002 0 0 1-.15-.055c-.159-.068-.31-.133-.431.108-.106.212 0 .423.211.582.899.581 1.11 1.533 1.163 2.484.043.404.068.817.094 1.23.037.616.076 1.235.17 1.836.071.634.016 1.259-.039 1.882-.068.778-.137 1.554.039 2.346-.239.444-.235.911-.231 1.386.002.259.004.52-.033.781-.025.228.07.43.165.633.104.22.207.44.152.689-.229.826-.18 1.614-.128 2.43v.004c.008.122.016.244.022.367 0 1.48-.052 2.96-.105 4.44-.024.237.038.485.098.73.075.3.148.593.06.855-.229.733-.22 1.943-.213 2.803l.002.369c-.053.634-.212.74-.846.74-.245 0-.49-.012-.735-.024-.653-.031-1.307-.063-1.96.13-.635.211-.74.052-.899-.688 0-.165-.014-.473-.028-.768v-.004c-.013-.27-.025-.529-.025-.655 0-.871-.003-1.74-.006-2.606v-.007c-.01-2.6-.02-5.185.059-7.8.017-1.091-.004-2.189-.024-3.288-.045-2.36-.089-4.728.235-7.071.106-.74.212-1.48.476-2.167.634-1.374.476-1.586-1.004-1.586h-.582c-.383-.038-.773-.021-1.167-.004-.694.031-1.402.062-2.11-.207-.158-.053-.264.053-.317.158-.053.212-.053.423.106.529 1.11.687 1.269 1.797 1.321 2.96 0 .845.053 1.691.212 2.537.106.528.106 1.163-.053 1.638-.159.529-.106 1.005-.053 1.48a3.882 3.882 0 0 1-.053 1.745c-.158.74-.264 1.585.106 2.325.159.37.106.793 0 1.216-.014.1-.036.204-.059.31v.001c-.061.285-.124.582-.047.852.148.592.115 1.184.082 1.776-.015.253-.029.507-.029.76 0 .419-.023.841-.045 1.266-.055 1.024-.111 2.06.151 3.07.039.158-.01.316-.06.475-.016.053-.033.106-.046.158-.264 1.322-.264 3.277-.053 4.546.09.48.112.96.134 1.43.016.359.032.712.078 1.054 0 .159 0 .423-.159.476-.476.106-.423.476-.37.793.053 1.268-.053 2.59-.634 3.752-.212.476 0 .582.317.582.462-.022.924.03 1.393.081.659.073 1.333.148 2.043.025.269-.05.539-.123.813-.196.583-.156 1.182-.316 1.829-.28.262.024.503.09.741.157.291.08.578.16.898.16h4.651c.321 0 .637-.006.948-.012.61-.011 1.206-.023 1.801.012.366.022.723-.036 1.083-.094.522-.084 1.049-.168 1.612-.012.476.159 1.163.212 1.745.106.37-.106.581-.423.37-.687-.461-.653-.559-1.361-.66-2.085a11.345 11.345 0 0 0-.133-.822c-.099-.592-.117-1.196-.135-1.8-.021-.69-.041-1.382-.182-2.059-.185-1.057-.199-2.26-.212-3.47-.013-1.208-.026-2.424-.211-3.507-.235-1.596-.136-3.233-.037-4.876l.037-.62c.015-.382-.018-.773-.051-1.165-.083-.964-.165-1.935.474-2.8-.159-.37-.159-.753-.159-1.123s0-.727-.158-1.044c-.212-.581-.159-1.11-.106-1.639.158-1.162.211-2.325.211-3.54 0-.212 0-.477.106-.688.106-.264.37-.476.634-.264.222.2.512.295.804.39.475.153.955.31 1.152.931.053.317.37.159.476-.053.026-.079.053-.145.079-.211.026-.066.053-.132.079-.212.013-.274.02-.546.026-.815l.001-.004c.019-.82.039-1.623.237-2.458a1.22 1.22 0 0 0 .025-.22l.015.007c.651.326 1.005.923 1.349 1.505.16.269.317.534.501.768.264.317.475.687.423 1.004 0 .568.08 1.135.161 1.702.092.648.184 1.297.156 1.946a60.355 60.355 0 0 0-.012 2.914v.005c.006.486.012.974.012 1.468v5.02c0 .094.003.188.006.28.01.274.02.54-.059.778-.37.899-.264 1.797-.159 2.643.185 1.073.189 2.146.193 3.218.001.46.003.92.019 1.38.026.344-.066.648-.159.952-.092.304-.185.608-.158.951.052 1.004.052 2.009.052 3.013-.052 1.321-.264 2.801-1.004 3.858-.133.2-.224.422-.313.637-.053.126-.104.25-.163.368-.052.105-.105.211-.105.264a.478.478 0 0 0 .37.159h4.968c.212 0 .423 0 .582-.212.1-.1-.049-.401-.233-.775-.205-.416-.455-.922-.455-1.34 0-.58-.079-1.149-.158-1.717-.079-.568-.159-1.136-.159-1.718 0-1.458-.005-2.917-.011-4.376v-.01c-.012-2.925-.024-5.85.011-8.775.016-.53-.002-1.062-.02-1.592-.041-1.214-.083-2.427.285-3.64.052-.16 0-.37-.053-.53-.255-.423-.237-.882-.22-1.32.004-.107.008-.213.008-.318 0-.502 0-.753.126-.872.125-.119.376-.106.879-.08.211 0 .422.048.634.095.106.023.211.047.317.064.616.137 1.211.363 1.812.591.326.124.655.25.989.36 1.269.424 1.375.582 1.375 2.01 0 .158 0 .37-.053.528 0 .634 0 1.268-.159 1.955-.075.3-.032.6.013.906.049.34.099.688-.013 1.05-.092.277-.006.624.083.98.064.258.129.52.129.765-.027.61-.013 1.22 0 1.822.013.6.026 1.192 0 1.772-.061 1.216-.044 2.51-.027 3.821.028 2.11.056 4.266-.238 6.221-.034.213-.062.426-.091.638-.147 1.101-.291 2.167-1.177 3.01-.212.21-.212.264-.106.528.122.203.305.188.527.17.068-.006.139-.011.213-.011.286 0 .75.004 1.283.009h.001c1.341.012 3.11.028 3.526-.01.211 0 .264-.21.159-.422-1.058-1.85-1.322-2.749-1.269-4.546.038-2.159.008-4.397-.021-6.661v-.004c-.054-4.11-.108-8.305.232-12.257.106-1.322.212-2.749-.211-4.07-.159-.529-.159-1.163.053-1.639.15-.337.167-.675.183-.993Zm-3.989-1.703c.423 0 .74.106.635.635-.018.123-.006.348.008.607.027.516.062 1.173-.114 1.454-.038.038-.042.103-.046.168-.007.117-.015.236-.218.202-.065 0-.133.003-.202.006-.214.01-.444.021-.644-.059-.719-.36-1.479-.557-2.241-.756-.47-.122-.942-.245-1.406-.407-.212-.052-.423-.105-.582-.264-.422-.317-.37-.846-.264-1.268.043-.304.301-.287.538-.271.052.003.102.006.149.006h2.167V5.49h2.22ZM170.46 32.553c.423-.37 0-.951-.634-.898-.166 0-.346-.03-.518-.057-.157-.025-.307-.049-.433-.049-.306.02-.603-.022-.896-.064-.467-.066-.922-.13-1.377.064l-.056.021c-.399.148-.725.27-.473.825.035.069.024.16.013.26-.006.053-.013.108-.013.163.041.223.019.47-.002.71-.034.385-.067.753.161.981.275.309.705.261 1.089.219.207-.023.401-.045.55-.008.249 0 .464-.006.66-.013.341-.011.623-.02.925.014.423 0 .529-.16.582-.582 0-.093-.005-.187-.01-.28-.023-.435-.046-.87.432-1.306Zm6.978-.528c.211-.264-.159-.687-.476-.529-.39.195-.799.17-1.191.147-.247-.015-.488-.029-.712.012-.171.019-.349.004-.524-.011-.312-.027-.613-.053-.85.117-.322.25-.233.573-.141.903.044.158.088.317.088.47-.053 1.587 0 1.587 1.586 1.587.086 0 .178-.006.271-.012.194-.012.396-.024.574.011.899.106 1.163-.264 1.163-1.11 0-.105-.004-.21-.008-.317-.017-.422-.034-.845.22-1.268Z"/><path d="M123.344 5.939c.04-.41.079-.82.132-1.242.159-1.428.37-2.855 1.057-4.176.106-.159.159-.37-.052-.476-.127-.084-.254-.034-.381.017-.032.013-.063.026-.095.036-.378.157-.68.408-.975.652-.2.166-.397.33-.611.458-1.163.705-2.279 1.457-3.394 2.208l-.002.002c-.558.375-1.115.75-1.678 1.12-1.216.793-2.431 1.586-3.7 2.326l-.072.044c-.619.38-.66.405-.457 1.119.106.264.106.528.106.792 0 .584.134 1.124.272 1.677.074.297.148.599.204.913.014.059.017.133.02.211.007.206.014.438.244.476.232.04.294-.177.353-.378.021-.074.042-.146.07-.203.078-.125.146-.254.215-.383.165-.31.332-.624.631-.886 1.057-1.057 2.22-2.008 3.382-2.96.048-.04.096-.082.144-.124.324-.284.658-.576 1.072-.668.026.204.039.41.052.608.013.212.027.417.054.607.047.71.137 1.376.231 2.076l.033.25c.053.476-.158.899-.581 1.163-1.078.663-1.994 1.522-2.899 2.371l-.001.001c-.249.233-.497.466-.747.694-.48.419-.966.823-1.452 1.227-.8.664-1.598 1.326-2.354 2.05-.069.069-.159.128-.247.186-.112.075-.222.147-.281.236-.124.247.072.397.24.527.048.037.094.072.13.108.739.793 1.004 1.638 1.004 2.643a29.576 29.576 0 0 0 0 4.334c.158 2.431.158 4.81 0 7.241-.106 1.586-.529 3.066-1.216 4.493-.158.317-.211.476.212.476.739-.036 1.48-.024 2.219-.012.37.006.74.011 1.11.011h1.692c.328 0 .282-.166.23-.351l-.019-.071c0-.199-.089-.397-.178-.595-.03-.066-.06-.132-.086-.198-.476-.952-.687-1.956-.687-3.013 0-.423 0-.846-.106-1.269-.264-.898-.211-1.797 0-2.695.159-.582.212-1.216.053-1.797-.185-.482-.189-.989-.192-1.503v-.003c-.002-.22-.004-.44-.019-.661-.119-1.362-.005-2.724.108-4.085.09-1.07.179-2.14.156-3.21l-.002-.114c-.007-.237-.014-.497.213-.678.517-.377.972-.815 1.429-1.256.57-.551 1.144-1.105 1.848-1.546l.061-.042c.147-.106.309-.223.309.148.043.444.068.888.093 1.332.038.666.076 1.332.172 1.998.113 1.059.091 2.146.07 3.22-.009.427-.018.852-.018 1.273v8.72c0 .239.003.477.005.713.018 1.652.035 3.26-.797 4.785-.212.37.158.898.475.898h3.383c1.155 0 1.006-.313.486-1.405l-.01-.022a.48.48 0 0 1-.159-.37c-.062-.42-.138-.84-.214-1.263-.183-1.01-.367-2.027-.367-3.07-.035-1.28-.024-2.56-.013-3.942.007-.732.013-1.492.013-2.296.021-.79.009-1.638-.004-2.523-.019-1.365-.039-2.82.057-4.295.017-.194.058-.382.099-.57.083-.376.165-.752.059-1.174-.289-.977-.257-1.953-.224-2.93.015-.45.03-.901.013-1.352 0-.18.048-.36.095-.536.063-.237.124-.467.063-.68l-.04-.25c-.098-.594-.191-1.162.04-1.811.119-.384.022-.768-.077-1.162-.078-.31-.157-.626-.134-.952.053-.421.092-.83.132-1.239v-.003Z"/><path fill-rule="evenodd" clip-rule="evenodd" d="M139.177 36.409c.212.687-.528 1.374-1.321 1.374h-8.51c-.272 0-.548-.011-.826-.023-.747-.032-1.507-.064-2.24.129-.052.053-.264-.159-.264-.265-.053-.105 0-.264.106-.37.951-1.955.898-4.122.845-6.236 0-.846.053-1.745.159-2.59.159-1.864.139-3.727.119-5.59-.007-.62-.013-1.242-.013-1.863.022-1.61.016-3.21.009-4.804v-.003c-.008-2.122-.017-4.234.044-6.346 0-.84-.086-1.767-.169-2.673-.063-.687-.126-1.362-.149-1.978-.052-.634-.369-1.216-.687-1.797-.317-.793-.052-1.163.74-1.163.635-.053 1.216-.053 1.903-.053.248-.016.506-.002.77.013.58.032 1.186.066 1.767-.224.053 0 .159.053.212.105 0 .055.006.104.012.15a.555.555 0 0 1-.012.273c0 .069-.066.115-.142.167-.041.03-.085.06-.123.098-.792.581-1.004 1.48-1.11 2.378-.014.3-.017.598-.019.892v.002c-.007.79-.014 1.56-.245 2.33v.423c.255 1.147.164 2.41.075 3.649-.059.816-.117 1.621-.075 2.377a37.3 37.3 0 0 1 .106 2.431c.106 1.516.117 3.01.129 4.51v.012c.006.745.012 1.491.029 2.244v.158a2.684 2.684 0 0 1-.13.362c-.141.345-.285.699.025.854.174.105.395-.16.631-.442.122-.146.247-.296.373-.404 1.427-1.321 2.431-2.96 3.436-4.598.264-.423.37-.899.158-1.427 0-.053.212-.317.37-.37.094-.047.147.115.194.263l.018.054c.246.916.305 1.88.364 2.842.029.482.058.964.111 1.44.053.316-.105.58-.317.845-.519.72-1.132 1.347-1.745 1.973-.511.522-1.023 1.044-1.479 1.621-.634.846-1.321 1.639-2.009 2.431-.301.302-.287.603-.271.933v.002c.004.074.007.15.007.228.021.211.009.43-.004.651-.019.333-.038.67.057.988.454-.165.715-.492.984-.828.075-.095.151-.19.232-.282 1.797-1.85 3.435-3.806 4.862-5.973.159-.211.318-.423.476-.687.106-.106.212-.159.37-.106.159.053.212.159.212.265-.029.433.052.866.132 1.29.067.353.132.7.132 1.035 0 .72.161 1.4.321 2.074.158.66.313 1.316.313 1.996.325.423.33.906.335 1.387.004.301.007.601.088.886.073.328.127.662.182 1 .104.644.21 1.302.452 1.96Zm-6.078-1.427c.792-.106 1.532-.212 2.272-.317-.065-.305-.067-.61-.07-.914-.003-.436-.007-.871-.194-1.306-.099-.165-.095-.372-.091-.58a2.072 2.072 0 0 0-.014-.372c0-.053-.014-.092-.027-.132a.396.396 0 0 1-.026-.132l-.041.02-.042.018a.945.945 0 0 0-.287.173c-.492.645-1.072 1.13-1.659 1.619-.423.353-.85.709-1.248 1.13-.053.053-.265.238-.476.423-.211.185-.423.37-.476.423.077.038.595-.007.917-.035.123-.01.217-.018.246-.018.143.035.31.023.468.011.076-.006.151-.011.219-.011h.529Z"/><path d="M110.952 11.57c.212-.318.106-.37-.158-.37-1.216-.212-1.48-.37-1.533-1.375-.053-1.797-.106-3.594.476-5.339.264-.634.634-1.215 1.004-1.744.106-.158.211-.581-.053-.528h-5.973c-.41 0-1.086-.005-1.856-.01-1.908-.012-4.39-.028-4.804.01-.422 0-.634.37-.422.74.096.129.213.218.325.304.072.056.141.11.203.171.264.37.529.74.529 1.216-.029 1.132.064 2.355.157 3.572.08 1.055.16 2.106.16 3.088-.053 4.598-.053 9.144-.053 13.742 0 .549-.006 1.09-.012 1.631-.011 1.075-.023 2.142.012 3.232.05.762-.05 1.501-.15 2.238-.114.849-.227 1.695-.114 2.572 0 .159 0 .37-.053.529-.112.502-.184 1.012-.257 1.52-.132.936-.265 1.871-.642 2.76-.052.16-.052.212.053.318.106.106.212.159.37.053.185-.185.397-.304.608-.423.211-.119.423-.238.608-.423 1.638-1.744 3.383-3.33 5.233-4.863a78.361 78.361 0 0 1 4.017-3.33c.898-.634.898-.634.898-1.374.013-.237.02-.474.027-.712.019-.713.039-1.428.237-2.142.167-.583.202-1.23.236-1.841.009-.165.018-.328.029-.485.053-.317.105-.687-.159-.951-.211-.159-.423-.264-.581 0a2.575 2.575 0 0 0-.317.898c0 .38-.169.693-.344 1.018a8.46 8.46 0 0 0-.132.251c-.821 1.73-2.173 3.034-3.535 4.349-.303.292-.607.585-.905.884l-.816.737-.002.002-.002.001c-.277.251-.554.502-.819.74-.158-.476-.145-.971-.133-1.462a6.124 6.124 0 0 0-.025-.97c-.053-.528.158-.898.528-1.215.634-.456 1.195-.985 1.752-1.512.606-.571 1.208-1.14 1.896-1.607.422-.264.581-.634.581-1.163-.032-.646.094-1.274.221-1.905.08-.4.161-.803.202-1.213 0-.029.008-.061.016-.095.022-.093.047-.198-.069-.275-.035 0-.117.047-.2.094-.041.023-.082.047-.117.064-.106.106-.198.212-.291.317a5.989 5.989 0 0 1-.291.318c-1.162 1.163-2.431 2.22-3.805 3.224l-.317.159a.725.725 0 0 1-.053-.186.767.767 0 0 0-.053-.184 3 3 0 0 1 .013-.26c.011-.152.021-.29-.013-.428-.053-.951.264-1.691 1.057-2.272.124-.09.245-.18.365-.27.444-.328.869-.644 1.326-.893.265-.106.529-.212.582-.529.211-1.163.423-2.378.264-3.541 0-.317-.37-.423-.634-.264-.034.033-.078.067-.124.102-.1.076-.21.16-.246.268-.118.783-.67 1.189-1.206 1.583-.188.138-.374.274-.538.425-.049.029-.102.063-.158.1h-.001c-.252.16-.558.356-.687.27-.197-.118-.159-.411-.127-.663.011-.086.021-.168.021-.236.025-.707-.019-1.404-.062-2.1-.05-.81-.1-1.62-.043-2.445 0-.572.048-1.168.095-1.755l.001-.004c.022-.28.045-.559.062-.831.106-1.374.211-2.749-.158-4.07-.106-.423-.053-.846.211-1.216.176-.211.399-.188.622-.164.112.012.224.023.329.006.381-.114.762-.092 1.123-.07.14.009.277.017.41.017h1.11c.37-.053.476-.053.423.476-.264 1.585-.476 3.277-.106 4.915.024.11.05.22.076.33.148.632.3 1.276.03 1.996-.053.264.106.687.264 1.004.106.317.37.529.74.264.245-.155.509-.283.771-.41.361-.175.72-.35 1.026-.594.191-.174.395-.334.6-.495.477-.373.954-.747 1.25-1.302Z"/><path fill-rule="evenodd" clip-rule="evenodd" d="M94.975 7.192c.007-.13.013-.258.028-.381l.016-.235c.098-1.45.192-2.843 1.094-4.046.212-.265-.052-.635-.264-.582a4.14 4.14 0 0 1-1.374.212c-1.41-.024-2.82-.006-4.229.013-1.761.022-3.523.045-5.285-.013-.575-.02-1.15.027-1.725.074-.958.078-1.916.157-2.874-.074-.158-.053-.317.052-.37.264-.053.211-.053.423.159.528.65.326 1.005.923 1.35 1.505.159.269.316.534.5.768.264.317.475.687.423 1.004 0 .568.08 1.135.16 1.702.093.649.185 1.297.157 1.946-.035.983-.024 1.944-.012 2.912v.002c.006.488.012.977.012 1.473v5.02c0 .094.003.188.007.28.01.274.019.54-.06.778-.37.899-.264 1.797-.159 2.643.185 1.073.19 2.146.193 3.219.001.46.003.92.019 1.38.026.343-.066.647-.159.95-.092.305-.185.608-.158.952a57.34 57.34 0 0 1 .052 3.013c-.052 1.321-.264 2.801-1.004 3.858-.133.2-.224.422-.313.637-.053.126-.104.25-.162.368-.053.105-.106.211-.106.264a.48.48 0 0 0 .37.159h4.968c.212 0 .423 0 .582-.212.1-.1-.049-.401-.233-.775-.205-.416-.454-.922-.454-1.34 0-.58-.08-1.149-.159-1.717-.08-.568-.159-1.136-.159-1.718 0-1.46-.005-2.92-.011-4.382v-.006c-.012-2.925-.024-5.849.011-8.773.017-.53-.002-1.062-.02-1.593-.041-1.213-.083-2.426.285-3.64.053-.158 0-.37-.053-.528-.255-.424-.237-.883-.22-1.32v-.004c.004-.106.008-.212.008-.315 0-.502 0-.753.126-.872.125-.119.376-.106.879-.08.211 0 .423.048.634.095.106.023.211.047.317.064.617.137 1.21.363 1.812.591.326.124.655.25.99.36 1.268.424 1.374.582 1.374 2.01 0 .158 0 .37-.053.528 0 .634 0 1.268-.159 1.955-.075.3-.031.6.013.906.049.34.099.688-.013 1.05-.092.277-.006.624.083.98.064.258.129.52.129.765a27.78 27.78 0 0 0 0 1.823 26.47 26.47 0 0 1 0 1.77c-.061 1.217-.044 2.51-.027 3.823.028 2.109.056 4.265-.237 6.22-.035.213-.063.425-.091.636v.001c-.148 1.102-.291 2.168-1.178 3.01-.212.212-.212.265-.106.529.122.203.305.188.527.17.068-.006.14-.011.213-.011.286 0 .753.004 1.287.009 1.34.012 3.107.028 3.523-.01.212 0 .264-.21.159-.422-1.057-1.85-1.322-2.749-1.269-4.546.038-2.16.008-4.4-.021-6.666-.053-4.11-.108-8.304.233-12.256.105-1.322.211-2.749-.212-4.07-.158-.529-.158-1.163.053-1.639.15-.337.167-.675.183-.993Zm-3.989-1.703c.423 0 .74.106.635.635-.018.124-.006.348.008.608.027.516.062 1.172-.114 1.453-.038.038-.042.103-.046.168-.007.117-.015.236-.218.202-.065 0-.133.003-.202.006-.214.01-.444.021-.644-.059-.719-.36-1.478-.557-2.24-.756-.471-.122-.943-.245-1.407-.407-.212-.052-.423-.105-.582-.264-.422-.317-.37-.846-.264-1.268.044-.304.301-.287.538-.271.052.003.102.006.15.006h2.166V5.49h2.22ZM79.347.837l-.062.002c-.158-.053-.317.053-.475.211-.73.76-1.546 1.414-2.37 2.075-.608.488-1.221.98-1.806 1.52-.956.918-1.988 1.735-3.026 2.556-.455.36-.91.72-1.361 1.09-.04.03-.078.063-.115.094-.159.132-.295.246-.466.118-.159-.106-.159-.37-.159-.529-.053-1.11.053-2.167.212-3.277l.052-.333c.189-1.202.37-2.36.952-3.472a.98.98 0 0 0 .106-.37c0-.159-.106-.317-.265-.265-.264.106-.528.212-.687.37-.957.804-2.025 1.442-3.083 2.074-.403.24-.805.48-1.198.728a113.4 113.4 0 0 1-4.916 3.277c-.14.087-.301.15-.467.217-.339.133-.694.274-.907.629-.216.308-.09.598.042.902.094.217.191.441.17.683-.079.743.103 1.457.289 2.185.065.256.131.514.186.775.026.053.066.106.106.159.04.053.079.105.105.158a.914.914 0 0 1 .149-.112c.071-.047.138-.09.169-.152.158-.529.37-1.11.74-1.48 1.427-1.374 2.96-2.696 4.598-3.858.053-.053.159-.159.211-.159l.017-.003c.257-.052.46-.093.46.373 0 1.057.052 2.114.158 3.171.105.899-.265 1.427-.899 1.903-1.427 1.11-2.854 2.22-4.175 3.489-.66.623-1.372 1.17-2.1 1.73-.32.246-.643.495-.966.754-.212.158-.264.37 0 .528.886.64.993 1.647 1.088 2.55l.022.199c.158 2.748.211 5.497.264 8.245 0 1.163-.053 2.326-.158 3.436-.053 1.586-.476 2.96-1.11 4.387l-.046.11c-.099.234-.145.343-.109.402.031.051.125.064.3.089l.225.034c.672.09 1.344-.011 2.02-.112.92-.138 1.846-.276 2.79.059.105.053.264-.106.21-.265-.052-.264-.105-.528-.263-.74-.529-1.057-.74-2.167-.74-3.33 0-.37 0-.74-.106-1.11a5.193 5.193 0 0 1 .053-2.695c.158-.582.211-1.216 0-1.744-.151-.529-.167-1.058-.184-1.586-.006-.212-.013-.423-.028-.634-.09-1.39.026-2.78.143-4.168v-.002c.087-1.04.175-2.083.175-3.125-.053-.37.105-.634.422-.951.37-.343.767-.647 1.163-.951.396-.304.793-.608 1.163-.952.106-.105.225-.211.344-.317.119-.106.238-.211.343-.317.158.237.139.504.12.778-.007.092-.014.186-.014.28 0 2.88.013 5.774.026 8.668.013 2.893.027 5.787.027 8.668 0 1.321-.053 2.643-1.11 3.7a.4.4 0 0 0-.106.211c-.159.212-.053.37.159.37h4.387c.528 0 .634-.264.581-.74-.053-.264-.106-.528-.264-.793-.634-1.427-.846-2.96-.846-4.545-.053-1.745-.053-3.489-.053-5.233 0-.65.006-1.3.012-1.95v-.005c.012-1.303.023-2.61-.012-3.912 0-.951.37-1.903 1.005-2.484.822-.744 1.76-1.372 2.685-1.991.324-.217.646-.433.962-.652.317-.264.37-.053.37.211v.952a307.11 307.11 0 0 0 .01 5.125v.003c.029 3.98.058 7.95-.275 11.944-.053 1.163-.105 1.744-.845 2.749-.05.074-.1.137-.146.196-.153.194-.277.35-.277.755 0 .37.845.37 1.215.37h4.44c.476-.105.635-.475.37-.898-.077-.155-.162-.296-.246-.436-.145-.241-.288-.479-.388-.78-.423-1.691-.581-2.907-.529-4.651 0-.143.019-.292.036-.439.035-.288.07-.567-.035-.777-.386-.942-.32-1.848-.254-2.777.016-.218.032-.438.042-.659 0-1.057.106-2.167.212-3.224.059-.532-.031-1.032-.122-1.535-.071-.396-.143-.795-.143-1.214.04-1.499.028-2.998.017-4.498-.02-2.57-.04-5.14.195-7.711.264-2.379.528-4.704 1.797-6.871 0-.053.053-.16.105-.212.047-.279-.152-.272-.308-.266Zm-4.871 10.415c.052.37-.159.58-.423.792-.66.45-1.321.912-1.982 1.374-.661.463-1.322.926-1.983 1.375-.043.029-.087.07-.131.112-.118.11-.244.229-.397.152-.064 0-.07-.116-.076-.243a.959.959 0 0 0-.03-.233c-.105-1.215.212-2.061 1.322-2.801 1.162-.74 2.325-1.586 3.277-2.643a.404.404 0 0 1 .264-.106c.159 0 .159.16.159.318v1.902Z"/><path d="M57.961 2.9c.212-.21.264-.74-.053-.74-.47 0-2.416.02-3.995.034-1.078.01-1.986.02-2.136.02-.476 0-.476.422-.317.74 1.057 1.744 1.268 3.858 1.321 5.866.036.817.024 1.61.012 2.379-.006.376-.012.746-.012 1.11-.017.688-.011 1.37-.005 2.046v.002c.011 1.35.023 2.675-.153 3.977 0 .063.023.134.043.197.048.151.081.254-.255.068-.766-.476-1.52-.952-2.272-1.427-.754-.476-1.507-.952-2.273-1.427-.423-.318-.687-.688-.635-1.269 0-.66-.003-1.322-.006-1.982-.01-1.982-.02-3.964.06-5.946 0-1.269.052-2.59 1.11-3.595.264-.211.158-.74-.16-.74h-5.02c-.53 0-.476.212-.37.423.948 1.248 1 2.874 1.048 4.342l.009.257c.035 1.583.023 3.144.011 4.712-.005.787-.011 1.576-.011 2.37 0 .265-.053.582-.106.846-.264 1.11-.264 1.163.687 1.744 2.16 1.28 4.21 2.668 6.243 4.045.403.273.807.547 1.21.818.581.423.898.846.845 1.586l-.013.132c-.048.477-.092.916-.092 1.4 0 .582-.053.9-.159 1.48-.106.212-.211.265-.423.16a41.996 41.996 0 0 0-.856-.504c-.955-.55-1.913-1.104-2.685-1.875-.113-.113-.253-.217-.397-.325-.462-.344-.967-.72-.766-1.525 0-.053-.476-.317-.687-.317-.33-.048-.324.2-.319.404l.001.038v.033c0 .582 0 1.11.107 1.692.21.687.37 1.374.422 2.114.053.793.423 1.216 1.11 1.586.393.227.81.43 1.229.634.653.318 1.31.639 1.89 1.057l.298.208c1.144.797 1.23.858 1.182 2.276 0 .122.017.243.034.366.036.253.072.513-.034.797-.212.634-.264.687-.74.37a63.899 63.899 0 0 0-1.016-.728c-.681-.482-1.363-.963-1.997-1.492-.22-.176-.485-.296-.746-.416-.368-.168-.73-.332-.945-.641-.215-.29-.45-.565-.684-.839-.748-.873-1.483-1.732-1.483-3.02 0-.105-.106-.264-.212-.317-.211-.052-.37.053-.476.212-.176.177-.168.427-.161.66l.003.133c.047.514.01 1.03-.026 1.549-.046.653-.092 1.314.026 1.992-.616 1.027.164 1.505.838 1.919l.06.037c1.135.692 2.212 1.456 3.284 2.217.975.692 1.946 1.382 2.953 2.011l.69.43c1.207.748 2.42 1.5 3.486 2.477.264.264.581.37.899.106.264-.212.264-.423.158-.793-.355-1.105-.445-2.24-.534-3.36-.03-.38-.06-.758-.1-1.133-.106-1.532-.106-3.171-.053-4.757.08-3.738-.02-7.477-.12-11.194V18.597c-.033-1.218-.065-2.434-.091-3.645-.03-.495.037-.957.103-1.413.055-.374.108-.744.108-1.124l-.005-.15c-.05-1.691-.1-3.336-.1-5.03 0-1.005.105-2.22.792-3.013.423-.476.899-.951 1.427-1.321Z"/><path fill-rule="evenodd" clip-rule="evenodd" d="M41.504 6.865c.211-1.85.529-3.7 1.163-5.444.105-.264.158-.528.158-.793-.035-.07-.117-.14-.2-.211a2.107 2.107 0 0 1-.117-.106c-.105-.053-.264-.053-.317.053-.211.37-.37.634-.687.899-1.533 1.162-2.801 2.59-4.017 4.07-.474.566-.94 1.145-1.407 1.727-1.146 1.426-2.3 2.863-3.614 4.14a1.095 1.095 0 0 1-.106.158c-.04.053-.08.106-.106.159l-.158-.317c0-.124.006-.253.011-.382.012-.259.024-.517-.011-.728-.106-1.586.211-3.066.634-4.493.211-.846.634-1.744 1.374-2.326a.786.786 0 0 1 .167-.113.708.708 0 0 0 .256-.204c.159-.211.159-.37.106-.581-.053-.159-.423-.159-.582-.159H28.29c-.317-.106-.687.37-.476.634.846 1.069.867 2.775.884 4.17.003.262.006.512.015.746.117 2.058.153 4.134.19 6.216.028 1.66.057 3.325.127 4.99.029.979.034 2.333.032 3.654-1.111.002-2.558.027-3.414.042-.365.006-.623.01-.702.01-.118 0-.3.01-.504.018-.501.023-1.142.052-1.336-.017-.273-.097-.514-.078-.875 0-.36.078-2.48.111-2.845 0-.364-.111-1.225-.18-1.415 0-.12.114-.051.547.015.968.039.245.077.485.077.657 0 .204-.035.408-.067.593-.04.24-.076.447-.024.582.055.146.233.114.495.067.168-.03.37-.067.599-.067h2.144c.273 0 .614.01.968.02.746.021 1.547.045 1.877-.02.28-.056 3.181-.047 5-.027v.176c0 .185-.035.492-.07.799a8.517 8.517 0 0 0-.072.799 28.308 28.308 0 0 0-.136 2.086c-.01.31-.02.625-.048 1.048-.024.383-.057.709-.088 1.012-.046.458-.087.865-.087 1.342a19.8 19.8 0 0 0-.04 1.062c-.022 1.137-.045 2.322-.647 3.325-.158.37.159.687.582.687h4.334c.898 0 .845-.158.528-1.004-.053-.106-.792-3.541-.845-4.017-.083-.575-.161-1.057-.233-1.494-.204-1.25-.349-2.138-.349-3.822 0-.235-.007-.391-.014-.529-.01-.233-.019-.416.014-.848 0-.388 0-.586.1-.687.103-.106.314-.106.746-.106h3.488c.476 0 1.005 0 1.427.265.476.264.74.105.9-.423.263-.846.739-1.586 1.32-2.273.318-.37.582-.793.846-1.216l.041-.04c.11-.103.258-.243.118-.383-.093-.093-.227-.022-.33.032l-.04.021c-1.269.529-2.643.687-4.017.846-.81.07-1.621.094-2.432.117-.405.012-.81.024-1.215.041-.476.027-.714.04-.833-.072-.119-.113-.119-.35-.119-.826 0-.087-.016-.775-.03-1.39v-.009c-.012-.5-.023-.952-.023-1 .053-.951.212-1.162 1.11-1.215.493-.036.983-.078 1.471-.12 1.66-.14 3.303-.28 4.978-.197l.3.017c.734.04 1.433.08 2.131.405.212.106.476.212.582 0 .01-.043.028-.09.047-.137.07-.184.151-.393-.1-.603-.476-.422-.952-1.004-1.005-1.638-.021-.393-.088-.777-.156-1.163-.095-.55-.192-1.102-.16-1.691 0-1.903.21-3.806.475-5.762Zm-2.938 5.918c.054.566.105 1.11-.233 1.482-.286.286-.761.286-1.256.286-.33 0-.668 0-.964.084-.491.114-.982.092-1.473.07-.196-.008-.392-.017-.589-.017-.528 0-.581-.159-.37-.581 1.375-2.062 2.907-3.964 4.599-5.814l.158-.16c0 .054.014.093.027.133.013.04.026.08.026.132.036.637.024 1.25.012 1.854-.006.3-.012.597-.012.895h.053v.687c-.038.305-.008.63.022.949Z"/><path d="M11.016 8.636h.996c.198 0 .132-.282.035-.695l-.035-.154c-.024-.106-.049-.236-.077-.384-.04-.21-.086-.456-.146-.71a8.113 8.113 0 0 1-.073-.38c-.1-.559-.252-1.415-.583-1.838a18.65 18.65 0 0 1-.672-.969c-.394-.59-.84-1.257-1.181-1.642C8.711 1.222 7.544.536 5.969.318c-1.576-.22-2.933.408-3.545.933-.051.044-.11.092-.173.144C1.54 1.981.109 3.163.002 5.438c-.117 2.48 1.503 3.88 2.086 4.303.584.423 2.714 1.649 3.443 1.81.73.16 5.091.89 5.893.874.708-.012 1.7.088 2.034.122l.096.01c.16.014.365-.073.277-.35-.063-.202-.042-.676-.02-1.16.008-.18.017-.363.02-.533.004-.141.01-.281.018-.414.022-.456.042-.838-.105-.98-.158-.151-.396.005-.572.12-.036.024-.07.047-.1.064-.174.102-.83.19-1.852.204-1.021.015-2.603-.174-3.161-.387-.147-.056-.28-.116-.41-.174-.364-.163-.695-.311-1.186-.311-.664 0-2.127-1.03-2.685-1.51-.558-.478-.77-1.462-.425-2.312.345-.851 1.542-1.436 2.1-1.436.5 0 .958.363 1.487.782l.188.149c.612.478 1.516 1.675 1.758 2.074.168.276.097.856.041 1.304a3.59 3.59 0 0 0-.04.479c.01.276.23.316.452.357.06.01.119.021.174.037.263.073.847.076 1.503.076ZM17.572 13.585c.02.074.038.135.038.212 0 .102-.241.074-.537.04-.17-.019-.358-.04-.528-.04-.296 0-.785.052-1.177.095-.228.024-.423.045-.53.05-.058.003-.11.009-.157.014-.184.018-.275.027-.31-.16-.02-.11.018-.363.065-.662.05-.327.11-.71.11-1.03 0-.195-.025-.683-.057-1.303-.068-1.326-.168-3.252-.118-4.196.073-1.386.19-3.239 1.546-4.245 1.357-1.007 2.203-1.415 4.537-1.328 2.13.08 2.802.828 3.358 1.446.053.06.106.117.158.174.598.641 1.138 2.304 1.138 2.873V8.02c0 .14.033.262.061.368.022.08.041.152.041.215 0 .146-.423.205-.934.103-.389-.078-1.142-.037-1.582-.014-.137.008-.244.014-.3.014-.233 0-.35-.117-.408-.278-.027-.073.005-.177.045-.311.048-.16.109-.362.1-.608-.014-.452-.16-1.91-.7-2.596-.539-.686-1.18-1.08-1.75-1.08-.569 0-1.634.788-1.809 1.328a18.4 18.4 0 0 1-.06.181c-.191.571-.507 1.513-.494 2.678.01.952.006 2.36.002 3.324v.024l-.002.81c0 .571.126.957.19 1.079.015.152.042.248.064.328Z"/><path d="M18.066 9.487c.011.059.025.132.025.254v2.437c0 .255.025.262.165.308l.04.012c.077.026.585.012 1.168-.004.736-.02 1.59-.044 1.851.004.277.052.307.043.36.026a.641.641 0 0 1 .223-.026c.114 0 .245-.009.38-.018.284-.02.585-.04.773.018.19.06.464.038.706.018.11-.009.214-.018.3-.018.065 0 .217-.005.415-.012.657-.024 1.824-.066 1.992.012.22.103.424.03.453-.146.011-.068.002-.429-.008-.857-.016-.659-.037-1.478.008-1.637.073-.263.02-.656-.112-.656-.054 0-.119.022-.194.048a1.152 1.152 0 0 1-.39.083h-2.163c-.726 0-2.535.044-2.929.087-.218.025-.507-.005-.813-.036-.248-.025-.506-.051-.748-.051-.233 0-.5-.05-.745-.094-.322-.06-.608-.112-.732-.037a.425.425 0 0 0-.025.285ZM12.848 14.684c-.09.01-.112.013-.055.382.047.296.036.471.02.708-.009.145-.02.312-.02.543 0 .238-.022.447-.041.62-.03.27-.05.454.041.527.105.083.664.05 1.13.023.202-.012.386-.023.509-.023.118 0 .3-.008.504-.018.5-.022 1.141-.05 1.335.018.274.096.515.078.876 0 .36-.079 2.48-.111 2.844 0 .365.111 1.226.18 1.415 0 .12-.114.052-.547-.014-.968-.039-.245-.077-.485-.077-.657 0-.204.035-.408.066-.594.041-.238.077-.446.025-.581-.055-.146-.233-.114-.495-.067-.168.03-.37.067-.599.067h-2.144c-.273 0-.615-.01-.968-.02-.747-.022-1.548-.045-1.877.02-.388.076-1.749.032-2.38 0a.38.38 0 0 1-.095.02ZM9.21 21.796a1.22 1.22 0 0 1 .254-.025H11.9c.256 0 .264-.025.309-.165l.012-.04c.026-.077.012-.585-.004-1.168-.02-.736-.044-1.59.004-1.851.052-.277.043-.308.026-.36a.641.641 0 0 1-.026-.224c0-.113-.009-.244-.018-.38-.02-.283-.04-.584.018-.772.06-.19.038-.464.018-.706-.009-.11-.018-.214-.018-.3 0-.065-.005-.217-.012-.415-.024-.657-.066-1.825.012-1.993.102-.219.03-.423-.146-.452-.068-.011-.429-.002-.857.008-.659.016-1.478.036-1.637-.008-.263-.073-.656-.02-.656.111 0 .055.022.12.048.195.038.107.083.237.083.39v2.163c0 .726.044 2.535.087 2.929.025.218-.005.507-.036.813-.025.248-.051.506-.051.748 0 .233-.05.5-.094.745-.06.322-.112.607-.037.732.14.052.196.042.285.025Z"/><path d="M13.308 22.29a.738.738 0 0 1 .212-.038c.102 0 .074.241.04.537-.019.17-.04.358-.04.528 0 .296.052.785.095 1.177.024.228.045.423.05.53.004.058.009.11.014.157.018.184.027.275-.16.31-.11.02-.363-.018-.662-.065-.327-.05-.71-.11-1.03-.11-.195 0-.683.025-1.303.057-1.325.068-3.252.167-4.196.118-1.386-.073-3.239-.19-4.245-1.547C1.076 22.588.668 21.742.755 19.407c.08-2.129.828-2.801 1.446-3.357.06-.053.117-.106.174-.158.641-.598 2.304-1.138 2.873-1.138h2.495c.14 0 .262-.033.368-.061a.887.887 0 0 1 .215-.041c.146 0 .205.423.103.934-.078.389-.037 1.142-.014 1.582.008.137.014.244.014.3 0 .233-.117.35-.278.408-.073.026-.177-.005-.311-.045a1.824 1.824 0 0 0-.608-.101c-.452.014-1.91.16-2.596.7-.686.54-1.08 1.182-1.08 1.75 0 .57.788 1.635 1.328 1.81l.181.06c.571.191 1.513.507 2.678.494.952-.01 2.36-.006 3.324-.002h.023l.81.002c.572 0 .958-.127 1.08-.19.152-.015.248-.042.328-.064ZM8.359 28.846v-.996c0-.198-.282-.132-.695-.036l-.154.036c-.106.024-.236.049-.384.077-.21.04-.456.086-.71.146a8.113 8.113 0 0 1-.38.073c-.559.1-1.415.252-1.838.583-.216.17-.575.41-.969.672-.59.394-1.257.84-1.642 1.18-.642.57-1.328 1.737-1.546 3.312-.22 1.576.408 2.932.933 3.545.044.05.091.108.144.172v.001c.586.71 1.768 2.142 4.043 2.249 2.48.117 3.88-1.503 4.303-2.086.423-.584 1.649-2.714 1.81-3.443.16-.73.89-5.091.875-5.894-.013-.707.087-1.7.121-2.033l.01-.096c.014-.16-.073-.365-.35-.277-.202.063-.675.042-1.16.02-.18-.008-.362-.017-.532-.02-.142-.004-.282-.01-.415-.018-.456-.023-.838-.042-.98.105-.151.158.005.396.12.572.025.036.046.07.064.099.102.175.19.831.204 1.853.015 1.02-.174 2.603-.387 3.161-.056.146-.116.28-.174.41-.163.364-.311.695-.311 1.185 0 .665-1.03 2.127-1.51 2.686-.478.558-1.461.77-2.312.425-.851-.346-1.436-1.542-1.436-2.1 0-.5.363-.958.782-1.487l.149-.188c.478-.612 1.675-1.516 2.074-1.758.276-.168.856-.097 1.304-.041.198.024.371.045.479.04.276-.01.316-.23.357-.452.01-.06.022-.119.037-.174.073-.263.076-.847.076-1.503ZM14.407 27.014c.01.09.013.112.382.054.296-.046.471-.035.708-.02.145.01.312.02.543.02.238 0 .447.023.62.042.27.03.454.05.527-.042.083-.104.05-.663.022-1.13-.011-.2-.022-.385-.022-.508 0-.118-.008-.3-.018-.504-.022-.501-.05-1.141.018-1.335.096-.274.078-.515 0-.876-.079-.36-.111-2.48 0-2.844.111-.365.18-1.226 0-1.415-.114-.12-.547-.052-.968.014-.245.039-.485.077-.657.077a3.55 3.55 0 0 1-.594-.067c-.239-.04-.446-.076-.581-.024-.146.055-.114.233-.067.495.03.168.067.37.067.599v2.144c0 .273-.01.614-.02.968-.022.746-.045 1.547.02 1.877.076.388.032 1.749 0 2.38a.385.385 0 0 1 .02.095ZM24.972 13.126c-.01-.09-.013-.112-.382-.055-.296.047-.472.036-.709.02a7.76 7.76 0 0 0-.542-.02c-.239 0-.447-.022-.62-.041-.271-.03-.454-.05-.527.041-.083.104-.05.663-.023 1.13.012.201.023.386.023.509 0 .118.008.3.017.504.023.5.052 1.141-.017 1.335-.097.274-.078.515 0 .876.078.36.111 2.48 0 2.844-.111.365-.18 1.226 0 1.415.114.12.547.052.968-.015.244-.038.485-.076.657-.076.204 0 .408.035.593.067.24.04.447.076.582.024.146-.055.114-.233.067-.495-.03-.168-.067-.371-.067-.599v-2.144c0-.273.01-.615.02-.968.021-.747.045-1.548-.02-1.877-.077-.388-.032-1.749 0-2.38-.014-.037-.017-.07-.02-.095ZM21.768 26.344c0 .077.017.137.038.211.022.08.05.177.064.329.063.121.19.507.19 1.08l-.002.833c-.004.964-.009 2.372.002 3.324.013 1.165-.303 2.107-.494 2.678-.022.065-.043.126-.06.181-.175.54-1.24 1.328-1.81 1.328-.568 0-1.21-.394-1.75-1.08s-.686-2.145-.7-2.597a1.825 1.825 0 0 1 .1-.607c.041-.135.072-.238.046-.312-.059-.16-.175-.277-.409-.277-.055 0-.162.006-.3.013-.439.024-1.192.065-1.582-.013-.51-.102-.933-.044-.933.102 0 .064.019.135.04.216.03.106.062.227.062.368v2.494c0 .57.54 2.232 1.138 2.874l.158.174c.556.618 1.228 1.366 3.357 1.445 2.335.088 3.18-.32 4.537-1.327 1.357-1.007 1.474-2.86 1.547-4.245.05-.944-.05-2.87-.118-4.196a39.872 39.872 0 0 1-.057-1.304c0-.32.06-.703.11-1.03.046-.299.085-.55.065-.662-.035-.187-.126-.178-.31-.159a12.01 12.01 0 0 0-.686.064c-.393.042-.882.095-1.178.095-.17 0-.359-.021-.529-.04-.295-.034-.536-.062-.536.04Z"/><path d="M21.312 30.654a1.221 1.221 0 0 1-.025-.255v-2.436c0-.255-.025-.263-.165-.308l-.04-.013c-.077-.026-.585-.011-1.169.005-.735.02-1.59.044-1.85-.005-.277-.052-.308-.042-.36-.026a.641.641 0 0 1-.224.026c-.113 0-.244.01-.38.019-.283.02-.585.04-.772-.019-.19-.06-.464-.037-.706-.017-.11.009-.214.017-.3.017-.065 0-.217.006-.415.013-.657.024-1.825.066-1.993-.013-.219-.102-.423-.029-.452.146-.011.07-.003.43.008.858.016.659.036 1.477-.008 1.637-.073.262-.02.656.111.656.055 0 .12-.022.195-.049.107-.037.237-.082.39-.082h2.163c.726 0 2.535-.044 2.929-.088.217-.024.507.005.813.037.247.025.506.05.747.05.234 0 .5.05.745.095.323.06.608.112.733.037a.425.425 0 0 0 .025-.285ZM142.236 18.632c.017.059.04.132.04.254v2.437c0 .255.039.263.262.308l.062.012c.123.026.93.012 1.856-.004 1.167-.02 2.524-.044 2.937.005.44.051.488.042.571.025.057-.011.129-.026.355-.026.18 0 .388-.009.603-.018.45-.02.929-.04 1.227.018.302.06.736.038 1.12.018.175-.009.34-.018.478-.018.102 0 .343-.005.657-.012 1.044-.024 2.897-.066 3.163.012.348.103.672.03.718-.145.019-.07.004-.43-.012-.858-.026-.659-.058-1.478.012-1.637.116-.262.032-.656-.176-.656-.087 0-.189.022-.31.048-.17.038-.375.083-.619.083h-3.433c-1.152 0-4.024.044-4.649.087-.345.025-.804-.005-1.291-.036-.393-.025-.804-.051-1.187-.051-.37 0-.793-.05-1.182-.094-.512-.06-.965-.112-1.162-.037-.084.14-.067.196-.04.285Z"/>
</svg>