<svg id="phone" viewBox="0 0 24 24" fill="currentColor" xmlns="http://www.w3.org/2000/svg">
<path fill-rule="evenodd" clip-rule="evenodd" d="M4.89059 3.75C4.25826 3.75 3.74585 4.26242 3.74585 4.89453C3.74585 13.375 10.6208 20.25 19.1013 20.25C19.7334 20.25 20.2458 19.7375 20.2458 19.1052L20.2463 16.354C20.2463 16.3539 20.2463 16.354 20.2463 16.354C20.2463 15.8428 19.9352 15.3833 19.4607 15.1935L16.8243 14.1393C16.3979 13.9688 15.9127 14.0455 15.5602 14.3392L14.8797 14.9066C13.7873 15.817 12.1796 15.745 11.1737 14.7391L9.25774 12.8214C9.25766 12.8213 9.25782 12.8215 9.25774 12.8214C8.25277 11.8162 8.17769 10.2097 9.08863 9.11655L9.65601 8.43616C9.65596 8.43623 9.65607 8.43609 9.65601 8.43616C9.95018 8.08301 10.0274 7.59738 9.85723 7.17183C9.85721 7.17176 9.85726 7.17189 9.85723 7.17183L8.80203 4.53596C8.6122 4.06138 8.15249 3.75 7.64136 3.75H4.89059ZM2.24585 4.89453C2.24585 3.43378 3.43004 2.25 4.89059 2.25H7.64136C8.76578 2.25 9.77692 2.93453 10.1946 3.97848L11.2498 6.61435C11.6252 7.55281 11.4546 8.62097 10.8083 9.39644L10.241 10.0768C10.2409 10.0769 10.241 10.0768 10.241 10.0768C9.82773 10.5729 9.86079 11.3031 10.3184 11.7607L12.2344 13.6785C12.2343 13.6784 12.2345 13.6785 12.2344 13.6785C12.6913 14.1351 13.4222 14.1685 13.919 13.7547C13.9189 13.7548 13.9191 13.7546 13.919 13.7547L14.5994 13.1872C15.3755 12.5405 16.4436 12.3715 17.3812 12.7465C17.3812 12.7465 17.3813 12.7466 17.3812 12.7465L20.0177 13.8007C21.0618 14.2184 21.7463 15.2295 21.7463 16.354L21.7458 19.1052C21.7458 19.1051 21.7458 19.1052 21.7458 19.1052C21.7458 20.5656 20.5621 21.75 19.1013 21.75C9.79242 21.75 2.24585 14.2034 2.24585 4.89453Z"/>
</svg>
