<svg width="98" height="49" fill="none" xmlns="http://www.w3.org/2000/svg"><g clip-path="url(#a)"><path d="M.775 47.911h47.02V.898H.775v47.013ZM96.424.906H50.816V47.92H97.83V.906h-1.405Z" fill="#0055A5"/><path d="M53.635 45.105h41.37V3.727h-41.37v41.378ZM5.08 26.664v9.802h1.616V33.62c.316.275.664.44 1.037.44.534 0 .973-.282 1.317-.844.387-.626.58-1.55.58-2.758 0-.843-.155-1.602-.457-2.248l-.052-.106-.053-.087-.036-.088-.053-.07-.052-.088-.07-.088-.054-.07-.052-.07-.07-.07-.053-.07-.07-.071-.071-.053-.07-.07-.07-.053-.07-.053-.071-.053-.088-.035-.07-.053-.07-.034-.088-.035-.088-.036-.087-.035-.088-.035-.088-.017-.087-.018-.088-.017-.105-.035H7.17l-.105-.017h-.088l-.105-.018H5.08Zm1.528 1.388h.158c.408 0 .724.235.949.685.225.45.334 1.145.334 2.108 0 .52-.064.93-.211 1.212-.14.281-.323.421-.527.421-.197 0-.359-.133-.492-.386-.133-.246-.21-.6-.21-1.072v-2.968ZM43.102 26.188l-.133.133s-3.38 3.527-3.633 3.794v-3.457h-1.58v9.823h1.58v-4.033c.043-.05 2.073-2.2 2.305-2.445.014.358.232 6.478.232 6.478h1.616l-.387-10.294ZM35.394 26.321l-.007.014-.014.007-.014.021-.022.021-.028.028-.028.029-.035.035-.035.035-.042.042-.042.05-.05.049-.049.049-.05.056-.056.056-.062.063-.127.134-.133.14-.14.148-.148.155-.154.161-.162.162-.162.168-.162.176-.33.344-.16.169-.162.162-.155.16-.147.163-.147.148-.134.14-.127.133-.063.063-.056.064-.056.056-.05.056-.048.05-.043.05-.042.041-.042.043-.035.035-.028.028-.028.028-.021.028-.022.014-.014.022V26.66h-1.588v9.823h1.588v-4.034c.042-.048 2.073-2.2 2.304-2.445.014.358.233 6.479.233 6.479h1.608l-.386-10.295-.127.133ZM26.204 34.038l-.098-.12-.085-.118-.084-.134-.07-.133-.07-.141-.064-.14-.063-.148-.05-.148-.041-.161-.043-.154-.035-.17-.028-.168-.021-.176-.015-.176-.007-.182-.007-.183c0-1.033.253-1.855.745-2.46.541-.66 1.328-.99 2.354-.99h.077v-1.714h-.077c-1.602 0-2.832.492-3.668 1.482-.759.893-1.145 2.136-1.145 3.696 0 1.504.422 2.747 1.243 3.682.872.984 2.073 1.49 3.591 1.49h.077V35.05h-.077c-.996 0-1.784-.338-2.339-1.012ZM13.494 26.415c-.85 0-1.528.48-2.02 1.422-.478.928-.72 2.161-.72 3.672 0 1.56.228 2.82.685 3.74.464.942 1.156 1.423 2.055 1.423.92 0 1.648-.509 2.16-1.492.479-.921.721-2.164.721-3.69 0-1.503-.246-2.733-.738-3.653l-.053-.088-.053-.088-.035-.087-.07-.07-.036-.07-.07-.071-.053-.07-.053-.07-.053-.07-.07-.071-.053-.053-.07-.053-.053-.053-.07-.052-.053-.053-.07-.053-.07-.036-.07-.034-.071-.035-.07-.035-.07-.036-.07-.035-.071-.017-.088-.036-.07-.017-.088-.018-.07-.017h-.07l-.088-.018-.088-.017h-.174Zm0 1.58c.45 0 .78.32.984.967.197.582.28 1.433.28 2.53 0 1.06-.097 1.942-.315 2.616l-.035.07-.018.053-.017.053-.018.053-.017.053-.035.053-.017.053-.036.035-.017.053-.036.035-.017.053-.018.035-.034.035-.036.035-.017.035-.035.017-.017.035-.036.035-.035.017-.035.035-.035.018-.036.017-.017.018-.036.017h-.035l-.036.017-.034.018h-.036l-.035.017h-.124c-.386 0-.678-.33-.896-.983-.225-.682-.334-1.557-.334-2.583 0-1.046.11-1.91.334-2.564.205-.625.504-.948.897-.948ZM20.112 34.038l-.042-.056-.05-.063-.091-.12-.077-.133-.078-.133-.07-.141-.063-.14-.056-.148-.057-.148-.042-.161-.042-.154-.028-.17-.028-.168-.021-.176-.014-.176-.014-.182v-.183c0-1.033.245-1.855.745-2.46.534-.66 1.32-.99 2.346-.99h.085v-1.714h-.085c-1.595 0-2.831.492-3.66 1.482-.766.893-1.145 2.136-1.145 3.696 0 1.504.414 2.747 1.243 3.682.864.984 2.073 1.49 3.591 1.49h.077V35.05h-.077c-1.006 0-1.792-.338-2.347-1.012ZM5.096 12.25v9.872h1.82v-8.235h2.248v8.235h1.813V12.25H5.096ZM16.55 11.993c-.962 0-1.735.484-2.283 1.44-.541.935-.808 2.172-.808 3.689 0 1.567.253 2.85.773 3.777.527.949 1.307 1.422 2.319 1.422 1.032 0 1.847-.495 2.423-1.492.542-.928.826-2.182.826-3.707 0-1.518-.295-2.762-.843-3.689l-.053-.087-.053-.088-.052-.088-.07-.07-.054-.088-.07-.07-.053-.07-.07-.07-.07-.07-.053-.053-.07-.07-.07-.054-.07-.052-.071-.053-.088-.053-.07-.036-.07-.052-.07-.036-.088-.035-.07-.035-.088-.035-.088-.036-.07-.017-.088-.036-.088-.017-.087-.018-.088-.017-.088-.017h-.193l-.088-.018h-.105Zm.019 1.669c.491 0 .84.316 1.07.948.212.577.317 1.416.317 2.513 0 1.046-.123 1.921-.369 2.582-.239.646-.569.948-1.018.948h-.159l-.035-.017-.036-.018h-.035l-.036-.017-.034-.017-.036-.018-.035-.017-.036-.018-.035-.035-.035-.018-.035-.035-.036-.017-.017-.035-.036-.035-.035-.036-.018-.035-.035-.035-.035-.053-.018-.036-.035-.035-.018-.053-.034-.053-.018-.035-.017-.07-.036-.053-.017-.053-.018-.053-.035-.053c-.246-.682-.369-1.546-.369-2.565 0-1.046.123-1.9.37-2.547.234-.624.56-.93 1.004-.93ZM29.695 12.25v1.637h1.51v8.235h1.82v-8.235h1.533V12.25h-4.863ZM25.712 15.686h-.99c-.408 0-.717-.09-.907-.274-.14-.126-.204-.302-.204-.527V12.25h-1.82v2.818c0 .646.26 1.201.766 1.637.498.429 1.117.646 1.827.646h1.327v4.77h1.82V12.25h-1.82v3.436ZM36.928 12.259l-.334 9.872h1.81l.175-4.83h2.265l.527 4.83h1.827l-.843-7.22v-.263l-.018-.087v-.088l-.017-.07v-.088l-.017-.07-.018-.088-.017-.07-.018-.07-.017-.07-.018-.07-.035-.071-.017-.07-.018-.07-.035-.07-.036-.054-.035-.07-.017-.053-.036-.07-.035-.053-.053-.053-.036-.07-.035-.036-.053-.07-.035-.035-.053-.053-.053-.053-.053-.035-.035-.053-.07-.053c-.457-.359-1.076-.527-1.862-.527h-2.685Zm1.739 1.633h.65c.47 0 .787.152.983.44.162.238.27.695.334 1.334h-2.02v-.28l.017-.053V14.631l.018-.07v-.511l.017-.035V13.892Z" fill="#fff"/><path d="m65.06 16.094.062.147.078.14.077.148.091.154.05.07.055.078.05.077.056.078.063.077.063.077.063.077.07.078.077.084.078.078.077.084.085.084.091.085.091.084.099.084.105.091.106.085.112.09.112.092.12.098.133.092.127.098.14.091.14.099c.345.239.739.738.444 1.433-.295.703-.843 1.686-.513 2.073.33.386 1.496.583 2.452.204 0 0 .204.604.555.99 0 0-.168.33-.716.161 0 0 .204.5-.078 1.034 0 0-.639-.113-.92-.703 0 0-.254.464-.766.625 0 0-.422-.217-.33-1.06 0 0-.31.751-1.265.878 0 0-.548-.695.169-1.63 0 0-.52.456-1.448.239 0 0-.154-.478.696-1.139 0 0-.955-.042-1.32-.843 0 0 .4-.498 1.39-.386 0 0-.92-.205-1.124-1.3 0 0 .66-.422 1.715.252 0 0-.183-.351-.625-.702-.444-.336-.978-1.313-.788-2.746ZM68.895 27.165l-.028-.035-.02-.035-.028-.035-.021-.036-.022-.035-.021-.035-.02-.028-.022-.034-.021-.036-.02-.035-.015-.035-.021-.035-.014-.028-.022-.035-.014-.035-.014-.036c.169 1.335.225 2.235.942 3.1 0 0 .443-.577.154-1.982a1.463 1.463 0 0 1-.386-.183s.168.57.063 1.145c0 0-.26-.19-.45-1.532ZM67.646 27.02l-.007-.006-.007-.014-.006-.014-.014-.007-.007-.014-.014-.014-.007-.014-.014-.014-.008-.014-.014-.02-.021-.029-.021-.035-.028-.036-.02-.035-.022-.034-.028-.035-.021-.036-.021-.028-.021-.035-.007-.02-.007-.014-.014-.014-.007-.015c-.063.773-.267 2.811.421 3.45 0 0 .464-.344.633-3.316-.099.169-.275.344-.359.443 0 0 .113.941-.225 1.608 0 0-.338-.261-.134-1.687ZM66.022 28.585l.05-.064.048-.077.05-.084.05-.091.041-.092.043-.098.035-.105.042-.106.036-.112.034-.113.029-.112.028-.12.056-.231.02-.113.029-.112.021-.113.014-.105.022-.105.014-.106.014-.098.014-.091.014-.084.007-.078.007-.077.007-.063.007-.029v-.028l.007-.028V25.908l.007-.014v-.056c.077-.05.161-.112.239-.175.035-.029.063-.05.098-.085 0 .077 0 .155.007.232-.084 1.237-.183 2.516-.569 3.155-.38.625-1.075.949-1.075.949-.653-1.167.133-2.727.793-3.815.085-.029.17-.064.253-.106-.239.835-.675 1.826-.492 2.592ZM64.4 25.008v.098l.007.021V25.17l.007.007v.035l.007.014v.021l.007.007v.021l.007.007v.021l.007.007c.007.014.014.05.028.085-.548.527-.956 1.046-1.763 2.17-.815 1.131-2.102 1.174-2.102 1.174.127-.914.373-1.638 1.061-2.41.682-.78 1.567-1.49 2.214-1.96.168.077.386.126.66.09.014 0 .042-.006.064-.006a.98.98 0 0 0-.169.33c-.492.281-1.911 1.005-2.487 2.164 0 .002.899-.28 2.452-1.938ZM63.38 23.877l.056-.105a.572.572 0 0 1 .056-.084c-.534.204-2.417.913-3.028 1.229-.605.316-1.49 1.033-1.968 2.494 0 0 1.272.113 2.326-.758 1.047-.864 2.27-2.08 2.79-2.466a.676.676 0 0 1-.12-.134s-1.42 1.258-2.923 1.8c0 0 .323-.577.914-1.005.724-.515 1.264-.683 1.897-.971ZM62.305 23.007l.006-.014.008-.02.007-.021.007-.015.007-.02.007-.022.007-.007v-.007l.007-.008.007-.014c-.626.134-2.179.316-2.874.528-.696.21-1.947.723-2.691 2.143 0 0 1.096.337 3.155-.632 2.066-.97 2.712-1.174 3.105-1.28a1.435 1.435 0 0 1-.653-.196c-.822.365-1.918.801-3.014.83 0 0 .54-.38 1.103-.62.618-.26 1.292-.491 1.806-.625ZM62.355 21.987l.035.02.035.014.034.014.043.022.034.007.035.014.035.014.036.007.035.014.042.007.036.008.042.007.02.007h.021l.022.008h.041l.029.007h.02l.022.007c-.14.092-.274.211-.4.366-.731.21-1.968.435-4.013.583-2.044.155-3.133-.225-3.133-.225.71-.435 1.847-.878 2.614-1.026.773-.147 2.79-.126 3.667-.253.014.014.127.099.303.204-.752.07-2.333.141-3.155.549 0-.003 1.511.2 3.5-.375ZM62.199 20.81l.02-.014.022-.007.02-.014.021-.007.022-.014.021-.007.02-.014.029-.015.02-.007.022-.014.028-.007.028-.014.021-.014.028-.007.028-.014.028-.007c-1.033-.31-2.452-.815-4.587-.956-1.568-.105-2.706-.014-3.289.14 0 0 1.426 1.006 3.064 1.364 1.63.351 2.957.126 3.92.133.07-.099.14-.197.253-.31-1.13.008-3.021-.28-3.696-.505.001 0 1.645-.35 3.957.31ZM62.2 19.595v.015l.007.006v.014l.007.014v.021l.007.022.007.021.014.028.007.021.014.036.014.028.014.028.014.035.022.036.02.035.021.036.028.035.022.042.028.035.035.035.034.043.036.035.035.042.042.036.042.034.049.036.05.042.056.028.048.036.063.035.064.028c-1.455-.633-4.322-.998-5.853-1.645-2.08-.857-2.46-1.939-2.46-1.939 1.8-.05 3.253.394 4.37.738 1.322.4 3.317 1.145 4.013 1.462-.26.007-.548.077-.787.246-.977-.372-1.434-.534-2.326-.787-.696-.197-1.216-.232-1.651-.274 0 0 .618.407 1.63.73 1.007.32 1.442.376 2.264.531ZM62.087 18.008l.007.007.007.014.007.014.007.007.008.014.006.014.007.015.014.014.007.014.007.014.014.02.007.014.02.036.029.028.02.035.022.028.007.021.014.014.007.014.014.015.007.014.014.014.007.014.008.014.006.007.007.014.008.007.007.014c-2.298-.386-4.828-2.121-5.607-3.204-.78-1.074-.556-2.684-.556-2.684.76.155 2.403 1.574 2.825 2.002.428.422 1.721 1.68 2.614 2.383l.273.8a90.33 90.33 0 0 0-2.234-1.72c-.436-.33-1.089-.787-1.728-1.012 0 0 .59.773 1.075 1.152.555.443 1.117.822 1.58 1.075.417.224.627.357 1.463.758Z" fill="#0055A5"/><path d="m68.565 24.442.014-.014.014-.015.006-.007.014-.014.014-.014.015-.007.007-.014.014-.007.007-.014.014-.014.007-.007.014-.015.007-.007.014-.014.008-.007.014-.014c.105.14.456.583.632 1.026.133.372.275.885.345 1.173.07.302.274.906.407 1.117 0 0-.562.077-.977-.415-.407-.47-.541-.948-.611-1.44a5.526 5.526 0 0 1 .02-1.277ZM67.68 24.516l.013.014.007.014.014.007.007.014.006.014.014.007.007.007.007.014.014.006.007.007.007.008.007.014.014.006.007.008h.006l.008.007.007.007.007.006.007.008h.007v.007h.007l.007.007h.007v.006h.007v.007h.007v.008l.084.035.078-.021c.07-.029.133-.057.19-.077.084.218.112.33.14.527.02.253.077.654-.02.983-.12.401-.36.64-.493.802 0 0-.365-.408-.47-.738a1.882 1.882 0 0 1-.014-1.166c.079-.225.198-.43.296-.548ZM66.422 24.548l.035-.007h.035l.028-.007.035-.007.063-.014.063-.014.064-.021.063-.014.056-.021.056-.021.05-.028.049-.021.056-.028.042-.022.049-.028.042-.028.042-.028.042-.028c.05.126.12.31.07.555a1.404 1.404 0 0 1-.484.738c-.38.302-.879.583-1.44.492 0 0-.126-.415.984-1.448ZM66 23.852l.007.035v.035l.008.029.007.035.006.028.007.028.008.036.007.028.014.028.007.021.007.028.014.028.007.022.014.021.007.02.007.022.014.021.007.021.007.014.014.014.007.021.007.014.008.008.006.014.007.014.008.006.007.008.007.007.006.007v.008h.008v.007c-.134.155-.605.962-1.588.83 0 0-.267-.556.386-.992.442-.305.66-.36.962-.466ZM66.084 23.157l-.049.014-.048.014-.057.007-.056.007-.056.008-.056.007h-.063l-.063.007h-.064l-.07-.007h-.063l-.035-.007h-.035l-.042-.008h-.035l-.035-.007-.035-.007-.035-.008-.042-.007-.035-.007-.042-.014-.112-.02-.036-.113c-.498.415-1.103.484-1.307.857 0 0 .253.464.906.38a2.173 2.173 0 0 0 1.497-.823c.005-.063.033-.182.068-.273ZM64.953 22.585l.014-.028.022-.028.014-.028.014-.035.02-.029.015-.034.02-.036.015-.035.021-.036.02-.042.015-.02.014-.015.007-.021.014-.021.014-.021.014-.014.014-.022.014-.02.022-.021.014-.02.021-.022.014-.014a3.252 3.252 0 0 0-1.328.014c-.604.112-1.222.253-1.532 1.166 0 0 .386.337 1.096.19.59-.12 1.11-.38 1.412-.808ZM64.695 21.58l-.029-.028-.028-.02-.028-.029-.028-.028-.021-.028-.028-.035-.029-.028-.02-.029-.028-.035-.021-.035-.028-.036-.022-.035-.021-.042-.02-.036-.022-.042-.021-.042-.049-.113c-.52-.21-1.068-.323-1.602-.126-.534.204-.674.436-.808.632 0 0 .59.499 1.272.52.681.016 1.306-.181 1.58-.385ZM64.856 20.512l.014-.007.021-.007.014-.007h.021l.014-.007.021-.007.014-.007.022-.008h.021l.021-.007.02-.007h.015l.02-.008.022-.007h.021l.021-.007a1.885 1.885 0 0 1-.57-.984c-.238.056-.814.056-1.06-.035-.253-.099-.745-.106-1.131.154 0 0 .126.668.997.9.823.22 1.125.164 1.462.052ZM64.54 19.199l.112-.078c.014-.007.211-.126.548-.148-.28-.217-.955-.78-1.426-1.04-.513-.287-1.37-.68-1.813-.738 0 0 .415 1.075.885 1.511.5.45.843.62 1.694.493ZM65.417 18.695l-.035-.05-.035-.056-.042-.056-.035-.056-.028-.064-.035-.063-.035-.063-.028-.07-.028-.07-.035-.071-.028-.07-.022-.078-.028-.077-.028-.078-.02-.084-.021-.077c-.106-.366-.33-1.251-.464-1.49-.133-.232-.618-1.033-1.56-1.286 0 0-.246 1.047.225 1.89.406.718 1.242 1.477 2.282 1.969ZM70.653 23.601l.028.022.02.02.022.022.02.014.022.021.021.014.021.022.021.014.022.014.028.021.014.007.014.008.014.007.014.014.014.007.014.008.021.006.014.015.014.007.021.007.021.014.014.007s.302.577-.063 1.265a17.243 17.243 0 0 0-.815 1.799s-.197-.028-.414-1.117c-.148-.73-.33-.92-.527-1.166.21.105.38.133.4.133l.141.035.07-.14c.127-.246.162-.485.162-.682 0-.07 0-.133-.007-.19a.703.703 0 0 0 .59-.246c.007-.014.014-.014.014-.02l.035.038Z" fill="#0055A5"/><path d="M62.643 15.279v.331l.02.26c-.562-.71-1.229-1.567-1.861-2.36-.436-.542-.801-.865-1.216-1.132.351 1.004.97 1.806 1.405 2.2.436.4 1.068 1.074 1.687 1.489l.056.197c.049.19.119.379.217.562.155.253.337.499.562.744a7.858 7.858 0 0 0-.59-.273l-.197-.085c-1.693-.892-3.38-2.76-4.053-4.054-.682-1.3-.401-2.803-.225-3.611.773.654 1.89 1.94 2.368 2.635.597.857 1.356 2.08 1.827 3.07v.027ZM86.44 20.81l-.021-.014-.014-.007-.021-.014-.022-.007-.02-.014-.028-.007-.022-.014-.02-.015-.022-.007-.028-.014-.02-.007-.029-.014-.028-.014-.028-.007-.028-.014-.028-.007c1.04-.31 2.459-.815 4.602-.956 1.567-.105 2.69-.014 3.281.14 0 0-1.433 1.006-3.063 1.364-1.63.351-2.959.126-3.928.133a1.728 1.728 0 0 0-.246-.31c1.13.008 3.014-.28 3.696-.505 0 0-1.645-.35-3.964.31ZM86.448 19.595v.015l-.007.006v.014l-.007.014-.008.021v.022l-.014.021-.006.028-.008.021-.014.036-.014.028-.014.028-.021.035-.014.036-.021.035-.021.036-.028.035-.029.042-.028.035-.028.035-.035.043-.035.035-.042.042-.042.036-.043.034-.042.036-.056.042-.049.028-.056.036-.056.035-.063.028c1.454-.633 4.314-.998 5.86-1.645 2.073-.857 2.452-1.939 2.452-1.939-1.799-.05-3.26.394-4.377.738-1.314.4-3.31 1.145-4.012 1.462.267.007.556.077.794.246.977-.372 1.433-.534 2.319-.787.702-.197 1.215-.232 1.651-.274 0 0-.611.407-1.623.73-1.013.32-1.449.376-2.263.531ZM86.56 18.007v.007l-.008.014-.007.014-.007.008-.014.014-.007.014-.007.014-.007.014-.014.014-.007.014-.02.035-.022.036-.028.028-.021.035-.021.028-.007.021-.014.014-.007.014-.014.015-.007.014-.014.014-.007.014-.007.014-.007.007-.007.014-.014.007-.007.014c2.297-.386 4.827-2.122 5.607-3.204.787-1.074.562-2.684.562-2.684-.759.155-2.403 1.574-2.831 2.002-.422.422-1.715 1.68-2.607 2.383l-.274.8c.759-.61 1.665-1.292 2.227-1.72.442-.33 1.082-.787 1.736-1.012 0 0-.598.773-1.076 1.152-.555.443-1.124.822-1.588 1.075-.408.223-.625.357-1.454.757ZM86.005 15.28v.33l-.021.26c.555-.71 1.222-1.567 1.855-2.36.442-.542.808-.865 1.215-1.132-.344 1.004-.963 1.806-1.398 2.2-.436.4-1.069 1.074-1.687 1.489l-.056.197c-.056.19-.126.379-.225.562a4.71 4.71 0 0 1-.555.744c.176-.09.38-.189.59-.273l.19-.085c1.694-.892 3.38-2.76 4.054-4.053.696-1.3.407-2.804.225-3.612-.773.654-1.883 1.94-2.361 2.635-.597.857-1.356 2.08-1.827 3.07v.027h.001ZM64.812 25.529l-.07.07-.07.07-.078.078-.077.084-.084.084-.085.091-.084.099-.084.098-.091.106-.091.105-.085.112-.09.113-.085.119-.091.126-.084.127-.085.126-.077.134-.077.133-.077.134-.07.14-.07.141-.057.148-.056.14-.056.155-.043.147-.042.148-.028.155-.028.154-.014.155-.007.161-.007.155.015.162s1.363-.43 1.932-1.434c.562-.997.906-1.637 1.145-1.862-.154.021-.309.021-.45 0l-.126-.02c-.351.632-1.04 1.672-1.658 2.03 0 0-.155-.843 1.665-2.543a1.72 1.72 0 0 1 .113-.233 1.46 1.46 0 0 1-.57.085M83.588 16.094l-.07.147-.078.14-.077.148-.091.154-.05.07-.049.078-.056.077-.056.078-.056.077-.064.077-.07.077-.07.078-.07.084-.078.078-.077.084-.085.084-.091.085-.091.084-.099.084-.105.091-.105.085-.112.09-.113.092-.119.098-.126.092-.134.098-.14.091-.14.099c-.352.239-.739.738-.444 1.433.296.703.844 1.686.513 2.073-.33.386-1.504.583-2.46.204 0 0-.203.604-.547.99 0 0 .168.33.716.161 0 0-.204.5.077 1.034 0 0 .64-.113.914-.703 0 0 .253.464.765.625 0 0 .429-.217.331-1.06 0 0 .31.751 1.272.878 0 0 .547-.695-.17-1.63 0 0 .514.456 1.448.239 0 0 .147-.478-.696-1.139 0 0 .956-.042 1.321-.843 0 0-.407-.498-1.398-.386 0 0 .921-.205 1.125-1.3 0 0-.66-.422-1.708.252 0 0 .183-.351.626-.702.435-.336.97-1.313.787-2.746ZM79.752 27.165l.028-.035.021-.035.02-.035.029-.036.021-.035.021-.035.02-.028.022-.034.021-.036.014-.035.022-.035.014-.035.02-.028.014-.035.014-.035.014-.036c-.16 1.335-.218 2.235-.941 3.1 0 0-.436-.577-.155-1.982.127-.036.253-.091.387-.183 0 0-.161.57-.063 1.145 0 0 .26-.19.457-1.532ZM80.995 27.02l.014-.006.007-.014.007-.014.008-.007.014-.014.006-.014.014-.014.008-.014.014-.014.007-.02.028-.029.02-.035.022-.036.028-.035.02-.034.022-.035.02-.036.022-.028.021-.035.014-.02.007-.014.007-.014.007-.015c.063.773.267 2.811-.414 3.45 0 0-.471-.344-.633-3.316.099.169.275.344.352.443 0 0-.113.941.224 1.608 0 0 .345-.261.134-1.687ZM82.625 28.585l-.056-.064-.05-.077-.049-.084-.042-.091-.049-.092-.035-.098-.042-.105-.035-.106-.035-.112-.035-.113-.029-.112-.035-.12-.049-.231-.028-.113-.021-.112-.021-.113-.014-.105-.021-.105-.014-.106-.014-.098-.014-.091-.014-.084-.008-.078-.006-.077-.008-.063-.006-.029v-.028l-.008-.028V25.908l-.006-.014v-.056a1.927 1.927 0 0 1-.24-.175c-.035-.029-.07-.05-.098-.085 0 .077 0 .155-.014.232.091 1.237.19 2.516.577 3.155.379.625 1.075.949 1.075.949.653-1.167-.133-2.727-.801-3.815a1.892 1.892 0 0 1-.246-.106c.23.835.666 1.826.49 2.592ZM84.248 25.008v.098l-.007.021v.042l-.007.007v.028l-.007.007V25.238l-.007.008v.02l-.007.008v.028l-.007.007c-.007.014-.014.05-.028.085.548.527.956 1.046 1.764 2.17.807 1.131 2.1 1.174 2.1 1.174-.126-.914-.379-1.638-1.067-2.41-.682-.78-1.567-1.49-2.207-1.96a1.19 1.19 0 0 1-.66.09c-.028 0-.042-.006-.063-.006.084.112.14.224.169.33.484.281 1.91 1.005 2.487 2.164 0 .002-.9-.28-2.453-1.938ZM85.266 23.877l-.056-.105a.556.556 0 0 0-.056-.084c.527.204 2.41.913 3.021 1.229.612.316 1.49 1.033 1.968 2.494 0 0-1.272.113-2.32-.758-1.046-.864-2.268-2.08-2.796-2.466a.55.55 0 0 0 .127-.134s1.42 1.258 2.923 1.8c0 0-.323-.577-.921-1.005-.717-.515-1.258-.683-1.89-.971ZM86.34 23.006l-.006-.014-.007-.02-.007-.022-.014-.014-.007-.02-.008-.022-.006-.014-.008-.02c.619.133 2.178.315 2.874.527.688.21 1.946.723 2.691 2.143 0 0-1.096.337-3.162-.632-2.058-.97-2.705-1.174-3.098-1.28.316-.02.541-.126.653-.196.823.365 1.918.801 3.015.83 0 0-.541-.38-1.11-.62a13.673 13.673 0 0 0-1.8-.626ZM86.293 21.987l-.035.02-.035.014-.042.014-.036.022-.035.007-.035.014-.035.014-.035.007-.035.014-.042.007-.035.008-.042.007-.043.007-.02.008h-.05l-.02.007h-.022l-.028.007c.14.092.281.211.407.366.724.21 1.961.435 4.005.583 2.045.155 3.134-.225 3.134-.225-.71-.435-1.847-.878-2.614-1.026-.765-.147-2.782-.126-3.667-.253a1.765 1.765 0 0 1-.295.204c.744.07 2.332.141 3.147.549 0-.003-1.504.2-3.492-.375Z" fill="#0055A5"/><path d="m80.074 24.442-.021-.029-.014-.007-.014-.014-.014-.014-.007-.007-.014-.014-.007-.007-.015-.014-.006-.014-.014-.007-.008-.015-.014-.007-.007-.014-.014-.007-.007-.014c-.112.14-.464.583-.64 1.026-.126.372-.274.885-.337 1.173-.077.302-.28.906-.407 1.117 0 0 .555.077.97-.415.407-.47.555-.948.61-1.44.05-.385.036-.919-.02-1.277ZM80.96 24.516l-.007.014-.014.014-.007.007-.007.014-.014.014-.008.007-.006.007-.014.014-.008.006-.006.007-.008.008-.014.014-.006.006-.008.008h-.007l-.007.007-.007.007-.006.006-.008.008h-.007l-.007.007h-.006l-.008.007-.006.006h-.008v.007h-.014v.008l-.07.035-.084-.021c-.064-.029-.127-.057-.19-.077-.078.218-.113.33-.134.527-.028.253-.077.654.021.983.12.401.352.64.485.802 0 0 .372-.408.47-.738a1.83 1.83 0 0 0 .014-1.166 1.581 1.581 0 0 0-.294-.548ZM82.224 24.548l-.035-.007h-.035l-.035-.007-.035-.007-.064-.014-.063-.014-.063-.021-.056-.014-.056-.021-.056-.021-.056-.028-.05-.021-.048-.028-.05-.022-.042-.028-.05-.028-.042-.028-.035-.028c-.048.126-.126.31-.07.555.056.253.232.541.485.738.373.302.878.583 1.433.492 0 0 .133-.415-.977-1.448ZM82.645 23.852l-.007.035-.007.035-.007.029v.035l-.007.028-.007.028-.014.036-.007.028-.007.028-.007.021-.014.028-.007.028-.007.022-.014.021-.008.02-.014.022-.006.021-.008.021-.014.014-.007.014-.007.021-.006.014-.015.008-.007.014-.007.014-.007.006v.008l-.007.007-.007.007v.008h-.007v.007c.127.155.604.962 1.588.83 0 0 .26-.556-.393-.992-.443-.305-.653-.36-.956-.466ZM82.555 23.157l.049.014.056.014.056.007.056.007.056.008.057.007h.063l.063.007h.063l.07-.007h.063l.07-.007.036-.008h.042l.035-.007.035-.007.035-.008.042-.007.035-.007.036-.014.112-.02.042-.113c.499.415 1.103.484 1.307.857 0 0-.253.464-.907.38a2.174 2.174 0 0 1-1.496-.823 2.068 2.068 0 0 0-.076-.273ZM83.693 22.585l-.007-.014-.007-.014-.021-.028-.014-.028-.014-.035-.021-.029-.014-.034-.021-.036-.021-.035-.014-.036-.021-.042-.014-.02-.014-.015-.008-.021-.014-.021-.014-.021-.014-.014-.014-.022-.014-.02-.021-.021-.014-.02-.021-.022-.014-.014a3.25 3.25 0 0 1 1.328.014c.604.112 1.222.253 1.531 1.166 0 0-.393.337-1.096.19-.59-.12-1.117-.38-1.412-.808ZM83.945 21.58l.028-.028.028-.02.029-.029.028-.028.028-.028.028-.035.021-.028.028-.029.021-.035.028-.035.022-.036.02-.035.022-.042.02-.036.021-.042.022-.042.049-.113c.526-.21 1.068-.323 1.602-.126.534.204.674.436.807.632 0 0-.59.499-1.264.52-.682.016-1.314-.181-1.588-.385ZM83.791 20.512l-.035-.014-.02-.007h-.015l-.021-.007-.014-.007-.02-.007-.022-.008h-.021l-.014-.007-.02-.007h-.022l-.021-.008-.021-.007h-.021l-.022-.007c.24-.203.457-.513.57-.984.253.056.815.056 1.068-.035.253-.099.745-.106 1.13.154 0 0-.126.668-1.004.9-.815.22-1.124.164-1.455.052ZM84.101 19.199l-.112-.078c-.014-.007-.211-.126-.542-.148.281-.217.95-.78 1.42-1.04.52-.287 1.377-.68 1.812-.738 0 0-.407 1.075-.885 1.511-.492.45-.836.62-1.693.493ZM83.223 18.695l.042-.05.035-.056.035-.056.036-.056.034-.064.035-.063.036-.063.028-.07.028-.07.035-.071.028-.07.028-.078.02-.077.029-.078.021-.084.028-.077c.091-.366.323-1.251.457-1.49.133-.232.618-1.033 1.56-1.286 0 0 .246 1.047-.225 1.89-.414.718-1.25 1.477-2.29 1.969ZM77.994 23.601l-.028.022-.021.02-.02.022-.022.014-.021.021-.022.014-.02.022-.021.014-.028.014-.028.021-.008.007-.014.008-.014.007-.014.014-.02.007-.015.008-.014.006-.014.015-.02.007-.014.007-.022.014-.02.007s-.296.577.062 1.265c.366.696.675 1.405.822 1.799 0 0 .197-.028.415-1.117.147-.73.337-.92.527-1.166a1.418 1.418 0 0 1-.4.133l-.141.035-.07-.14a1.413 1.413 0 0 1-.155-.872c-.337.014-.527-.161-.59-.246-.007-.014-.007-.014-.022-.02l-.028.038Z" fill="#0055A5"/><path d="m83.833 25.529.07.07.07.07.078.078.076.084.085.084.077.091.091.099.085.098.091.106.085.105.091.112.091.113.085.119.084.126.092.127.077.126.084.134.077.133.077.134.07.14.063.141.064.148.056.14.049.155.049.147.035.148.035.155.028.154.014.155.007.161v.155l-.007.162s-1.37-.43-1.932-1.434c-.562-.997-.907-1.637-1.145-1.862.147.021.302.021.45 0l.126-.02c.352.632 1.033 1.672 1.652 2.03 0 0 .161-.843-1.658-2.543a1.269 1.269 0 0 0-.12-.233c.169.063.359.091.577.085M73.252 11.954v-.014l.007-.014.007-.007.007-.014.014-.007.014-.015.014-.007.02-.014.022-.007.02-.014.029-.008.028-.007.028-.014.035-.007.035-.007.035-.007.036-.008.035-.006.042-.008.042-.007.042-.007.049-.007.042-.007h.049l.05-.008.048-.007H74.107l.05-.007h.161c.59 0 1.068.105 1.068.232 0 .119-.477.225-1.068.225-.588.002-1.066-.103-1.066-.222ZM69.62 13.184v-.007l.006-.007v-.007l.007-.007.007-.007.014-.007h.007l.014-.008.014-.007.014-.007h.014l.021-.007.021-.008.014-.007h.028l.022-.007h.02l.028-.007.029-.007h.02l.028-.008h.063l.029-.007h.063l.035-.007H70.313c.373 0 .689.056.689.126s-.316.12-.689.12c-.385.003-.694-.046-.694-.117ZM74.531 12.442v.05l-.007.007v.014l-.007.008v.014l-.007.007v.007l-.007.008-.007.014-.007.007-.007.007-.007.007-.007.008-.007.007-.007.007-.007.008-.007.007-.007.007h-.007l-.014.007-.008.007h-.006l-.014.007h-.022l-.006.007h-.036a.213.213 0 0 1-.21-.218c0-.105.098-.204.21-.204.12-.004.211.095.211.2ZM73.174 11.725l-.035-.085-.028-.077-.035-.07-.028-.077-.028-.07-.028-.077-.036-.07-.02-.064-.029-.07L72.88 11l-.02-.063-.029-.064-.021-.063-.021-.056-.02-.056-.022-.057-.021-.056-.014-.049-.014-.05-.022-.049-.013-.042-.015-.042-.006-.042-.014-.042-.008-.036-.006-.034-.008-.036-.007-.028-.006-.028v-.07c.007-.127.154-.219.295-.26.147-.043.267-.057.365.013.183.148.358 1.286.415 1.764a1.636 1.636 0 0 0-.493.17ZM73.828 11.54l.014-.008h.049l.035-.007H74.031l.07-.008a13.62 13.62 0 0 0-.309-1.51c-.091-.303-.21-.513-.407-.57 0 0 .154.415.239.844.084.43.14.85.204 1.258ZM72.697 13.06l.042-.007.035-.014.035-.014.035-.014.035-.014.042-.021.035-.014.036-.022.035-.021.028-.02.035-.022.035-.022.028-.02.035-.022.028-.02.028-.029.028-.02.022-.022.028-.021.021-.014.02-.021.022-.02.021-.015.021-.02.014-.015.014-.007.007-.014.014-.014.007-.007h.007v-.007c-.63.092-.793.514-.793.514Z" fill="#0055A5"/><path d="m73.287 13.023-.056.028-.049.021-.05.028-.055.022-.05.021-.049.02-.056.015-.049.02-.05.015-.048.007-.05.014-.049.014-.042.008-.049.006-.042.008-.042.007h-.042l-.035.007h-.035l-.035.007H72.129c.12-.218.232-.421.57-.66.343-.246.899-.31 1.116-.281-.05.167-.275.518-.528.673ZM73.165 13.313c-.407.19-1.672.21-2.354.246h-.439l-.052-.018h-.07l-.053-.017h-.053l-.053-.018-.053-.017h-.053l-.053-.017h-.053l-.052-.018h-.035l-.053-.017-.035-.018h-.034l-.036-.017-.034-.018H69.547l-.018-.017h-.017l-.036-.017h-.017c.078 1.49 1.09 1.58 1.09 1.58-.015-.118 0-.316 0-.316.315.295.966.51.966.51a1.082 1.082 0 0 0-.07-.334c.274.161.438.158.438.158-.028-.211-.158-.457-.158-.457.19.246.422.264.422.264.042-.12-.035-.422-.035-.422.098.12.28.436.843.562.576.12.826-.21.826-.21-.549.035-1.072-.492-1.072-.492.295-.113.404-.316.404-.316-.176-.148-.351-.158-.351-.158.323-.15.403-.406.403-.406Zm-1.932.562v.052s-.878.004-.913.44c-.141-.092-.211-.26-.247-.457 0 0 .627.035 1.16-.035ZM69.304 13.445l.007.064.007.056.007.064.007.056.007.063.014.056.014.056.014.056.014.057.014.056.014.049.021.05.014.049.022.05.02.041.022.042s-.4-.295-.499-.554c-.099-.261-.127-.43.28-.31ZM68.124 13.733a.585.585 0 0 0-.44.246c-.203.302-.129.878.3 1.124 0 0 .642-.559 1.422-.018 0 0 .172-.101.58-.193v-.017h-.018v-.018l-.017-.017-.018-.018h-.017v-.017l-.017-.018-.018-.017-.017-.017-.018-.018-.017-.017h-.019l-.017-.036h-.018l-.017-.035h-.017l-.018-.017-.035-.018-.017-.017-.018-.018-.034-.017-.018-.018-.017-.017-.036-.017h-.019l-.035-.018-.017-.017c-.239-.105-.73-.253-.878-.703-.113-.03-.3-.056-.475-.037Zm.37.597c.09 0 .175.084.175.176v.035h-.017v.035h-.018v.035h-.017v.017H68.6v.017h-.035v.018H68.528l-.017.017h-.018c-.09 0-.158-.084-.158-.176 0-.09.067-.174.158-.174ZM70.076 14.992l.007.007.007.007v.008h.007l.007.014.007.007.014.014.007.021.014.014.014.014.014.021.014.022.022.014.014.021.02.02.015.029.021.02.042.043.035.042.042.05.021.02.021.022.021.021.022.02.02.015.021.021.021.014.021.021s-1.054-.014-1.313.9c0 0-.359-.563-.099-.921.281-.388.548-.443.921-.52Z" fill="#0055A5"/><path d="m71.228 15.214.008.007h.014l.007.007h.021l.014.008.014.007h.014l.02.007.015.007h.021l.014.007.022.008.035.006.035.014.042.007.014.008.021.007.014.007h.02l.015.007.014.008h.014l.014.007h.014l.014.007s0-.196-.007-.287c.106.02.225.056.338.07 0 0 .337.745.604 1.046 0 0 .014.176-.133.422 0 0-.197-.436-.534-.801-.19-.2-.317-.305-.718-.586ZM70.336 15.055h.007l.014.007h.021l.014.007.022.007.02.007.028.008.022.006.028.014.028.007.028.008.035.014.029.007.034.014.029.014.034.014.07.028.07.028.071.028.063.028.035.022.035.014.029.014.034.02.029.015.028.014.028.02.02.015c.331.239.556.506.52.976 0 0-.26-.372-.555-.54-.23-.128-.652-.493-.87-.816ZM70.344 11.64h.021l.008.008h.034l.015.007h.021l.014.008h.014l.007.007h.014l.014.007.014.008.007.006.014.007.007.008.014.007.007.008.014.007.007.007.007.007.007.014.007.008.007.014.007.006v.015l.007.007v.022l.007.007v.022c0 .161-.253.548-.323.717-.07-.169-.316-.555-.316-.717 0-.162.19-.21.288-.21h.056v-.006ZM70.125 12.898l-.007-.028-.007-.021v-.028l-.007-.028-.007-.028-.007-.029-.007-.035v-.028l-.007-.036-.007-.034-.014-.07-.021-.07-.014-.078-.014-.07-.014-.035-.007-.036-.007-.028-.014-.035-.007-.029-.014-.028-.007-.028-.014-.028-.014-.028-.007-.02-.014-.022-.014-.021-.014-.015-.008-.014a.626.626 0 0 0-.428-.126c-.098.007-.204.106-.161.239.042.133.478.787.534.864.097-.013.076-.013.33-.027ZM70.504 12.898l.007-.028.007-.021v-.028l.007-.028.007-.028.007-.029.007-.035.007-.028.007-.036.007-.034.014-.07.014-.07.014-.078.021-.07.007-.035.007-.036.014-.028.007-.035.014-.029.007-.028.014-.028.007-.028.014-.028.007-.02.014-.022.014-.021.014-.015.008-.014c.14-.12.33-.133.428-.126a.186.186 0 0 1 .161.239c-.042.133-.478.787-.534.864-.097-.013-.083-.013-.33-.027ZM70.786 10.857h-.337v-.373h-.274v.373h-.337v.239h.337v.435h.274v-.435h.337v-.239ZM66.689 13.267v-.105l.007-.028v-.049l.006-.015v-.014a1.78 1.78 0 0 0 .008-.47c-.247.092-.415.155-.745.695 0 0 .534-.33.724-.014ZM67.154 14.132v-.014l.007-.021v-.05l.007-.02v-.021l.007-.028.007-.021v-.028l.007-.021.007-.029v-.028l.007-.028.007-.035.008-.028.014-.056.014-.064.02-.064.014-.063.022-.063.02-.064.022-.063.007-.028.014-.028c.14-.365.049-.9-.113-1.215-.154-.316-.246-.612-.218-.935 0 0-.316.106-.498.218-.028.38.19.752.295.963.12.253.098.576.07.78-.042.345.028.71.253 1.054ZM67.189 11.252v-.021h-.007V11.116l.007-.007v-.036l.007-.007v-.014l.006-.007s.499-.485.914-.57a.59.59 0 0 1 .513.127s-.155-.014-.373.169c-.225.176-.499.4-.717.457-.202.053-.252.038-.35.024ZM68.664 10.648l.035.036.035.035.036.035.028.036.035.035.028.035.007.014.014.021.014.014.014.021.007.021.014.014.007.022.014.014.007.014.007.021.007.014.008.021.006.014.008.021.006.014v.021l.008.014V11.206c-.008.176-.211.625-.324.794-.105.168-.26.393-.246.66.008.14.105.281.218.394 0 0-.611-.148-.681-.52-.07-.338.07-.576.169-.766.09-.176.379-.583.442-.752.07-.156.098-.282.077-.367ZM72.232 14.898l.022.077.028.085.028.077.028.077.028.077.036.078.034.078.035.07.036.07.035.077.035.07.035.064.042.07.035.064.035.063.042.056c.183.288.295.766.281.927 0 0 .274-.611.134-1.04-.105-.337-.407-.829-.949-1.04ZM72.914 15.04h.056l.014.006H73.062l.02.008H73.125l.029.007h.02l.029.007h.021l.028.008.028.006.021.008.028.007h.021l.028.014.022.007.028.007.02.007.022.014.02.008.021.014.022.007c.253.169.492.527.583.963 0 0-.429-.07-.632-.281-.21-.207-.464-.523-.569-.818ZM70.751 15.797h-.042l-.014.007h-.021l-.014.007h-.028l-.014.007-.028.007-.028.007h-.028l-.028.008-.028.007-.029.007-.014.008h-.014l-.014.007h-.014l-.007.007h-.028l-.006.007s.358.106.534.247c.147.126.28.323.344.646.091.457.358.948.435 1.096l.036-.007c-.057-.316.14-.962.196-1.053 0 0-.288-.183-.414-.366-.1-.137-.261-.361-.732-.65ZM72.605 16.773l.014.022.007.021.014.028.014.028.014.022.007.028.014.035.021.028.014.029.014.035.029.063.028.064.007.035.014.035.014.042.007.036.014.035.007.035.007.042.007.036.007.042.007.042V17.675l-.007.042v.036l-.007.042-.007.042-.014.042c-.127.442-.408.633-.59 1.005 0 0-.14-.675-.113-1.195.035-.529.225-.726.457-.916ZM73.413 16.781v.008l.007.007v.007l.007.008v.006l.007.008.007.006v.014l.007.014.014.021.014.028.014.036.02.035.015.035.021.042.02.035.022.043.014.049.021.042.021.042.028.05.043.098.035.091.02.05.022.041.021.043.014.049.014.042.014.036.014.042.014.035.007.036.014.028c.07.316 0 .52-.14.71-.141.19-.38.4-.605.793 0 0-.253-.337-.288-.512-.028-.183.021-.605.078-.78.056-.177.274-.754.464-1.338ZM73.623 19.367l-.007.008h-.007v.006l-.007.008-.007.007-.007.014-.021.014-.014.02-.02.022-.022.028-.021.022-.02.028-.022.028-.028.035-.029.028-.02.035-.028.028-.057.07-.049.063-.028.036-.021.035-.028.036-.02.028-.022.035-.021.028-.02.028-.022.028-.021.028-.014.028-.014.021-.007.02-.007.015-.007.007v.008l-.007.007c-.063.176-.176.492-.028.716.161.225.498.584.8.739 0 0-.323-.513-.294-.935.02-.274.231-.513.273-.675.035-.163.007-.444-.106-.697ZM72.668 19.04l.007.006.007.014.007.008.007.014.014.014.007.014.007.014.007.014.007.021.014.014.007.022.007.014.007.021.007.014.021.042.014.042.014.043.015.042.014.042.014.042v.028l.006.022.008.02v.05l.006.021c.014.24-.02.436-.154.794-.162.442-.422.942-.541 1.166 0 0-.233-.33-.36-.618 0 0 .36-.492.507-.836.184-.41.254-.789.324-1.105ZM72.507 18.844v.006l-.007.008v.042l-.007.029-.007.028-.007.042-.007.042-.014.05-.007.048-.014.057-.014.063-.021.063-.014.064-.022.07-.02.077-.029.07-.02.077-.029.085-.035.076-.028.085-.035.084-.035.084-.042.085-.043.084-.049.084-.042.085-.056.09-.05.085-.056.077-.056.084-.063.085c-.457.576-.83.78-1.075.78-.373 0-.745-.316-.871-.668-.127-.351-.085-.906.154-1.096 0 0 .225.689.696.717.54.028 1.23-.576 1.925-1.742Z" fill="#0055A5"/><path d="m71.951 18.367.007.021v.021l.007.022v.02l.014.043.007.05v.048l.007.05.007.049v.162l-.007.056-.007.056v.056l-.014.057-.007.056-.014.056c-.056.225-.197.52-.456.689-.233.14-.767.176-.977-.338 0 0 .983.077 1.433-1.174ZM73.562 23l.014.028.014.036.02.035.015.035.021.035.02.036.029.035.02.035.05.07.05.071.055.07.05.07.049.07.028.029.02.035.021.035.022.035.02.029.022.034.014.029.014.035.014.028.014.028.007.028.008.028v.029l.007.02c-.015.718-.331 1.153-.4 1.392 0 0-.57-.456-.668-.976-.056-.27 0-1.07.45-1.464ZM72.922 23.511l.008-.02.006-.022.008-.02.014-.022.007-.028.014-.02.007-.029.014-.028.014-.028.014-.035.014-.028.014-.028.028-.064.036-.063.034-.07.035-.063.022-.029.014-.028.02-.028.022-.028.02-.028.021-.028.022-.028.02-.021.022-.022.02-.02.022-.022.021-.021s.316-.914-.681-1.476c0 0-.415.541-.52 1.061-.113.513.435.823.688 1.286ZM71.67 21.188l-.035.042-.035.035-.028.042-.035.042-.035.035-.035.042-.042.043-.035.035-.035.035-.035.043-.022.014-.02.014-.015.021-.02.014-.015.014-.02.014-.015.014-.02.008-.015.014-.02.014-.015.006-.02.008s-.064.407-.022.681c.05.4.309.815.421 1.124 0 0 .436-.576.485-.913.05-.338.042-.611.056-.773 0-.001-.239-.395-.373-.669ZM70.511 23.159l-.014-.021-.014-.022-.014-.028-.014-.021-.021-.035-.014-.029-.021-.035-.022-.035-.02-.042-.022-.035-.02-.043-.021-.05-.022-.041-.02-.05-.029-.042-.021-.049-.042-.098-.042-.105-.036-.106-.014-.049-.02-.05-.015-.055-.014-.05-.007-.049-.014-.056-.007-.05-.008-.049v-.049l-.006-.05s.498.268.913.07c0 0 .05.661-.028.88-.063.183-.147.289-.35.444ZM70.623 23.3l.014-.008.007-.007.007-.014.014-.007.007-.007.015-.008.007-.014.014-.007.014-.014.007-.007.028-.028.021-.022.028-.028.028-.021.021-.028.028-.022.014-.014.007-.006.014-.015.014-.014.007-.007.007-.014.014-.007.008-.014.006-.008.008-.014s.33.605.386.78c0 0-.161.036-.344-.09a2.299 2.299 0 0 1-.401-.336ZM72.15 22.938l-.007.007v.007l-.007.014v.008l-.007.014-.008.007-.006.014-.007.014-.015.028-.014.028-.021.035-.02.028-.022.035-.02.043-.029.035-.021.042-.028.036-.029.042-.056.077-.056.085-.028.035-.028.042-.021.035-.028.036-.028.035-.022.035-.02.029-.029.028-.014.028-.02.02-.008.008-.006.014-.008.007-.007.008-.007.007-.007.007-.007.007-.007.007s.043.267.24.647c.196.386.47.653.618.787 0 0 .323-.57.421-.816.113-.287.099-.576.05-.681-.113-.25-.493-.608-.661-.924ZM72.943 24.867l.006.028.014.021.015.028.014.021.02.029.014.028.022.021.014.028.02.028.022.036.042.056.035.063.043.056.042.063.042.063.035.063.014.035.021.029.014.034.014.028.014.029.014.035.008.028.007.035.014.028v.028c.042.24.007.436-.057.604-.07.162-.28.485-.421.731 0 0-.485-.456-.59-.78a1.168 1.168 0 0 1 .07-.815c.112-.218.365-.45.478-.68ZM71.573 24.805l.014.028.014.028.014.02.014.029.014.028.014.021.035.05.035.055.035.05.042.05.035.048.036.05.034.049.035.049.014.02.014.028.015.022.014.028.014.02.014.021.007.029.014.02.007.022.007.028c.077.275.105.457-.028.787-.127.288-.267.457-.317.633 0 0-.393-.506-.463-.717-.063-.218-.085-.562-.007-.78.085-.224.226-.513.324-.716ZM73.506 26.742v.007h-.008v.007l-.006.007-.008.007-.006.007-.007.007-.008.014-.006.007-.014.014-.008.014-.014.014-.02.028-.022.036-.028.035-.028.035-.028.042-.028.042-.036.043-.028.049-.035.049-.028.049-.035.05-.028.048-.028.056-.028.05-.028.049-.028.056-.02.049-.022.049-.021.056-.014.05-.022.048-.006.043-.008.048-.006.021v.063c.02.542.38.893.428 1.23 0 0 .359-.4.492-.667.147-.309.267-.562.225-.906-.043-.344-.134-.562-.485-.906ZM72.261 26.656l.007.014.014.022.014.021.014.02.014.022.014.028.014.028.014.028.022.028.014.028.014.035.02.028.015.035.014.035.028.07.014.043.014.035.014.036.014.035.007.042.014.034.007.036.007.035.007.042.007.035v.133l-.007.035-.007.029c-.084.316-.422.758-.534.955 0 0-.267-.548-.323-.801-.056-.252-.007-.66.534-1.166ZM79.021 13.184v-.007l-.007-.007v-.007l-.007-.007-.007-.007-.007-.007h-.014l-.014-.008-.014-.007-.014-.007h-.014l-.022-.007-.014-.008-.02-.007h-.021l-.028-.007h-.022l-.028-.007-.02-.007h-.029l-.028-.008h-.056l-.035-.007h-.063l-.029-.007H78.334c-.38 0-.689.056-.689.126s.31.12.69.12c.378.003.687-.046.687-.117ZM74.326 11.066l.006-.028.008-.036.007-.035.007-.036.014-.035.014-.035.014-.042.014-.042.014-.042.014-.043.035-.084.035-.091.035-.092.035-.084.035-.091.014-.043.021-.042.014-.042.008-.042.014-.036.014-.042.006-.035.007-.036.008-.035.006-.035v-.056a.408.408 0 0 0-.815 0c0 .288.358.948.4 1.257h.016v.003ZM75.465 11.725l.035-.085.036-.077.028-.07.035-.077.028-.07.028-.077.028-.07.029-.064.028-.07.021-.064.028-.063.021-.064.028-.063.021-.056.021-.056.022-.057.014-.056.021-.049.014-.05.014-.049.014-.042.014-.042.014-.042.007-.042.014-.036.007-.034.007-.036v-.028l.007-.028v-.07c0-.127-.154-.219-.288-.26-.154-.043-.274-.057-.373.013-.182.148-.35 1.286-.421 1.764.183.036.295.064.498.17ZM74.819 11.54l-.022-.008h-.049l-.035-.007H74.608l-.035-.008h-.028c.056-.456.21-1.208.302-1.51.099-.303.211-.513.408-.57 0 0-.147.415-.232.844-.085.43-.148.85-.204 1.258ZM75.148 12.547h.008v.007h.006v.007h.008l.007.014.014.014.014.007.014.014.02.021.015.014.02.021.022.02.028.015.021.021.028.021.028.021.029.029.028.02.035.022.028.02.035.022.028.021.035.021.035.021.035.022.036.014.034.021.035.014.043.014.035.014.035.014.035.008c0-.002-.161-.423-.794-.514Z" fill="#0055A5"/><path d="M74.826 12.351H74.868l.028-.007h.085l.028.007h.07l.035.007h.035l.035.008.035.007h.042l.035.007.042.007.036.014.042.007.042.008.035.014.043.014.042.007.035.014.042.014.042.014.035.021.035.014.042.021.036.021.035.014.028.029.034.02c.345.24.458.443.577.66 0 0-.619.05-1.16-.266-.26-.156-.484-.507-.533-.676ZM75.484 13.313s.07.256.387.404c0 0-.172.01-.334.158 0 0 .105.203.386.316 0 0-.517.527-1.071.491 0 0 .256.33.825.211.57-.126.738-.443.843-.562 0 0-.07.302-.035.422 0 0 .242-.018.44-.264 0 0-.148.246-.177.456 0 0 .158.004.44-.158 0 0-.064.152-.071.334 0 0 .66-.214.983-.509V14.84l-.017.018v.069s1.012-.091 1.089-1.58c0 0-.664.245-1.352.21-.674-.033-1.935-.054-2.335-.243Zm1.915.562c.534.07 1.177.035 1.177.035v.035h-.017v.035l-.018.036v.035l-.017.018v.034l-.018.018v.035h-.017v.017l-.017.018v.017l-.018.017-.017.018v.017h-.018l-.017.018v.017h-.02l-.017.018v.017h-.017l-.017.017-.018.018c-.035-.436-.913-.44-.913-.44v-.05h-.001ZM79.343 13.445l-.008.064-.006.056-.008.064-.007.056-.014.063-.007.056-.014.056-.014.056-.014.057-.014.056-.02.049-.015.05-.02.049-.015.05-.021.041-.021.042s.4-.295.499-.554c.098-.261.12-.43-.281-.31ZM80.192 13.734l-.035.018h-.035l-.035.017h-.035c-.148.45-.65.598-.896.703-.26.126-.51.421-.51.421.408.092.598.194.598.194.78-.54 1.423.017 1.423.017.421-.246.509-.822.298-1.124l-.035-.035-.017-.035-.017-.018-.036-.017-.017-.018-.035-.017-.018-.017-.035-.018-.034-.017-.018-.018h-.035l-.035-.017h-.035l-.017-.018H80.192Zm-.053.597H80.192v.018h.035v.017h.017l.017.018v.017h.018v.017h.017v.07l.018.018a.184.184 0 0 1-.176.175c-.091 0-.158-.084-.158-.175.001-.09.068-.175.16-.175ZM78.571 14.992h-.007V15h-.007v.007l-.007.008-.007.014-.014.007-.007.014-.014.021-.014.014-.007.014-.02.021-.015.022-.014.014-.021.021-.014.02-.021.029-.014.02-.042.043-.042.042-.035.05-.022.02-.02.022-.022.021-.02.02-.021.015-.022.021-.02.014-.022.021s1.047-.014 1.314.9c0 0 .359-.563.099-.921-.282-.388-.549-.443-.922-.52Z" fill="#0055A5"/><path d="M77.418 15.214h-.007v.007h-.022v.007h-.028l-.007.008-.013.007h-.022l-.014.007-.014.007h-.021l-.014.007-.021.008-.036.006-.042.014-.035.007-.02.008-.014.007-.022.007h-.014l-.02.007-.015.008h-.014l-.014.007h-.014l-.007.007s-.007-.196.007-.287c-.105.02-.232.056-.344.07 0 0-.33.745-.597 1.046 0 0-.015.176.133.422 0 0 .19-.436.534-.801.19-.2.316-.305.717-.586ZM78.31 15.055h-.013l-.014.007h-.014l-.021.007-.022.007-.02.007-.022.008-.028.006-.028.014-.028.007-.028.008-.028.014-.036.007-.028.014-.035.014-.035.014-.07.028-.07.028-.063.028-.07.028-.036.022-.028.014-.035.014-.028.02-.028.015-.028.014-.028.02-.022.015c-.33.239-.555.506-.526.976 0 0 .266-.372.562-.54.231-.128.653-.493.87-.816ZM78.303 11.64h-.021l-.007.008H78.239l-.014.007h-.02l-.014.008h-.015l-.006.007h-.014l-.014.007-.014.008-.008.006-.014.007-.007.008-.014.007-.007.008-.014.007-.007.007-.007.007-.007.014-.007.008-.007.014-.007.006v.015l-.007.007v.022l-.007.007v.022c0 .161.253.548.323.717.07-.169.316-.555.316-.717 0-.162-.19-.21-.295-.21h-.05v-.006ZM78.522 12.898l.006-.028v-.021l.007-.028.007-.028v-.028l.007-.029.007-.035.007-.028.007-.036.007-.034.014-.07.014-.07.014-.078.022-.07.006-.035.014-.036.008-.028.007-.035.014-.029.007-.028.014-.028.014-.028.007-.028.014-.02.014-.022.007-.021.014-.015.014-.014c.133-.12.33-.133.43-.126a.186.186 0 0 1 .16.239c-.042.133-.477.787-.534.864-.098-.013-.084-.013-.33-.027ZM78.136 12.898v-.028l-.007-.021-.007-.028-.007-.028v-.028l-.007-.029-.007-.035-.007-.028-.007-.036-.008-.034-.013-.07-.015-.07-.02-.078-.014-.07-.014-.035-.007-.036-.007-.028-.015-.035-.006-.029-.014-.028-.008-.028-.014-.028-.014-.028-.007-.02-.014-.022-.014-.021-.007-.015-.014-.014c-.133-.12-.323-.133-.428-.126a.183.183 0 0 0-.155.239c.035.133.47.787.534.864.098-.013.077-.013.323-.027ZM77.861 10.857h.33v-.373h.281v.373h.338v.239h-.338v.435h-.28v-.435h-.33v-.239ZM73.793 8.646h.344v-.373h.267v.373h.345v.238h-.344v.436h-.267v-.436h-.345v-.238ZM81.958 13.267v-.049l-.007-.028v-.084l-.007-.007v-.043a1.557 1.557 0 0 1-.014-.47c.246.092.415.155.745.695 0 0-.534-.33-.717-.014Z" fill="#0055A5"/><path d="m81.493 14.132-.007-.014v-.049l-.006-.022v-.02l-.008-.021v-.028l-.006-.021v-.028l-.008-.021-.007-.029-.007-.028-.007-.028-.007-.035-.007-.028-.014-.056-.014-.064-.014-.064-.021-.063-.014-.063-.021-.064-.02-.063-.008-.028-.014-.028c-.133-.365-.056-.9.105-1.215.161-.316.253-.612.218-.935 0 0 .323.106.499.218.028.38-.19.752-.288.963-.127.253-.106.576-.07.78.041.345-.03.71-.254 1.054ZM81.459 11.252V11.11l-.007-.007v-.036l-.007-.007v-.014s-.506-.485-.921-.57a.55.55 0 0 0-.499.127s.14-.014.366.169c.225.176.498.4.71.457.21.053.252.038.358.024ZM79.976 10.648l-.035.036-.035.035-.028.035-.035.036-.028.035-.028.035-.015.014-.014.021-.014.014-.007.021-.014.021-.014.014-.007.022-.007.014-.014.014-.007.021-.007.014-.008.021-.006.014v.021l-.008.014-.006.021v.064c0 .176.21.625.316.794.105.168.274.393.252.66-.013.14-.105.281-.218.394 0 0 .612-.148.682-.52.07-.338-.077-.576-.176-.766-.091-.176-.372-.583-.443-.752-.062-.156-.097-.282-.076-.367ZM76.414 14.898l-.028.077-.028.085-.021.077-.035.077-.028.077-.028.078-.035.078-.036.07-.034.07-.036.077-.035.07-.042.064-.035.07-.035.064-.042.063-.035.056c-.19.288-.31.766-.281.927 0 0-.281-.611-.14-1.04.111-.337.406-.829.954-1.04ZM75.725 15.04h-.049l-.014.006h-.077l-.022.008h-.049l-.02.007h-.028l-.022.007h-.028l-.02.008-.029.006-.028.008-.02.007h-.029l-.028.014-.021.007-.021.007-.028.007-.021.014-.021.008-.021.014-.022.007c-.246.169-.491.527-.576.963 0 0 .422-.07.633-.281.203-.207.463-.523.561-.818ZM77.896 15.797h.048l.008.007h.021l.014.007h.028l.014.007h.014l.014.007.028.007h.028l.028.008.028.007.028.007.014.008h.014l.015.007h.014l.007.007h.021l.014.007s-.358.106-.542.247c-.147.126-.28.323-.337.646-.09.457-.358.948-.442 1.096l-.028-.007c.049-.316-.148-.962-.197-1.053 0 0 .281-.183.414-.366.093-.137.261-.361.732-.65ZM76.042 16.773l-.014.022-.007.021-.014.028-.014.028-.014.022-.014.028-.014.035-.014.028-.014.029-.014.035-.029.063-.028.064-.014.035-.014.035-.014.042-.007.036-.014.035-.007.035-.007.042-.007.036-.007.042-.007.042V17.753l.007.042.014.042.007.042c.133.442.422.633.604 1.005 0 0 .14-.675.105-1.195-.028-.529-.217-.726-.45-.916ZM74.326 17.999v-.022l.007-.028.014-.028.007-.035.02-.028.015-.036.02-.035.022-.035.021-.043.02-.035.029-.042.028-.042.028-.042.021-.042.056-.084.056-.085.029-.042.028-.05.02-.042.029-.042.02-.042.022-.042.02-.042.014-.035.015-.042.014-.036.007-.042.007-.035v-.063c-.035-.337-.478-.576-.59-.626h-.007c-.113.05-.562.289-.59.626-.029.337.569.962.583 1.215h.015V18ZM75.233 16.781l-.007.008v.014l-.007.008-.007.006v.008l-.007.006-.007.014-.007.014-.007.021-.014.028-.021.036-.014.035-.021.035-.014.042-.022.035-.02.043-.022.049-.02.042-.021.042-.022.05-.042.098-.042.091-.02.05-.015.041-.02.043-.015.049-.021.042-.014.036-.014.042-.007.035-.014.036-.007.028c-.07.316-.007.52.133.71.148.19.387.4.605.793 0 0 .26-.337.287-.512a2.26 2.26 0 0 0-.076-.78c-.05-.178-.269-.754-.458-1.338ZM74.327 19.91l.035-.036.036-.035.034-.035.028-.036.036-.035.028-.036.035-.035.028-.042.02-.035.029-.035.007-.021.014-.014.014-.022.007-.014.007-.02.014-.014.007-.015.006-.02.008-.015.006-.014.008-.014.007-.014c.049-.148.063-.359-.064-.52-.147-.19-.337-.408-.35-.583h-.015c-.007.176-.197.393-.351.583-.127.161-.113.372-.056.52.056.14.224.387.415.555h.007v.001ZM75.023 19.367l.007.008.007.006.007.008.007.007.007.014.014.014.014.02.02.022.022.028.02.022.022.028.028.028.021.035.028.028.028.035.021.028.056.07.05.063.028.036.028.035.021.036.021.028.028.035.022.028.02.028.015.028.02.028.014.028.014.021.014.02.008.015v.007l.007.008v.007c.07.176.175.492.028.716-.148.225-.499.584-.801.739 0 0 .33-.513.295-.935-.022-.274-.225-.513-.267-.675-.042-.163-.014-.444.106-.697ZM75.971 19.04l-.007.006-.007.014-.007.008-.007.014-.007.014-.014.014-.007.014-.007.014-.007.021-.007.014-.014.022-.007.014-.007.021-.007.014-.021.042-.014.042-.014.043-.014.042-.014.042-.014.042-.007.028v.022l-.007.02v.022l-.007.028v.021c-.014.24.028.436.161.794.161.442.414.942.541 1.166 0 0 .225-.33.352-.618 0 0-.359-.492-.513-.836-.176-.41-.247-.789-.317-1.105ZM76.139 18.844v.014l.006.021v.021l.008.029.006.028.008.042.007.042.007.05.014.048.014.057.014.063.014.063.02.064.022.07.021.077.02.07.029.077.028.085.028.076.035.085.035.084.035.084.042.085.042.084.043.084.049.085.05.09.055.085.056.077.057.084.063.085c.457.576.829.78 1.075.78.372 0 .745-.316.871-.668.12-.351.085-.906-.154-1.096 0 0-.225.689-.703.717-.533.028-1.229-.576-1.917-1.742Z" fill="#0055A5"/><path d="m76.694 18.367-.007.021-.007.021v.022l-.007.02-.007.022v.021l-.007.05-.007.049-.008.05v.267l.008.056.007.056.007.056.014.056.014.057c.056.225.19.52.456.688.225.14.766.176.97-.337 0-.002-.984.076-1.426-1.175ZM74.32 21.777l.028-.014.02-.014.029-.007.02-.014.029-.014.021-.014.014-.007.014-.014.014-.008.007-.007.014-.014.015-.007.014-.015.014-.007.014-.014.014-.014.007-.014.014-.014.014-.014.014-.02.014-.015.014-.021.014-.014.014-.021.014-.021.02-.029c.12-.189.24-.54.176-.793-.084-.31-.26-.436-.358-.633-.077.077-.126.134-.232.197h-.007c-.098-.063-.154-.12-.239-.197-.105.197-.267.324-.351.633-.063.253.05.604.176.793.154.255.274.297.415.367ZM74.32 23.709l.008-.028.014-.028.014-.036.014-.035.02-.036.022-.035.02-.035.029-.035.028-.043.028-.042.028-.035.028-.042.056-.084.063-.085.057-.084.028-.042.028-.043.028-.042.02-.035.022-.042.02-.042.022-.035.014-.042.014-.036.014-.035.007-.035v-.092c-.09-.484-.4-.386-.64-.583h-.006c-.24.197-.556.098-.64.583-.062.312.57.902.64 1.204ZM75.078 23l-.007.028-.02.036-.014.035-.021.035-.021.035-.022.036-.02.035-.022.035-.049.07-.056.071-.049.07-.056.07-.049.07-.021.029-.028.035-.021.035-.021.035-.021.029-.014.034-.021.029-.014.035-.014.028-.007.028-.007.028-.008.028-.006.029v.02c.014.718.323 1.153.393 1.392 0 0 .576-.456.675-.976.054-.27-.01-1.07-.459-1.464ZM75.726 23.511l-.008-.02-.006-.022-.008-.02-.014-.022-.007-.028-.014-.02-.007-.029-.014-.028-.014-.028-.014-.035-.014-.028-.014-.028-.028-.064-.035-.063-.035-.07-.035-.063-.021-.029-.022-.028-.02-.028-.021-.028-.021-.028-.021-.028-.022-.028-.02-.021-.022-.022-.02-.02-.021-.022-.028-.021s-.31-.914.688-1.476c0 0 .414.541.527 1.061.112.513-.436.823-.69 1.286ZM76.976 21.188l.028.042.035.035.035.042.035.042.035.035.035.042.035.043.035.035.043.035.034.043.015.014.02.014.022.021.014.014.02.014.015.014.02.014.015.008.02.014.015.014.02.006.015.008s.063.407.028.681c-.05.4-.316.815-.422 1.124 0 0-.442-.576-.484-.913-.057-.338-.05-.611-.063-.773 0-.001.246-.395.38-.669ZM78.13 23.159l.013-.021.014-.022.014-.028.021-.021.014-.035.021-.029.021-.035.014-.035.021-.042.022-.035.02-.043.028-.05.021-.041.022-.05.02-.042.022-.049.042-.098.042-.105.035-.106.02-.049.015-.05.014-.055.014-.05.014-.049.007-.056.007-.05.007-.049v-.099s-.492.268-.899.07c0 0-.056.661.021.88.064.183.156.289.352.444ZM78.017 23.3l-.007-.008-.007-.007-.014-.014-.007-.007-.014-.007-.007-.008-.014-.014-.007-.007-.014-.014-.014-.007-.008-.014-.014-.014-.028-.022-.028-.028-.02-.021-.029-.028-.02-.022-.015-.014-.014-.006-.007-.015-.014-.014-.014-.007-.007-.014-.007-.007-.014-.014-.007-.008-.007-.014s-.324.605-.38.78c0 0 .162.036.338-.09.182-.125.224-.16.4-.336ZM76.498 22.938l.007.007v.007l.007.014v.008l.007.014.007.007v.014l.007.014.014.028.02.028.015.035.021.028.02.035.029.043.02.035.029.042.028.036.021.042.057.077.056.085.028.035.028.042.028.035.02.036.029.035.021.035.029.029.02.028.022.028.014.02.007.008.014.014.007.007.007.008.006.007v.007l.008.007.006.007s-.042.267-.231.647a2.914 2.914 0 0 1-.618.787s-.324-.57-.422-.816c-.112-.287-.106-.576-.05-.681.106-.25.486-.608.662-.924ZM74.327 27.307l.007-.022.007-.02.008-.021.006-.022.014-.014.007-.02.014-.022.014-.021.014-.02.014-.022.022-.028.014-.022.035-.042.034-.05.036-.048.042-.05.035-.055.035-.057.021-.028.014-.028.02-.028.015-.028.014-.028.014-.035.014-.028.014-.035c.07-.203.07-.45-.014-.618-.091-.19-.435-.668-.478-.801-.042.133-.38.611-.478.8-.084.17-.084.415-.007.62.127.35.43.59.478.793h.015ZM75.697 24.867l-.007.028-.014.021-.014.028-.014.021-.014.029-.021.028-.014.021-.022.028-.02.028-.021.036-.035.056-.043.063-.042.056-.042.063-.035.063-.035.063-.022.035-.014.029-.014.034-.02.028-.007.029-.014.035-.014.028-.008.035-.006.028-.008.028c-.042.24 0 .436.056.604.07.162.281.485.422.731 0 0 .485-.456.59-.78.077-.246.056-.59-.063-.815-.12-.218-.372-.45-.485-.68ZM77.073 24.805l-.014.028-.014.028-.014.02-.014.029-.014.028-.014.021-.035.05-.035.055-.042.05-.035.05-.042.048-.035.05-.036.049-.034.049-.014.02-.015.028-.014.022-.014.028-.014.02-.014.021-.007.029-.007.02-.014.022-.007.028c-.077.275-.098.457.035.787.12.288.267.457.317.633 0 0 .393-.506.456-.717.07-.218.091-.562.007-.78-.078-.224-.218-.513-.317-.716ZM74.32 31.203l.006-.028.007-.028.007-.028.014-.035.014-.035.014-.035.014-.042.021-.049.021-.042.021-.05.022-.049.02-.056.028-.056.021-.056.028-.056.022-.063.028-.057.028-.063.02-.07.022-.063.028-.07.022-.07.02-.07.022-.07.02-.071.014-.07.015-.078.014-.07.014-.078.007-.077.007-.07v-.077c.02-.408-.352-1.054-.556-1.293h-.014c-.204.239-.562.885-.555 1.293.03.807.542 1.58.563 1.832ZM75.141 26.742v.007h.007v.007l.008.007.006.007.008.007.006.007.008.014.006.007.014.014.007.014.008.014.028.028.02.036.029.035.028.035.028.042.028.042.035.043.028.049.028.049.035.049.028.05.035.048.028.056.029.05.028.049.02.056.028.049.022.049.02.056.015.05.014.048.014.043.006.048v.084c-.014.542-.372.893-.428 1.23 0 0-.351-.4-.484-.667-.155-.309-.275-.562-.225-.906.036-.344.127-.562.485-.906ZM76.385 26.656l-.014.014-.007.022-.014.021-.014.02-.014.022-.014.028-.015.028-.02.028-.014.028-.014.028-.015.035-.02.028-.014.035-.014.035-.036.07-.014.043-.014.035-.014.036-.007.035-.014.042-.007.034-.014.036-.007.035-.007.042v.035l-.007.035v.063l.007.035v.035l.014.029c.077.316.415.758.527.955 0 0 .267-.548.33-.801.056-.252.007-.66-.534-1.166Z" fill="#0055A5"/><path d="m74.784 32.512.007-.056.007-.056.007-.056.007-.056.014-.057.007-.05.014-.048.014-.05.022-.049.014-.049.014-.042.02-.049.022-.042.014-.042.042-.085.035-.077.042-.077.035-.07.035-.07.014-.036.014-.035.014-.035.015-.035.014-.028.006-.035.007-.028.007-.028c.07-.366.05-.71-.239-1.132-.224.78-.477 1.35-.667 1.743-.008.014-.014.02-.021.035 0-.015-.007-.022-.014-.035-.197-.394-.45-.963-.675-1.743-.28.422-.309.766-.239 1.132.064.323.422.709.464 1.341.042.64-.674.879-.674.879.246.084.52.126.955-.288a.866.866 0 0 0 .183-.246c.049.091.112.169.183.246.442.414.716.372.955.288 0 0-.71-.239-.674-.879ZM72.527 28.29l.008.02.014.028.006.021.008.028.014.029.014.028.007.028.014.028.02.056.028.056.029.064.02.056.03.064.013.028.007.028.014.02.014.029.007.028.007.021.014.028.007.022.007.02.007.014.007.021.007.014v.022l.007.006c.056.253-.021.563-.478.886 0 0-.295-.211-.414-.485-.112-.253-.042-.436.07-.562.113-.141.387-.444.492-.647ZM73.497 29.227v.049l-.007.028v.05l-.007.034v.028l-.007.035-.007.036-.007.042-.007.042-.007.042-.007.043-.007.042-.007.042-.021.09-.021.092-.028.098-.014.042-.008.043-.02.049-.015.042-.014.042-.014.042-.02.042-.014.035-.022.035-.014.035c-.288.5-.71.879-1.082.879-.337 0-.407-.204-.583-.288 0 0 .084-.436.47-.548.471-.147 1.194-.71 1.49-1.243Z" fill="#0055A5"/><path d="m72.268 30.14-.014-.014-.014-.006-.028-.022-.014-.014-.014-.007-.022-.014-.014-.007-.014-.014-.014-.014-.006-.007-.008-.007-.006-.007-.008-.007-.014-.007-.007-.007-.007-.007-.007-.007-.007-.014-.014-.007-.007-.007-.007-.014s-.359.133-.668.337c-.295.204-.59.548-.745.724 0 0 .443.112.731-.014 0 0 .105-.428.422-.618.077-.043.295-.113.506-.219ZM71.89 29.774l-.008-.007-.007-.014-.007-.007-.007-.014-.007-.014-.007-.014-.007-.014-.007-.014-.007-.014-.014-.014-.007-.022-.008-.014-.006-.014-.008-.02-.006-.021-.008-.015-.014-.02-.006-.022v-.021l-.008-.02-.007-.022-.006-.021-.008-.028v-.021l-.006-.02v-.057l-.008-.021v-.057l.008-.028v-.028s-.633.401-.823.548c-.19.155-.583.562-.674.696 0 0 .478-.105.85-.225.4-.134.674-.317.822-.401ZM70.822 30.46l-.028.015-.036.007-.042.014-.035.014-.042.007-.042.014-.049.007-.042.014-.05.014-.049.007-.098.021-.098.028-.105.022-.099.02-.105.021-.098.022-.042.006-.05.014-.041.007-.05.014-.041.008-.036.006-.042.014-.035.008-.035.007-.028.014c-.323.098-.555.253-.857.59 0 0 .464.127.717.211 0 0 .4-.274.835-.436.287-.112.42-.414.723-.71ZM70.111 32.716l.014-.014.014-.014.014-.021.014-.014.008-.007.007-.014.006-.008.007-.007v-.014l.007-.007.008-.014.006-.007v-.014l.008-.007v-.028l.006-.007v-.084l-.006-.014v-.014l-.008-.022v-.014l-.006-.021c-.05-.133-.33-.288-.499-.365-.274-.134-1.033-.338-1.279-.415 0 0-.126.148-.19.303-.035.063.007.119.113.133.218.042.724-.056.85.028.133.084.084.203.084.316 0 0 .233-.14.38-.105.203.042.33.14.442.47ZM69.436 31.656h.014l.006.008h.008l.014.006h.014l.014.007.014.008h.014l.014.007.02.007.015.006.021.008.021.007.021.007.021.014.02.007.022.007.028.014.021.007.028.014.021.014.028.008.028.014.022.014.028.014.028.014.028.014.02.014.029.02.028.015.028.014s.127-.05.19-.169c.063-.112.323-.499.562-.548 0 0-.204-.014-.323-.056 0 0-.239.063-.422.14a3.127 3.127 0 0 0-.645.344ZM71.398 31.172h-.007l-.015.007-.007.007h-.014l-.007.007h-.014l-.007.007h-.014l-.007.007h-.021l-.007.007h-.021l-.007.007h-.035l-.014.007h-.043l-.014.007h-.049s-.667.464-.745.92c-.07.4.14.59.239.64.105.056.57.24.871-.38 0 0-.512.17-.66-.076-.133-.253.09-.618.232-.717.19-.14.52-.239.723-.197 0 0-.168-.155-.357-.253Z" fill="#0055A5"/><path d="m67.02 36.48.028-.127.035-.126.035-.133.014-.063.021-.063.021-.064.021-.07.022-.063.02-.063.029-.063.02-.064.028-.063.029-.063c.301-.64 1.047-2.347 2.592-2.642.14-.035-.169-.393-.31-.373-.14.015-.413.197-.533.275 0 0 0-.366-.007-.429 0-.063-.057-.09-.12-.09-.056.006-.435 0-.548.14-.358.407-.948 1.504-1.286 2.319-.337.815-.57 1.068-.927.941-.351-.126-.562-.534-1.187-.407-.211.042-.45.19-.64.4.056.099.12.225.407.225.288 0 .85.12 1.153.33.31.216.633.294 1.083.336ZM73.188 31.195l.007.05.007.048.014.05.014.049.014.048.021.05.014.042.021.05.02.049.022.049.021.05.028.041.021.05.029.049.02.049.029.049s-.464 2.17-2.171 2.332c0 0 .034-.45.534-.787.506-.344 1.264-.878 1.208-1.686 0 0-.14.028-.38.33-.238.303-.772 1.181-1.587 1.188 0 0 .119-.414.484-.647.359-.239.823-.54 1.033-.906.211-.358.43-.526.577-.597ZM72.38 39.106l1.04 1.454.788-1.398-.281-.506c-.204.372-.43.766-.548.991-.092-.14-.352-.506-.696-.99l-.302.449Z" fill="#0055A5"/><path d="m72.121 37.878-.19-.267-.196-.273-.197-.275-.196-.273-.197-.275-.19-.267-.091-.126-.092-.127-.09-.126-.085-.12-.084-.12-.078-.111-.077-.113-.078-.105-.07-.098-.07-.092-.063-.091-.056-.078-.056-.077-.05-.07-.042-.063-.035-.057-.035-.042-.028-.042-.021-.028-.014-.02.393-.282-1.236-.47.02 1.341.422-.302 2.487 3.5.295-.45ZM63.604 29.944l.029-.028.034-.028.029-.02.035-.022.035-.014.035-.014.035-.007.035-.007.035-.007h.042l.036.007h.042l.042.014.042.006.043.014.042.014.042.022.05.02.041.022.05.021.042.028.05.029.048.035.043.028.049.034.049.035.049.042.05.035.048.042.042.043.05.042.048.042c.52.478.85.97.548 1.307-.28.302-.829.042-1.342-.436-.526-.477-.85-.969-.548-1.299Z" fill="#0055A5"/><path d="m64.448 35.85-.007-.006-.007-.007-.007-.007h-.007v-.007h-.007v-.007h-.007v-.007H64.4a1.37 1.37 0 0 1-.436-1.026c0-.787.64-1.426 1.42-1.426.787 0 1.426.639 1.426 1.426 0 .105-.021.274-.021.274.063-.12.302-.66.344-.759a1.813 1.813 0 0 0-3.38-.309c.113-.717.471-1.363.724-1.602.302-.288.822-.38.822-.38-.344.05-.78-.154-1.286-.61-.47-.436-.71-.816-.731-1.131.028.45.02.695-.105 1.068-.176.492-.647 1.405-.478 2.438.091.57.499 1.413 1.194 2.1.141.155.197.387.219.507 0 0 1.011 0 1.258.02 0 0 .239-.02.224-.176 0-.147-.133-.182-.245-.182-.127 0-.633.007-.9-.19ZM70.055 36.195l-.119.042-.126.043-.12.035-.118.035-.127.035-.12.035-.119.028-.119.028-.127.029-.119.02-.119.022-.119.02-.232.043-.239.035a6.009 6.009 0 0 1-1.166.07.348.348 0 0 1-.028.204s.07.084.07.19c.386.007.787-.008 1.187-.077.675-.106 1.384-.24 2.094-.506l-.234-.33ZM71.124 36.146l.161-.092.161-.098.162-.105.16-.112.156-.12.16-.126.155-.133.162-.14.154-.148.148-.161.154-.162.147-.176.155-.19.147-.19.14-.204.078-.105.07-.112.133-.225c-.204.09-.47.028-.47.028-.014.02-.05.077-.07.098-.703 1.048-1.49 1.715-2.298 2.15l.235.323ZM65.417 36.507h-.07l-.021-.007H65.094l-.049.007h-.056l-.05.007h-.056l-.049.007h-.048l-.029.007h-.021l-.022.007h-.02c-.253.035-.534.09-.57.225-.02.133.063.273.19.47.085.12.267.056.366.014.105-.042.695-.351.787-.456.09-.099.126-.246-.05-.281ZM66.015 36.898l-.008-.006-.007-.008h-.007l-.006-.006h-.008l-.007-.007-.007-.008h-.014l-.007-.007h-.014l-.008-.007h-.014l-.006-.006h-.028l-.007-.008h-.028l-.014-.007H65.726l-.014.007h-.014l-.014.008h-.014l-.014.006h-.014c-.161.064-.738.408-.78.563-.035.162.042.246.134.28.09.035.196.07.28.078a.471.471 0 0 0 .36-.169c.07-.091.336-.414.379-.492.034-.063.063-.176 0-.21ZM66.085 37.254l-.006.008-.007.014-.014.007-.007.014-.014.014-.014.014-.007.014-.014.014-.014.014-.014.021-.014.014-.014.014-.021.035-.028.036-.014.014-.014.021-.014.014-.014.014-.008.014-.014.014-.014.014-.007.014-.014.014-.007.014-.008.008-.006.014-.007.007v.007h-.007v.007l-.008.007c-.028.042.014.119.085.105.077-.007.47-.049.702-.203.225-.154.38-.45.225-.562-.162-.114-.4-.058-.668.23ZM66.212 36.385h-.014l-.014-.006h-.021l-.014-.008h-.014l-.014-.007h-.028l-.021-.007h-.014l-.014-.007H65.988l-.015-.006h-.097l-.015.006h-.014l-.014.007h-.014v.008h-.014l-.007.006-.007.008h-.007v.006h-.007v.007c-.084.127-.028.253.21.365.233.113.668.205.752.085.084-.12-.028-.323-.527-.457ZM76.111 28.29l-.007.02-.014.028-.007.021-.007.028-.013.029-.008.028-.014.028-.014.028-.02.056-.029.056-.021.064-.028.056-.028.064-.014.028-.008.028-.014.02-.014.029-.007.028-.014.021-.007.028-.007.022-.007.02-.007.014-.007.021-.007.014-.007.022v.006c-.049.253.021.563.478.886 0 0 .302-.211.414-.485.112-.253.042-.436-.063-.562-.12-.141-.386-.444-.499-.647ZM75.143 29.227l.006.014V29.326l.008.028v.034l.006.028.008.035v.036l.006.042.008.042.007.042.007.043.014.042.007.042.02.09.022.092.021.098.014.042.014.043.014.049.014.042.022.042.014.042.014.042.021.035.02.035.015.035c.288.5.703.879 1.082.879.337 0 .415-.204.576-.288 0 0-.084-.436-.47-.548-.471-.147-1.195-.71-1.49-1.243Z" fill="#0055A5"/><path d="m76.371 30.14.02-.014.015-.006.028-.022.014-.014.014-.007.014-.014.014-.007.014-.014.014-.014.007-.007.007-.007.007-.007.014-.007.008-.007.006-.007.008-.007.006-.007.008-.014.014-.007.006-.007.007-.014s.365.133.668.337c.295.204.59.548.751.724 0 0-.45.112-.737-.014 0 0-.105-.428-.422-.618-.07-.043-.294-.113-.505-.219ZM76.752 29.774l.007-.007.007-.014.007-.007.007-.014.007-.014.007-.014.007-.014.014-.014.007-.014.007-.014.007-.022.007-.014.014-.014.007-.02.007-.021.007-.015.007-.02.007-.022.007-.021.007-.02.007-.022.007-.021v-.028l.007-.021v-.02l.007-.029v-.049l.007-.028v-.029l-.007-.028v-.028s.633.401.822.548c.183.155.583.562.668.696 0 0-.478-.105-.844-.225-.4-.134-.68-.317-.828-.401ZM77.818 30.46l.035.015.035.007.035.014.043.014.042.007.042.014.042.007.05.014.042.014.05.007.098.021.105.028.098.022.106.02.098.021.099.022.048.006.05.014.042.007.042.014.042.008.043.006.035.014.035.008.035.007.035.014c.316.098.548.253.857.59 0 0-.47.127-.717.211 0 0-.4-.274-.843-.436-.288-.112-.422-.414-.724-.71ZM78.53 32.716l-.015-.014-.014-.014-.014-.021-.014-.014-.007-.007-.007-.014-.007-.008-.007-.007v-.014l-.007-.007-.007-.014-.007-.007v-.014l-.007-.007v-.028l-.007-.007v-.084l.007-.014v-.014l.007-.022.007-.014v-.021c.056-.133.33-.288.499-.365.28-.134 1.04-.338 1.286-.415 0 0 .119.148.19.303.021.063-.014.119-.12.133-.21.042-.724-.056-.843.028-.133.084-.09.203-.09.316 0 0-.233-.14-.38-.105-.205.042-.324.14-.444.47ZM79.21 31.656H79.197l-.007.008h-.014l-.007.006h-.014l-.014.007-.014.008h-.014l-.022.007-.014.007-.02.006-.015.008-.02.007-.022.007-.02.014-.029.007-.021.007-.02.014-.029.007-.02.014-.029.014-.021.008-.028.014-.029.014-.028.014-.02.014-.029.014-.028.014-.028.02-.028.015-.028.014s-.126-.05-.19-.169c-.063-.112-.323-.499-.555-.548 0 0 .197-.014.316-.056 0 0 .246.063.422.14.175.063.392.176.652.344ZM77.25 31.172h.007l.007.007h.007l.007.007h.007l.007.007h.014l.007.007h.014l.007.007h.021l.007.007h.021l.014.007h.028l.014.007h.042l.015.007h.049s.674.464.751.92c.063.4-.14.59-.246.64-.098.056-.562.24-.871-.38 0 0 .513.17.66-.076.141-.253-.084-.618-.232-.717-.182-.14-.52-.239-.716-.197 0 0 .162-.155.359-.253Z" fill="#0055A5"/><path d="m81.626 36.48-.035-.127-.028-.126-.035-.133-.02-.063-.022-.063-.014-.064-.021-.07-.021-.063-.029-.063-.02-.063-.028-.064-.028-.063-.029-.063c-.295-.64-1.04-2.347-2.585-2.642-.148-.035.162-.393.302-.373.14.015.414.197.541.275v-.429c.007-.063.063-.09.12-.09.063.006.435 0 .555.14.351.407.949 1.504 1.279 2.319.344.815.576 1.068.927.941.352-.126.562-.534 1.187-.407.219.042.457.19.64.4-.05.099-.112.225-.407.225-.289 0-.844.12-1.153.33-.31.216-.633.294-1.076.336ZM75.458 31.195l-.014.05-.007.048-.014.05-.014.049-.014.048-.014.05-.021.042-.022.05-.014.049-.028.049-.02.05-.022.041-.028.05-.021.049-.057.098s.47 2.171 2.179 2.333c0 0-.035-.45-.542-.787-.506-.345-1.258-.879-1.2-1.686 0 0 .126.028.371.33.24.303.773 1.18 1.596 1.187 0 0-.12-.414-.485-.646-.365-.239-.822-.54-1.033-.906-.211-.359-.436-.527-.576-.598ZM74.328 33.305l.007.028.014.035.014.035.02.034.022.043.028.042.021.05.035.048.028.049.028.05.035.048.035.056.035.057.042.056.078.106.077.112.077.105.042.056.042.05.035.05.042.048.035.05.036.042.034.042.036.042.035.035.035.029.028.035.028.02c.274.26.963.95 1.335 1.294 0 0-1.047-.26-1.637-.794 0 0-.415.239-.717.239h-.02c-.303 0-.724-.239-.724-.239-.583.534-1.63.794-1.63.794.365-.344 1.054-1.033 1.335-1.293.281-.253.928-1.166 1.026-1.454h.008Z" fill="#0055A5"/><path d="M74.326 35.71H74.368l.022-.006h.063l.042-.008.042-.007.036-.014.042-.007.035-.014.042-.007.035-.014.028-.014.035-.007.014-.007.014-.008.014-.006.015-.007.014-.008h.014l.014-.007.014-.007c-.127.253-.358.668-.577.83h-.006c-.225-.162-.457-.577-.584-.83.127.057.344.148.576.148h.014Z" fill="#0055A5"/><path d="m75.22 40.563 4.089-5.733.415.301.028-1.342-1.237.471.386.281c-.196.289-3.252 4.567-3.64 5.108l-1.847-3.358-.232.344-1.644 2.494-.415-.274v1.32l1.25-.491-.42-.288c.231-.337 1.116-1.686 1.418-2.136l1.849 3.303Z" fill="#0055A5"/><path d="m75.972 38.306-.106-.155-.056-.077-.049-.077-.049-.07-.05-.078-.048-.07-.042-.07-.049-.07-.042-.064-.022-.028-.02-.035-.014-.029-.021-.028-.022-.028-.014-.028-.02-.028-.014-.021-.014-.028-.022-.022-.014-.02-.014-.021c-.098.19-.31.569-.541.983l-.295-.52.8-1.433.225.344.822 1.237-.31.436ZM76.815 38.68l.288.45.414-.275.007 1.321-1.25-.492.414-.288c-.042-.063-.105-.162-.19-.288l.317-.428ZM85.042 29.944l-.028-.028-.035-.028-.028-.02-.035-.022-.035-.014-.035-.014-.035-.007-.035-.007-.036-.007h-.042l-.035.007h-.042l-.042.014-.042.006-.042.014-.043.014-.049.022-.042.02-.042.022-.05.021-.041.028-.05.029-.049.035-.049.028-.042.034-.049.035-.05.042-.048.035-.049.042-.05.043-.048.042-.05.042c-.526.478-.85.97-.54 1.307.28.302.815.042 1.341-.436.52-.477.849-.969.547-1.299Z" fill="#0055A5"/><path d="m84.192 35.85.007-.006h.008v-.007h.006v-.007h.008v-.007h.006l.008-.007h.006v-.007h.008c.273-.246.428-.619.428-1.026a1.423 1.423 0 1 0-2.846 0c0 .105.02.274.02.274-.055-.12-.294-.66-.343-.759a1.815 1.815 0 0 1 3.38-.31c-.113-.716-.47-1.362-.724-1.601-.302-.288-.815-.38-.815-.38.337.05.78-.154 1.28-.61.47-.436.716-.816.73-1.131-.028.45-.014.695.112 1.068.176.492.64 1.405.478 2.438-.091.57-.506 1.413-1.195 2.1-.147.155-.204.387-.218.507 0 0-1.018 0-1.25.02 0 0-.246-.02-.24-.176 0-.147.141-.182.254-.182.126 0 .625.007.892-.19ZM77.516 36.146l-.162-.092-.16-.098-.162-.105-.155-.112-.161-.12-.161-.126-.155-.133-.155-.14-.154-.148-.155-.161-.154-.162-.148-.176-.147-.19-.147-.19-.147-.204-.07-.105-.078-.112-.133-.225c.21.09.47.028.47.028.022.02.05.077.063.098.717 1.048 1.504 1.715 2.305 2.144l-.234.33ZM78.586 36.195l.119.042.126.043.12.035.126.035.12.035.119.035.126.028.12.028.12.029.118.02.12.022.119.02.239.043.231.035c.401.063.794.084 1.167.07 0 .063 0 .14.028.204 0 0-.063.084-.063.19a6.338 6.338 0 0 1-1.195-.077c-.674-.106-1.384-.24-2.1-.506l.24-.33ZM83.222 36.507h.077l.022-.007H83.546l.056.007h.05l.056.007h.049l.056.007h.049l.021.007h.029l.02.007h.021c.246.035.527.09.562.225.028.133-.063.273-.19.47-.077.12-.26.056-.365.014-.105-.042-.689-.351-.787-.456-.091-.099-.126-.246.05-.281ZM82.632 36.898l.007-.006v-.008h.007l.014-.006h.007l.007-.007.007-.008h.007l.014-.007h.007l.014-.007h.008l.014-.006h.02l.014-.008h.022l.014-.007h.098l.014.007h.014l.014.008h.014l.015.006h.014c.16.064.738.408.78.563.035.162-.043.246-.127.28-.099.035-.204.07-.289.078a.445.445 0 0 1-.351-.169c-.077-.091-.344-.414-.38-.492-.042-.063-.062-.176 0-.21ZM82.554 37.254l.007.008.014.014.007.007.007.014.014.014.014.014.007.014.014.014.015.014.014.021.014.014.014.014.028.035.028.036.028.035.007.014.014.014.014.014.015.014.006.014.014.014.008.014.014.014.006.008.008.014.006.007.007.007v.007l.008.007c.02.042-.021.119-.092.105-.077-.007-.47-.049-.695-.203-.233-.154-.38-.45-.225-.562.154-.114.4-.058.66.23ZM82.429 36.385h.021l.007-.006h.021l.014-.008h.014l.014-.007h.028l.022-.007h.014l.02-.007h.05l.014-.006h.098l.014.006h.014l.014.007h.014l.007.008h.015v.006h.006l.008.008.006.006.008.007c.077.127.02.253-.211.365-.232.113-.675.205-.759.085-.085-.12.035-.323.527-.457Z" fill="#0055A5"/></g><defs><clipPath id="a"><path fill="#fff" transform="translate(.021 .453)" d="M0 0h97.959v48H0z"/></clipPath></defs></svg>