<svg width="97" height="49" fill="none" xmlns="http://www.w3.org/2000/svg"><g clip-path="url(#a)"><path d="M83.199 14.157v11.735h-4.19V17.66h-4.035v8.232h-4.19V14.156h12.415v.001Z" fill="#fff"/><path fill-rule="evenodd" clip-rule="evenodd" d="M62.177 26.312c3.751 0 6.537-2.3 6.537-5.787 0-3.374-2.055-5.566-5.49-5.566-1.585 0-2.893.558-3.878 1.521.235-1.99 1.918-3.443 3.77-3.443l3.647-.007 1.82-3.483s-4.041.092-5.92.092c-4.293.075-7.192 3.977-7.192 8.716 0 5.521 2.828 7.957 6.706 7.957Zm.023-8.267c1.393 0 2.358.915 2.358 2.48 0 1.408-.858 2.569-2.358 2.572-1.435 0-2.4-1.075-2.4-2.548 0-1.565.965-2.504 2.4-2.504Z" fill="#fff"/><path d="M52.06 21.958s-.99.57-2.468.679c-1.7.05-3.213-1.023-3.213-2.93 0-1.86 1.336-2.926 3.17-2.926 1.125 0 2.613.78 2.613.78s1.089-1.998 1.653-2.997c-1.033-.783-2.409-1.212-4.009-1.212-4.038 0-7.165 2.632-7.165 6.332 0 3.746 2.94 6.318 7.165 6.24 1.181-.044 2.811-.459 3.804-1.097l-1.55-2.869Z" fill="#fff"/><path d="m.533 10.898 5.813 10.39v6.338L.54 37.996.533 10.898Z" fill="#5B57A2"/><path d="m22.852 17.513 5.446-3.339 11.148-.01L22.852 24.33v-6.817Z" fill="#D90751"/><path d="m22.821 10.84.03 13.756-5.826-3.58V.453l5.796 10.387Z" fill="#FAB718"/><path d="m39.446 14.162-11.148.01-5.477-3.332L17.025.453l22.42 13.709Z" fill="#ED6F26"/><path d="M22.852 38.053V31.38l-5.827-3.512.004 20.583 5.823-10.397Z" fill="#63B22F"/><path d="M28.285 34.745 6.345 21.288.534 10.898l38.89 23.834-11.138.013Z" fill="#1487C9"/><path d="m17.03 48.453 5.822-10.397 5.433-3.308 11.137-.014-22.393 13.72Z" fill="#017F36"/><path d="M.54 38 17.071 27.87l-5.558-3.41-5.169 3.169L.54 38Z" fill="#984995"/><path d="M46.38 33.787a1.205 1.205 0 0 1-.498.37c-.208.084-.43.127-.653.126a1.852 1.852 0 0 1-.653-.11 1.414 1.414 0 0 1-.834-.802 1.668 1.668 0 0 1-.119-.636c0-.216.037-.416.115-.605.074-.19.181-.353.316-.49.135-.14.296-.246.478-.33.185-.08.387-.122.61-.122.238 0 .46.03.662.09s.374.16.515.3l-.245.415a1.154 1.154 0 0 0-.411-.24 1.444 1.444 0 0 0-.448-.07 1.036 1.036 0 0 0-.717.29 1.056 1.056 0 0 0-.31.765 1.051 1.051 0 0 0 .32.77.95.95 0 0 0 .344.21c.131.05.27.072.417.072.182 0 .347-.036.488-.106.14-.068.266-.162.37-.276l.253.379Zm.693.426V31.25h.532v2.207l1.73-2.207h.532v2.962h-.532v-2.206l-1.73 2.206h-.532Zm6.318-.426c-.13.165-.302.292-.498.37-.207.084-.43.127-.653.126a1.851 1.851 0 0 1-.653-.11 1.414 1.414 0 0 1-.835-.802 1.668 1.668 0 0 1-.118-.636c0-.216.038-.416.115-.605.074-.19.182-.353.316-.49.135-.14.297-.246.478-.33.192-.084.4-.126.61-.122.239 0 .46.03.663.09.202.06.373.16.515.3l-.246.415a1.148 1.148 0 0 0-.41-.24 1.443 1.443 0 0 0-.448-.07 1.014 1.014 0 0 0-.943.622c-.057.13-.084.274-.084.434a1.051 1.051 0 0 0 .32.768.951.951 0 0 0 .343.21c.131.047.27.074.417.074.182 0 .344-.037.488-.107.14-.068.266-.162.37-.276l.253.379Zm.273-2.536h2.73v.526h-1.098v2.436h-.532v-2.436h-1.097v-.526h-.003Z" fill="#fff"/><path fill-rule="evenodd" clip-rule="evenodd" d="M58.878 34.186c.202-.063.374-.16.522-.292l-.162-.413c-.098.087-.229.16-.387.22s-.337.09-.532.09c-.293 0-.535-.077-.727-.233-.192-.157-.296-.377-.32-.657h2.303a1.6 1.6 0 0 0 .033-.356 1.34 1.34 0 0 0-.407-.982 1.32 1.32 0 0 0-.444-.275 1.477 1.477 0 0 0-.542-.1c-.25 0-.468.043-.66.123a1.391 1.391 0 0 0-.78.819c-.072.193-.107.399-.105.605 0 .233.04.446.114.636a1.4 1.4 0 0 0 .324.49c.138.135.306.239.504.312a2.014 2.014 0 0 0 1.266.013Zm-1.346-2.28c.164-.15.383-.223.66-.223.258 0 .467.07.619.21.151.14.232.333.245.58H57.24a.905.905 0 0 1 .293-.567Z" fill="#fff"/><path d="M60.332 31.25h.485l1.151 1.468 1.09-1.468h.472v2.962h-.532v-2.16l-1.037 1.375h-.02l-1.077-1.375v2.16h-.532V31.25Z" fill="#fff"/><path fill-rule="evenodd" clip-rule="evenodd" d="M64.977 31.263a1.67 1.67 0 0 0-.457.196l.14.42c.122-.06.243-.11.364-.153a1.39 1.39 0 0 1 .462-.064c.148 0 .266.024.356.07a.47.47 0 0 1 .206.19c.047.08.077.18.094.296.017.117.024.243.024.38a.911.911 0 0 0-.364-.15 2.086 2.086 0 0 0-.384-.04 1.65 1.65 0 0 0-.448.063.986.986 0 0 0-.36.18c-.1.08-.18.181-.235.296a.919.919 0 0 0-.088.403c0 .29.085.516.253.676.168.16.39.24.666.24.25 0 .448-.044.6-.13.15-.087.272-.187.36-.3v.383h.498V32.4c0-.386-.084-.685-.256-.895-.168-.21-.468-.316-.892-.316-.189 0-.367.026-.539.073Zm.89 2.4c-.122.087-.28.126-.475.126-.172 0-.307-.043-.4-.126a.439.439 0 0 1-.142-.34c0-.083.016-.153.054-.216a.492.492 0 0 1 .144-.153.637.637 0 0 1 .206-.09.933.933 0 0 1 .235-.03c.263 0 .488.063.673.196v.376a1.536 1.536 0 0 1-.296.257Zm5.493-3.452a.818.818 0 0 0 .302-.256l-.29-.416a.583.583 0 0 1-.252.206c-.1.04-.203.069-.31.087l-.1.018-.283.049c-.162.03-.32.079-.471.146-.24.103-.43.243-.576.42-.144.176-.259.375-.336.595a3.117 3.117 0 0 0-.158.69c-.028.24-.04.468-.04.688 0 .283.036.54.11.769.074.23.178.422.316.579.138.16.304.28.499.366.195.087.414.13.66.13.225 0 .434-.043.622-.123a1.48 1.48 0 0 0 .801-.812c.078-.184.115-.38.115-.586 0-.223-.034-.426-.098-.606a1.228 1.228 0 0 0-.717-.762 1.53 1.53 0 0 0-.952-.057 1.438 1.438 0 0 0-.616.36.979.979 0 0 0-.196.283h-.013c.01-.137.027-.276.057-.42.03-.143.074-.28.132-.41.057-.129.13-.245.222-.352.097-.107.216-.192.35-.25.146-.07.301-.12.46-.15l.106-.018c.106-.02.206-.038.302-.058.128-.026.246-.06.354-.11Zm-1.872 2.846a1.655 1.655 0 0 1-.074-.52.833.833 0 0 1 .121-.282.992.992 0 0 1 .219-.24c.198-.155.442-.238.693-.236.313 0 .549.096.714.287.165.192.246.432.246.721 0 .144-.027.274-.074.393a.945.945 0 0 1-.512.53.98.98 0 0 1-.4.08.922.922 0 0 1-.728-.34 1.252 1.252 0 0 1-.205-.393Zm6.56-1.804h-.532v2.962h.532v-2.962Zm-3.312 0h.532v.889h.492c.232 0 .42.03.572.086a.979.979 0 0 1 .363.227c.091.093.155.203.192.326.037.123.057.25.057.383s-.02.26-.064.386a.875.875 0 0 1-.205.336.988.988 0 0 1-.384.24c-.161.06-.357.093-.592.093h-.966v-2.966h.003Zm.532 1.385v1.085h.387c.266 0 .455-.047.562-.14.108-.093.162-.226.162-.403 0-.18-.057-.316-.165-.41-.111-.093-.296-.14-.552-.14h-.394v.008Z" fill="#fff"/><path d="M79.566 33.787a1.205 1.205 0 0 1-.499.37 1.714 1.714 0 0 1-.653.126 1.852 1.852 0 0 1-.653-.11 1.422 1.422 0 0 1-.835-.802 1.676 1.676 0 0 1-.117-.636 1.575 1.575 0 0 1 .43-1.095c.135-.14.296-.246.478-.33.192-.084.4-.126.61-.122.239 0 .46.03.663.09.202.06.374.16.515.3l-.246.415a1.154 1.154 0 0 0-.41-.24 1.444 1.444 0 0 0-.448-.07 1.03 1.03 0 0 0-1.027 1.056 1.051 1.051 0 0 0 .32.768.95.95 0 0 0 .343.21c.132.047.27.074.418.074.181 0 .343-.037.488-.107.14-.068.265-.162.37-.276l.252.379Zm.272-2.536h2.73v.526H81.47v2.436h-.531v-2.436h-1.097v-.526h-.004Z" fill="#fff"/><path fill-rule="evenodd" clip-rule="evenodd" d="M83.678 31.255h-.531v4.28h.531V34.08c.108.07.236.12.384.153.148.034.303.05.461.05a1.53 1.53 0 0 0 1.13-.459 1.46 1.46 0 0 0 .318-.506c.073-.196.11-.406.11-.63 0-.22-.033-.422-.097-.605a1.41 1.41 0 0 0-.276-.473 1.2 1.2 0 0 0-.434-.31 1.397 1.397 0 0 0-.576-.112c-.208 0-.403.04-.589.12-.185.08-.33.176-.43.296v-.35Zm.37.549c.153-.08.317-.12.496-.12.154 0 .293.023.417.073.121.05.222.12.307.213.084.093.148.2.188.326.044.127.064.263.064.413 0 .16-.027.303-.074.436a.944.944 0 0 1-.532.562 1.074 1.074 0 0 1-.434.084c-.145 0-.28-.017-.407-.05a1.329 1.329 0 0 1-.394-.18v-1.468c.094-.113.219-.21.37-.29Zm6.113-.55h-.532v2.963h.532v-2.963Zm-3.315 0h.532v.889h.49c.233 0 .422.03.573.086a.979.979 0 0 1 .364.227c.09.093.155.203.191.326.038.123.058.25.058.383s-.02.26-.064.386a.875.875 0 0 1-.206.336.988.988 0 0 1-.383.24c-.162.06-.357.093-.593.093h-.966v-2.966h.004Zm.535 1.384v1.086h.388c.265 0 .454-.047.561-.14.108-.094.162-.226.162-.403 0-.18-.057-.316-.165-.41-.11-.093-.296-.14-.552-.14h-.394v.008Z" fill="#fff"/><path d="m92.713 32.678 1.138 1.534h-.653l-.878-1.198-.892 1.198h-.62l1.131-1.508-1.063-1.454h.653l.81 1.118.825-1.118h.62l-1.07 1.428Zm-46.726 5.196h-1.633v2.47h-.532V37.38h2.696v2.962h-.531v-2.47Zm3.55.033h-1.05l-.034.499a6.011 6.011 0 0 1-.158 1.022c-.07.26-.158.46-.259.599a.744.744 0 0 1-.353.283c-.14.05-.286.075-.434.073l-.04-.513a.432.432 0 0 0 .198-.043.554.554 0 0 0 .219-.216c.07-.113.134-.273.192-.48.057-.209.094-.482.114-.825l.054-.922h2.084v2.962h-.532v-2.44Z" fill="#fff"/><path fill-rule="evenodd" clip-rule="evenodd" d="M51.505 37.394a1.666 1.666 0 0 0-.459.196l.142.42c.121-.06.242-.11.363-.154.121-.043.277-.063.462-.063.148 0 .266.023.356.07.092.043.159.11.206.19.047.08.077.18.094.295.017.117.024.244.024.38a.91.91 0 0 0-.364-.15 2.093 2.093 0 0 0-.384-.04 1.63 1.63 0 0 0-.447.064.985.985 0 0 0-.36.18c-.1.08-.18.18-.236.296a.922.922 0 0 0-.087.402c0 .29.084.516.252.676.168.16.39.24.666.24.25 0 .448-.044.6-.13.15-.087.272-.187.36-.3v.383h.498v-1.817c0-.386-.085-.686-.256-.896-.169-.21-.468-.316-.892-.316a2.04 2.04 0 0 0-.538.074Zm.892 2.399c-.121.087-.28.127-.475.127-.175 0-.306-.044-.4-.127a.438.438 0 0 1-.142-.34c0-.083.017-.153.054-.216a.487.487 0 0 1 .145-.153.635.635 0 0 1 .205-.09.932.932 0 0 1 .236-.03c.262 0 .488.064.673.196v.376a1.53 1.53 0 0 1-.296.257Z" fill="#fff"/><path d="M53.71 37.383h2.73v.525h-1.097v2.437h-.531v-2.436h-1.097v-.526h-.004Z" fill="#fff"/><path fill-rule="evenodd" clip-rule="evenodd" d="M58.925 40.314c.202-.064.374-.16.522-.293l-.162-.413c-.097.087-.228.16-.387.22-.158.06-.336.09-.532.09-.292 0-.535-.077-.727-.233-.192-.157-.296-.376-.32-.656h2.303c.023-.103.034-.22.034-.356a1.341 1.341 0 0 0-.408-.982 1.313 1.313 0 0 0-.444-.276 1.48 1.48 0 0 0-.542-.1c-.25 0-.468.043-.66.123a1.447 1.447 0 0 0-.481.33c-.133.14-.235.307-.3.489-.07.194-.106.399-.104.605 0 .234.04.446.114.636.075.19.185.353.323.49.138.136.307.24.506.312.212.076.437.113.663.11.198 0 .4-.033.602-.096Zm-1.35-2.284c.165-.15.384-.222.66-.222.263 0 .468.073.62.21.151.14.232.332.245.578h-1.817a.903.903 0 0 1 .293-.566Zm2.34-.648h.673l1.026 1.428-1.097 1.534h-.653l1.151-1.535-1.1-1.427Zm1.83 0h.533v2.962h-.532v-2.962Zm2.434 2.962-1.17-1.535 1.093-1.428h-.66L62.41 38.81l1.11 1.535h.66Zm2.43-.03c.203-.064.374-.16.522-.293l-.161-.413c-.098.087-.23.16-.387.22-.159.06-.337.09-.532.09-.293 0-.535-.077-.727-.233-.192-.157-.296-.376-.32-.656h2.302c.024-.103.034-.22.034-.356a1.335 1.335 0 0 0-.407-.982 1.315 1.315 0 0 0-.445-.276 1.475 1.475 0 0 0-.541-.1c-.25 0-.468.043-.66.123a1.385 1.385 0 0 0-.78.819c-.072.194-.107.399-.105.605 0 .234.04.446.114.636a1.386 1.386 0 0 0 .828.802c.213.076.437.113.663.11.205-.001.408-.034.603-.096ZM65.26 38.03c.165-.15.384-.222.66-.222.26 0 .468.073.62.21.15.14.232.332.245.578h-1.818a.903.903 0 0 1 .293-.566Zm4.238-1.644c-.313 0-.485-.173-.511-.519h-.502c0 .133.023.253.067.366.044.113.108.21.192.29.084.08.192.143.317.193.124.05.269.073.433.073.152 0 .287-.023.408-.073a.966.966 0 0 0 .31-.193.84.84 0 0 0 .198-.29.934.934 0 0 0 .07-.366h-.497c-.024.346-.189.52-.485.52Zm-1.438.995v2.963h.532l1.73-2.207v2.207h.532V37.38h-.531l-1.73 2.207v-2.207h-.532Z" fill="#fff"/></g><defs><clipPath id="a"><path fill="#fff" transform="translate(.533 .453)" d="M0 0h95.6v48H0z"/></clipPath></defs></svg>