<svg id="telegram" viewBox="0 0 24 24" fill="currentColor" xmlns="http://www.w3.org/2000/svg">
<path fill-rule="evenodd" clip-rule="evenodd" d="M19.3554 4.3129C19.1232 4.36167 18.8107 4.45699 18.328 4.6055L5.03346 8.69614C4.42352 8.88381 4.01471 9.01043 3.73006 9.12625C3.54385 9.20202 3.47153 9.25089 3.45166 9.26472C3.42324 9.32189 3.41783 9.38752 3.43633 9.44831C3.45369 9.46525 3.51703 9.52532 3.68815 9.6306C3.94993 9.79164 4.33237 9.98371 4.90319 10.2691L10.0785 12.8568L14.6194 8.31586C14.9123 8.02296 15.3872 8.02296 15.6801 8.31586C15.973 8.60875 15.973 9.08362 15.6801 9.37652L11.1394 13.9173L13.727 19.0926C14.0124 19.6633 14.2046 20.0459 14.3657 20.3077C14.4712 20.4791 14.5313 20.5425 14.5482 20.5598C14.6085 20.5781 14.674 20.5728 14.7314 20.5442C14.7453 20.5243 14.7941 20.452 14.8698 20.2659C14.9855 19.9812 15.112 19.5725 15.2997 18.9627L19.3903 5.6681C19.3919 5.663 19.3935 5.65792 19.3952 5.65285C19.5411 5.17846 19.635 4.87003 19.6833 4.64023C19.7139 4.49472 19.7145 4.42925 19.714 4.41072C19.6888 4.35344 19.643 4.30752 19.5853 4.28228C19.5668 4.28178 19.5013 4.28225 19.3554 4.3129ZM13.9504 21.937C13.5399 21.7667 13.2779 21.4021 13.0882 21.0939C12.8875 20.7677 12.6653 20.3233 12.3992 19.791L9.79442 14.5815C9.74795 14.4886 9.72194 14.4369 9.70093 14.3987C9.69156 14.3816 9.68584 14.3722 9.68265 14.3671L9.67979 14.3628C9.66478 14.3433 9.6491 14.3278 9.63468 14.3167C9.63222 14.315 9.62319 14.3091 9.60155 14.2973C9.56477 14.2771 9.51555 14.2523 9.42625 14.2077L4.20229 11.5957C3.67115 11.3302 3.22769 11.1084 2.90218 10.9082C2.59404 10.7186 2.22946 10.4567 2.05913 10.0462C1.84214 9.52328 1.89174 8.92829 2.19149 8.44855C2.42697 8.07167 2.82956 7.87325 3.16471 7.73688C3.51901 7.5927 3.99336 7.44676 4.5616 7.27193L17.9184 3.16215C18.3593 3.02648 18.7388 2.90967 19.047 2.84493C19.3545 2.78034 19.7247 2.73509 20.0881 2.86847C20.5702 3.04547 20.9506 3.42536 21.1278 3.90803C21.2612 4.27136 21.2158 4.64154 21.1513 4.94877C21.0866 5.25632 20.9701 5.63499 20.8348 6.07457L20.8246 6.10784C20.823 6.11293 20.8214 6.118 20.8197 6.12305L16.7228 19.438C16.5486 20.0044 16.403 20.4775 16.2592 20.831C16.123 21.166 15.9247 21.5688 15.5477 21.8043C15.0686 22.1037 14.474 22.1543 13.9504 21.937Z"/>
</svg>
