<svg width="65" height="65" fill="none" xmlns="http://www.w3.org/2000/svg"><g clip-path="url(#a)" stroke="#685C54" stroke-width="2" stroke-miterlimit="10" stroke-linejoin="round"><path d="M1.668 11.453c5.523 0 10 4.477 10 10 0-5.523 4.477-10 10-10-5.523 0-10-4.477-10-10 0 5.523-4.477 10-10 10ZM43.668 53.453c5.523 0 10 4.477 10 10 0-5.523 4.477-10 10-10-5.523 0-10-4.477-10-10 0 5.523-4.477 10-10 10Z" stroke-linecap="round"/><path d="M54.668 32.453c-12.15 0-22 9.85-22 22 0-12.15-9.85-22-22-22 12.15 0 22-9.85 22-22 0 12.15 9.85 22 22 22Z"/></g><defs><clipPath id="a"><path fill="#fff" transform="translate(.668 .453)" d="M0 0h64v64H0z"/></clipPath></defs></svg>