<svg width="95" height="47" fill="none" xmlns="http://www.w3.org/2000/svg"><g clip-path="url(#a)"><path d="M72.066 46.406c12.45 0 22.5-10.05 22.5-22.5s-10.05-22.5-22.5-22.5-22.5 10.05-22.5 22.5c-.15 12.45 10.05 22.5 22.5 22.5Z" fill="#FED42B"/><path d="M23.916 46.406c12.426 0 22.5-10.073 22.5-22.5 0-12.426-10.074-22.5-22.5-22.5s-22.5 10.074-22.5 22.5c0 12.427 10.074 22.5 22.5 22.5Z" fill="#FC3F1D"/><path d="M27.215 14.006h-2.25c-3.9 0-5.85 1.95-5.85 4.95 0 3.3 1.35 4.95 4.2 6.9l2.25 1.65-6.45 10.05h-5.25l6.15-9.15c-3.6-2.55-5.55-4.95-5.55-9.15 0-5.25 3.6-8.85 10.5-8.85h6.9v27h-4.5v-23.4h-.15Z" fill="#fff"/><mask id="b" style="mask-type:luminance" maskUnits="userSpaceOnUse" x="49" y="1" width="46" height="46"><path d="M72.066 46.406c12.45 0 22.5-10.05 22.5-22.5s-10.05-22.5-22.5-22.5-22.5 10.05-22.5 22.5c-.15 12.45 10.05 22.5 22.5 22.5Z" fill="#fff"/></mask><g mask="url(#b)"><path d="m60.966 13.705-19.8 25.95 5.25 6 14.7-19.5-1.5 10.65 8.25 2.85 10.05-16.05c-.45 3-1.2 9.9 5.4 12 10.35 3.15 19.35-15.45 23.55-24.9l-6-3.15c-4.65 9.75-11.85 20.55-14.7 19.8-2.85-.75-.3-9.9 1.35-15.75v-.15l-9.15-3.15-10.95 17.85 1.5-9.75-7.95-2.7Z" fill="#000"/></g></g><defs><clipPath id="a"><path fill="#fff" transform="translate(.666 .453)" d="M0 0h94v46H0z"/></clipPath></defs></svg>